<svg preserveAspectRatio="none" width="100%" height="100%" overflow="visible" style="display: block;" viewBox="0 0 81.8437 48.9031" fill="none" xmlns="http://www.w3.org/2000/svg">
<g id="&#231;&#172;&#172;21&#229;&#155;&#158; &#229;&#164;&#167;&#233;&#152;&#170;&#227;&#130;&#162;&#227;&#130;&#184;&#227;&#130;&#162;&#227;&#131;&#179;&#230;&#152;&#160;&#231;&#148;&#187;&#231;&#165;&#173; &#230;&#139;&#155;&#229;&#190;&#133;&#228;&#184;&#138;&#230;&#152;&#160;">
<path id="&#231;&#172;&#172;21&#229;&#155;&#158; &#229;&#164;&#167;&#233;&#152;&#170;&#227;&#130;&#162;&#227;&#130;&#184;&#227;&#130;&#162;&#227;&#131;&#179;&#230;&#152;&#160;&#231;&#148;&#187;&#231;&#165;&#173; &#230;&#139;&#155;&#229;&#190;&#133;&#228;&#184;&#138;&#230;&#152;&#160;_2" fill-rule="evenodd" clip-rule="evenodd" d="M33.4783 14.0576V13.3372H35.7836V11.7161H30.5776V12.134H33.0104V12.9196H30.9599C30.8431 13.5128 30.6964 14.0996 30.5202 14.6775L30.9891 14.7495L31.0669 14.4828H32.5775C31.9112 15.0953 30.8753 15.6287 29.96 15.8877C30.0753 16.0058 30.1777 16.1362 30.2654 16.2767C31.2225 15.9597 32.3013 15.3473 33.0104 14.6269V16.4063H33.4783V14.4827H35.7058C35.628 15.1959 35.5502 15.4985 35.4364 15.599C35.3799 15.6566 35.3089 15.6638 35.1805 15.6638C34.9082 15.6655 34.636 15.6511 34.3654 15.6205C34.4441 15.7593 34.49 15.9147 34.4996 16.0745C34.7058 16.0889 34.8975 16.0889 35.0599 16.0889C35.8828 16.0889 36.0248 16.06 36.2097 14.2446C36.2201 14.1947 36.2273 14.1441 36.2311 14.0932L35.9538 14.0501L35.8478 14.0572H33.4783V14.0576ZM35.3157 12.134V12.9196H33.4783V12.1343H35.3157V12.134ZM33.0104 14.0576H31.1729C31.2294 13.8271 31.2936 13.5749 31.3432 13.3372H33.0104V14.0576ZM32.0387 11.464C31.9705 11.2207 31.8803 10.9844 31.7692 10.758H33.1446V10.3617H31.1798C31.2508 10.2177 31.3218 10.0663 31.3792 9.9223C31.4075 9.93025 31.4377 9.92815 31.4648 9.91635C31.4918 9.90456 31.5141 9.88377 31.528 9.8574L30.9891 9.6773C30.7479 10.3473 30.3364 11.0246 29.9172 11.428C30.0483 11.4994 30.1721 11.5839 30.2868 11.6802C30.5474 11.3999 30.7758 11.0905 30.9677 10.758H31.2936C31.4281 11.0371 31.535 11.3291 31.6126 11.6297L32.0387 11.464ZM33.7973 9.6773C33.5493 10.3545 33.1028 10.9958 32.6203 11.3704C32.7489 11.4475 32.8701 11.5368 32.9822 11.6371C33.2821 11.3852 33.5428 11.0888 33.7555 10.7579H34.308C34.5252 11.0292 34.7042 11.3299 34.8401 11.6512L35.2593 11.4783C35.142 11.2225 34.9968 10.9809 34.8265 10.7579H36.5219V10.3616H33.9967C34.0746 10.2176 34.1456 10.0662 34.2088 9.91499C34.2362 9.92151 34.2649 9.9187 34.2906 9.90699C34.3163 9.89528 34.3374 9.87532 34.3508 9.85019L33.7973 9.6773ZM37.2738 11.6037H37.8886V11.3128C37.8886 10.9802 37.9294 10.4981 38.4615 10.4981C38.9197 10.4981 39.0422 10.8223 39.0422 11.1964V11.3294C39.0422 11.7285 38.944 12.0028 38.764 12.352L37.2738 15.245V15.7944H39.656V15.2207H37.9372L39.4109 12.4108C39.5566 12.1246 39.6402 11.8099 39.656 11.488V11.0973C39.656 10.3325 39.1979 9.89207 38.4771 9.89207C38.0685 9.89207 37.2738 10.0334 37.2738 11.1973V11.6046V11.6037ZM41.7347 15.7944H42.3494V9.97456H41.7512L40.8106 10.623V11.2132L41.7347 10.623V15.7944ZM44.1344 16.3707H44.6169V15.8669H49.5116V16.3707H50.0008V10.1677H44.1344V16.3707ZM44.6169 10.6508H49.5116V15.3913H44.6169V10.6499V10.6508ZM45.7024 14.2314H48.3832V11.781H45.7024V14.231V14.2314ZM46.1343 13.8136V12.1989H47.929V13.8127H46.1343V13.8136ZM17.7339 20.1172H14.9704C15.0337 19.5186 15.0642 18.9169 15.0618 18.3148C15.1474 18.2951 15.199 18.2617 15.2058 18.2018L14.5901 18.1685C14.5988 18.8192 14.5706 19.4698 14.5054 20.1172H11.9054V20.576H14.4335C14.1844 21.9196 13.5366 23.2496 11.8071 23.9613C11.9298 24.0711 12.0357 24.1989 12.1213 24.3404C13.8109 23.6021 14.5249 22.2987 14.8264 20.9815C15.3109 22.5843 16.1425 23.7614 17.5111 24.3334C17.5996 24.1785 17.7096 24.0373 17.838 23.9145C16.4441 23.389 15.5988 22.1653 15.1737 20.5754H17.7339V20.1165V20.1172ZM20.1239 18.4545H18.585V24.347H18.9838V18.8594H19.9206C19.7766 19.3249 19.5733 19.9434 19.3642 20.4488C19.868 20.9809 20.0451 21.4332 20.0519 21.8056C20.0519 22.3709 19.796 22.3709 19.5402 22.3709C19.4462 22.3705 19.3523 22.3639 19.2591 22.3511C19.3213 22.4732 19.359 22.6065 19.37 22.7435C19.8807 22.7633 20.4575 22.79 20.4575 21.8324C20.4575 21.4068 20.2805 20.9412 19.7766 20.3959C19.9993 19.8438 20.2542 19.1721 20.4244 18.667C20.4468 18.6521 20.4649 18.6314 20.4769 18.6072L20.1958 18.4343L20.1239 18.4545ZM21.3417 18.9667H24.3737V18.5543H20.9224V20.4896C20.9224 21.5737 20.8505 23.0302 20.0645 24.0611C20.1883 24.1375 20.3007 24.2316 20.3982 24.3404C21.1579 23.3362 21.3154 21.8863 21.3417 20.769H23.5877C23.446 21.4482 23.1649 22.0896 22.7628 22.6511C22.359 22.1024 22.0592 21.4822 21.8786 20.8221L21.5051 20.9153C21.7025 21.661 22.0357 22.3626 22.4876 22.9837C22.091 23.4215 21.6003 23.7606 21.0538 23.9745C21.1574 24.0859 21.2454 24.2112 21.3154 24.347C21.8631 24.112 22.3561 23.7632 22.7628 23.3228C23.1499 23.7527 23.6201 24.0968 24.1441 24.3337C24.2262 24.1953 24.3278 24.0698 24.4456 23.9613C23.9143 23.7484 23.4357 23.4191 23.0439 22.9969C23.5284 22.3646 23.8892 21.5471 24.0789 20.5162C24.0991 20.4928 24.1146 20.4658 24.1246 20.4365C23.9213 20.3633 23.8892 20.3499 23.8562 20.3367L23.7774 20.3564H21.3417V18.9656V18.9667ZM29.9911 18.7338L29.9191 18.7671H24.9816V19.2194H29.6711C29.4542 19.778 28.9697 20.4231 28.3676 20.8692C28.5082 20.9484 28.642 21.0396 28.7674 21.1418C29.4422 20.5662 29.9737 19.837 30.3189 19.0136C30.3529 19.0033 30.3829 18.9823 30.4045 18.9537L29.9911 18.7338ZM27.215 20.0906C27.0574 21.6934 26.5798 23.0833 25.2442 23.8282C25.3806 23.9199 25.5097 24.0223 25.6304 24.1345C26.9796 23.3431 27.5097 21.8467 27.6994 20.2771C27.733 20.2766 27.7656 20.2654 27.7927 20.2452C27.8197 20.2249 27.8398 20.1965 27.8501 20.164L27.215 20.0906ZM35.6815 18.2018C35.9912 18.4904 36.27 18.8114 36.5132 19.1595L36.769 18.9667C36.5201 18.6172 36.2347 18.2961 35.9178 18.0089L35.6815 18.2018ZM34.7652 18.6008C35.077 18.8922 35.3559 19.2179 35.5969 19.5718L35.8517 19.379C35.611 19.023 35.3274 18.699 35.0074 18.4146L34.7652 18.6008ZM31.7459 19.0198C32.343 19.1902 32.9239 19.415 33.4812 19.6916L33.6971 19.2858C33.1326 19.0157 32.5453 18.7975 31.9424 18.6338L31.7459 19.0198ZM31.9881 24.0544C32.0163 24.0384 32.0385 24.0135 32.0515 23.9835C32.0645 23.9535 32.0675 23.92 32.0601 23.8881C34.0376 23.1768 35.59 21.9262 36.4674 19.9642C36.3284 19.8727 36.1949 19.7727 36.0677 19.6649C35.2039 21.6468 33.7176 22.8174 31.6155 23.5356L31.9881 24.0544ZM31.0261 20.6892C31.6314 20.8345 32.2214 21.0394 32.7877 21.301L32.9841 20.882C32.4178 20.6239 31.8277 20.4234 31.2225 20.2834L31.0261 20.6892ZM42.367 18.7338L42.295 18.7671H37.3575V19.2194H42.046C41.83 19.778 41.3456 20.4231 40.7435 20.8692C40.8838 20.9484 41.0172 21.0397 41.1423 21.1418C41.8171 20.566 42.3489 19.8369 42.6948 19.0136C42.7286 19.0035 42.7584 18.9825 42.7794 18.9537L42.367 18.7338ZM39.5908 20.0906C39.4332 21.6934 38.9556 23.0833 37.6201 23.8282C37.7561 23.9204 37.8852 24.0228 38.0063 24.1345C39.3554 23.3431 39.8856 21.8467 40.0752 20.2771C40.1089 20.2766 40.1415 20.2654 40.1685 20.2452C40.1956 20.2249 40.2157 20.1965 40.226 20.164L39.5908 20.0906ZM43.506 19.2858C44.1743 19.5186 44.9466 19.8711 45.4184 20.2103L45.6674 19.7913C45.183 19.4521 44.397 19.1062 43.7161 18.8868L43.506 19.2858ZM44.043 24.0144C44.0681 23.997 44.0893 23.9744 44.1053 23.948C44.1212 23.9217 44.1314 23.8922 44.1354 23.8615C46.3551 23.11 47.9523 21.6934 48.7713 19.8711C48.6209 19.7945 48.4782 19.7032 48.3453 19.5984C47.5593 21.4407 46.0146 22.7642 43.6899 23.4957L44.043 24.0144ZM55.522 21.5071H55.0638V19.2584H53.6884V18.3672C53.7161 18.3718 53.7445 18.3654 53.7677 18.3493C53.7909 18.3332 53.8071 18.3087 53.8129 18.2808L53.2633 18.2412V19.2588H51.9336V21.5067H51.4424V18.6598H49.5962V23.6012H50.0086V23.0555H51.4424V21.9186H53.1583C52.9686 22.7499 52.4579 23.4749 51.135 23.9932C51.2482 24.0932 51.3434 24.2125 51.4161 24.3457C52.6933 23.8269 53.2633 23.1154 53.5123 22.2909C53.846 23.2552 54.416 23.9734 55.2477 24.3654C55.3252 24.2258 55.4248 24.0999 55.5424 23.993C54.6777 23.6405 54.095 22.9024 53.8003 21.9184H55.522V21.5061V21.5071ZM51.03 20.6359H50.0086V19.0731H51.03V20.6351V20.6359ZM50.0086 21.0416H51.03V22.6504H50.0086V21.0408V21.0416ZM52.3334 19.6649H53.2633V20.769C53.2657 21.0155 53.2547 21.2619 53.2303 21.5071H52.3334V19.664V19.6649ZM54.6514 21.5071H53.6563C53.6803 21.2641 53.691 21.0199 53.6884 20.7756V19.664H54.6514V21.5063V21.5071ZM56.0132 19.0331H58.6911V19.8245H57.3225V22.8506H60.5315V19.8237H59.1366V19.0323H61.867V18.6066H56.0132V19.0323V19.0331ZM58.7174 20.2103V21.148H57.7028V20.2103H58.7174ZM59.1103 21.148V20.2103H60.1385V21.148H59.1103ZM58.7174 21.5136V22.4646H57.7028V21.5136H58.7174ZM59.1103 22.4646V21.5136H60.1385V22.4646H59.1103ZM56.6484 23.4822V19.8769C56.6766 19.8788 56.7046 19.8705 56.7274 19.8535C56.7502 19.8364 56.7663 19.8117 56.7729 19.7837L56.2155 19.7506V24.3398H56.6484V23.9075H61.2513V24.32H61.6841V19.8774C61.7124 19.8793 61.7404 19.871 61.7632 19.854C61.786 19.8369 61.8021 19.8122 61.8086 19.7842L61.2513 19.7511V23.4821L56.6484 23.4822ZM68.0029 18.6H66.3396V18.9853H67.7344C67.4982 19.4043 67.2047 19.7871 66.8629 20.1226C66.4214 19.5758 66.1021 18.9381 65.9271 18.2537L65.5341 18.3401C65.8094 19.3111 66.2345 20.1093 66.8308 20.721H64.2901C64.8249 20.1804 65.2187 19.513 65.4359 18.7791C65.4495 18.7724 65.4616 18.7631 65.4716 18.7517C65.4816 18.7402 65.4893 18.7269 65.4943 18.7125L65.22 18.5861L65.148 18.6059H64.041C64.1004 18.5062 64.1519 18.4064 64.2044 18.3133C64.2322 18.3178 64.2605 18.3114 64.2837 18.2953C64.3069 18.2792 64.3231 18.2547 64.329 18.2268L63.8115 18.147C63.4756 18.831 62.9787 19.4204 62.365 19.8629C62.482 19.9385 62.5839 20.0356 62.6656 20.1494C63.1017 19.8149 63.486 19.4158 63.8056 18.9656H64.9379C64.8408 19.228 64.718 19.4797 64.5712 19.7171C64.3304 19.5653 64.0813 19.4277 63.8251 19.3047L63.615 19.5375C63.8795 19.6718 64.1355 19.8229 64.3815 19.9897C64.2656 20.1472 64.1388 20.2962 64.0021 20.4354C63.7661 20.2532 63.5189 20.0866 63.2619 19.9366L63.0197 20.156C63.2749 20.3127 63.5199 20.486 63.7531 20.6747C63.3574 21.0201 62.9023 21.2884 62.4108 21.4661C62.5103 21.5716 62.5921 21.693 62.653 21.8254C63.2537 21.5758 63.8008 21.2099 64.2638 20.7479V21.127H66.8891V20.7812C67.3112 21.1924 67.8131 21.5095 68.3628 21.7123C68.4417 21.5735 68.5385 21.446 68.6507 21.3333C68.0814 21.1469 67.5617 20.8307 67.1314 20.4088C67.6078 19.9553 68.0104 19.4277 68.3239 18.8459C68.3587 18.8339 68.3901 18.8133 68.4153 18.7861L68.0817 18.5799L68.0029 18.6ZM68.1011 21.9055H62.9798V22.3178H65.2725V23.8342C65.2725 23.9472 65.2394 23.9539 64.8795 23.9539C64.7093 23.9539 64.4797 23.9472 64.2239 23.9405C64.2975 24.0687 64.3507 24.2079 64.3815 24.3529C65.4884 24.3529 65.7112 24.3396 65.7112 23.8408V22.3177H68.1011V21.9054V21.9055ZM63.8377 22.6503C63.5113 23.1563 63.0772 23.5813 62.5674 23.894C62.692 23.9722 62.8064 24.066 62.9078 24.1733C63.4238 23.8376 63.8692 23.4013 64.2181 22.8897C64.2452 22.8955 64.2734 22.8929 64.2991 22.8822C64.3247 22.8715 64.3467 22.8533 64.362 22.8299L63.8377 22.6503ZM68.3502 23.9741C68.0613 23.5951 67.4524 23.0431 66.9553 22.664L66.5944 22.8835C67.0992 23.2825 67.6946 23.8545 67.9766 24.227L68.3502 23.9741ZM29.5135 33.0251V32.6938H31.8976V32.9964H32.3723V30.0709H29.0524V33.0247H29.5135V33.0251ZM31.8976 32.247H29.5135V30.5182H31.8976V32.247ZM27.7898 29.8552V28.2409H28.6196V27.7875H27.7898V26.4759C27.8891 26.4615 27.925 26.4326 27.9318 26.375L27.322 26.339V27.7875H26.251V28.2414H27.322V29.9993C26.8823 30.129 26.4844 30.2443 26.1654 30.3307L26.3638 30.8926C26.3886 30.8857 26.4104 30.8706 26.4259 30.8498C26.4413 30.829 26.4496 30.8035 26.4494 30.7774C26.6907 30.6984 26.9883 30.6044 27.322 30.4892V32.4416C27.3257 32.4607 27.3248 32.4805 27.3195 32.4992C27.3141 32.5179 27.3044 32.5351 27.2911 32.5492C27.2779 32.5633 27.2615 32.574 27.2433 32.5804C27.2252 32.5867 27.2057 32.5885 27.1867 32.5857C27.0943 32.5857 26.7831 32.5857 26.4426 32.5785C26.5107 32.721 26.5629 32.8708 26.5983 33.0251C27.5554 33.0395 27.7898 32.9603 27.7898 32.4416V30.3302L28.6555 30.0348L28.5982 29.61L27.7898 29.8552ZM32.1885 26.6709H28.8112V27.1175H30.1448C29.996 27.9821 29.6555 28.8322 28.6555 29.2861C28.7715 29.3908 28.8718 29.5121 28.9532 29.6463C30.1166 29.0844 30.457 28.0541 30.6272 27.1173H32.0601C31.989 28.4141 31.8976 28.9112 31.777 29.0408C31.7274 29.1129 31.6632 29.1198 31.5494 29.1198C31.4356 29.1198 31.1525 29.1198 30.8335 29.0911C30.9091 29.2311 30.9548 29.3857 30.9677 29.5449C31.1661 29.5521 31.3578 29.5593 31.5144 29.5593C31.8402 29.5593 32.025 29.5377 32.1807 29.3576C32.3655 29.1415 32.4579 28.5292 32.5493 26.8577C32.5574 26.8054 32.5623 26.7526 32.5639 26.6997L32.2945 26.6637L32.1885 26.6709ZM37.7991 27.6867H39.4799V27.2541H37.7991V26.4687C37.8915 26.4615 37.9343 26.4254 37.9411 26.375L37.3312 26.3318V27.2541H35.7282V27.6863H37.3312V28.7162H35.3517V29.1628H39.8418V28.7162H37.7991V27.6862V27.6867ZM34.7846 26.3395C34.4442 26.8433 33.7983 27.4777 33.273 27.8812C33.3735 27.9901 33.4637 28.1083 33.5425 28.2343C34.1309 27.7494 34.6705 27.2064 35.1533 26.6132C35.1818 26.6227 35.2127 26.6222 35.2409 26.6117C35.2691 26.6013 35.2931 26.5815 35.3089 26.5556L34.7846 26.3395ZM34.2944 33.0323H34.7418V29.2207C34.7713 29.2226 34.8007 29.2153 34.8261 29.1999C34.8514 29.1845 34.8716 29.1616 34.8839 29.1343L34.7486 29.0911C34.9437 28.8032 35.1236 28.505 35.2875 28.1977C35.318 28.205 35.35 28.2027 35.3792 28.1911C35.4083 28.1795 35.4334 28.1592 35.451 28.1329L34.9189 27.924C34.486 28.7767 33.9233 29.5548 33.2516 30.2293C33.3493 30.3593 33.4371 30.4966 33.5143 30.64C33.7937 30.3552 34.0543 30.0519 34.2944 29.7322V33.0318V33.0323ZM38.2533 29.3005V30.1289H35.3663V30.5756H38.2533V32.4487C38.2533 32.5928 38.2174 32.5928 37.8419 32.5928C37.6639 32.5928 37.4304 32.5856 37.1746 32.5784C37.2427 32.7235 37.2952 32.8757 37.3312 33.0322C38.4518 33.0322 38.7212 33.0179 38.7212 32.4559V30.5752H39.7922V30.1289H38.7212V29.43C38.8204 29.4228 38.8564 29.3869 38.8632 29.3364L38.2533 29.3005ZM37.2028 32.0021C37.0472 31.6635 36.6707 31.1736 36.3235 30.8206L35.9548 31.0295C36.2953 31.3969 36.6571 31.9013 36.8059 32.2399L37.2028 32.0021ZM43.7015 29.2212H46.4251V28.7313H43.7015V26.5983C43.8007 26.5839 43.8426 26.5479 43.8504 26.4974L43.2045 26.4543V32.1962H40.4731V32.6861H46.9212V32.1962H43.7015V29.2207V29.2212ZM54.1787 29.9633H53.6816V27.5277H52.1924V26.5625C52.2848 26.5553 52.3198 26.5193 52.3266 26.4689L51.7313 26.4256V27.5277H50.2907V29.9628H49.7586V26.8793H47.7587V32.2322H48.2052V31.6415H49.7586V30.4094H51.6175C51.4123 31.31 50.8588 32.0953 49.426 32.6572C49.5486 32.7655 49.6516 32.8947 49.7304 33.039C51.1136 32.4771 51.7313 31.7063 52.0007 30.8129C52.3626 31.8575 52.9793 32.6356 53.88 33.0607C53.9643 32.9094 54.0724 32.7731 54.2001 32.6572C53.2633 32.2754 52.632 31.4757 52.313 30.4094H54.1787V29.9628V29.9633ZM49.3122 29.0196H48.2052V27.326H49.3122V29.0191V29.0196ZM48.2052 29.459H49.3122V31.2024H48.2052V29.4585V29.459ZM50.7236 27.9672H51.7313V29.1632C51.7342 29.4304 51.7222 29.6976 51.6953 29.9634H50.7236V27.9678V27.9672ZM53.2351 29.9628H52.1564C52.1831 29.6995 52.1951 29.435 52.1924 29.1703V27.9671H53.2351V29.9628Z" fill="var(--fill-0, white)"/>
<path id="&#227;&#130;&#183;&#227;&#130;&#167;&#227;&#130;&#164;&#227;&#131;&#151; 1" fill-rule="evenodd" clip-rule="evenodd" d="M36.0696 47.8263C34.2205 45.8351 31.1836 44.5868 28.6663 43.745C28.8569 41.7437 28.033 39.2572 25.5954 37.458C24.9656 37.0081 24.3094 36.5975 23.6305 36.2286C23.755 37.6556 24.0906 38.881 24.6791 39.8256C25.3386 40.8915 27.3803 42.8076 28.2908 43.6212C26.7607 43.1222 25.322 42.7171 23.685 42.2273C23.6976 41.6846 23.5536 40.9301 23.3679 40.2219C23.1626 39.4429 22.9097 38.7203 22.7327 38.3978C22.2123 37.4618 21.5177 36.7337 20.8865 36.1646C20.3838 35.7233 19.8592 35.3087 19.3146 34.9222C19.1686 37.1268 19.6093 39.2286 23.2793 42.1057C21.7463 41.643 20.261 41.168 18.762 40.5808C18.7971 40.017 18.6492 36.9672 16.8273 34.5011C16.3828 33.9047 15.9752 33.4512 15.7145 33.1609C14.7895 36.0147 16.2087 38.5701 18.3486 40.416C16.8791 39.8351 15.4629 39.1238 14.1164 38.2904C14.4422 36.6858 14.308 33.6131 12.8752 30.7118C11.062 33.3989 12.4316 36.5316 13.7419 38.0494C12.4319 37.2001 11.2325 36.1865 10.172 35.0327C10.1574 35.0159 10.1418 34.9988 10.1263 34.9819C10.6019 33.9177 11.6778 30.3377 10.6914 27.3356C8.83937 29.1722 8.68859 31.8328 9.5903 34.1193C9.65968 34.3006 9.74027 34.4773 9.83154 34.6483C9.83252 34.6494 9.83251 34.6504 9.83348 34.6516C8.79333 33.4443 7.91124 32.1054 7.2091 30.6684C8.92886 28.3779 9.51541 25.7629 9.138 23.267C6.84141 24.791 6.45038 28.0814 7.03109 30.297C6.34255 28.8397 5.78109 27.3239 5.35315 25.767C7.47367 23.6383 8.3997 21.1505 8.39776 18.9333C6.61574 19.6766 5.65178 21.491 5.33642 23.3846C5.21268 24.0559 5.18773 24.7422 5.2624 25.4209C4.84951 23.8405 4.5861 22.2236 4.47576 20.5923C4.80259 20.34 5.35422 19.7834 5.89884 19.2335C6.31711 18.8037 8.11566 17.2417 8.50864 14.4312C6.6848 14.8389 5.48738 16.4528 4.86562 18.2119C4.61587 18.9175 4.48059 19.6596 4.46506 20.4093C4.42012 19.6849 4.40115 18.976 4.41438 18.2897C4.47975 14.6997 5.24401 11.1288 6.54181 7.81698C6.60017 7.66317 6.65173 7.538 6.69161 7.44099C6.89005 7.22315 7.20618 6.79668 7.54955 6.32841C8.00672 5.70168 8.51058 5.00106 8.78781 4.54663C9.96382 2.59809 10.3442 1.10082 10.6768 0C9.39771 0.949079 8.35107 1.91278 7.53107 3.67421C7.22549 4.3721 6.98136 5.0961 6.80153 5.83772C6.66808 6.33836 6.5776 6.8498 6.53111 7.3663C6.48928 7.46806 6.43189 7.6034 6.36672 7.77342C6.04962 8.56423 5.67415 9.62643 5.37309 10.6581C5.4156 10.3538 5.5224 9.44297 5.6615 8.4196C5.73737 7.85502 5.822 7.25674 5.88717 6.7048C5.95296 6.2305 5.98708 5.75221 5.98931 5.27323C5.95915 4.22101 5.71889 3.03405 5.36327 1.69643C4.55037 3.25613 3.91625 4.9573 4.13122 6.86C4.24387 7.91251 4.64375 9.96567 5.35402 10.7234C4.87858 12.3451 4.54047 14.0051 4.34338 15.6852C3.98104 10.5695 4.35553 10.3802 2.69394 6.89527C1.13584 11.7173 3.43321 15.2872 4.31604 15.9316C4.13718 17.5714 4.10573 19.2242 4.22208 20.8698C2.84325 16.1476 3.28827 15.8373 0.846751 12.5474C0.195615 17.4276 2.69433 20.5605 4.25379 21.2552C4.39188 22.8636 4.67535 24.4557 5.10063 26.0113C2.74296 21.7308 3.14547 21.3084 0 18.5662C0.324012 24.0877 4.08541 26.2527 5.23613 26.4897C5.68093 28.0113 6.25326 29.4913 6.94685 30.9137C6.62974 30.5464 6.18521 30.0231 5.71539 29.4499C5.61228 29.3286 5.51209 29.2035 5.4119 29.0774C3.82278 27.1213 3.45509 26.3804 0.324599 24.7362C1.77609 29.6415 5.35481 31.4649 7.21143 31.4342C7.93453 32.8186 8.82532 34.1057 9.86306 35.2655C9.82512 35.242 9.7862 35.2183 9.74632 35.1933C9.544 35.0678 9.31931 34.9166 9.07126 34.7558C8.831 34.5879 8.56156 34.4128 8.29989 34.2175C5.79029 32.4465 5.69788 31.7155 1.85488 30.7414C3.60888 33.9848 6.25427 36.2319 9.83484 35.8581C9.92822 35.8477 10.0167 35.8339 10.0994 35.8168C10.1754 35.8014 10.2504 35.7816 10.3241 35.7576C11.3934 36.8562 12.586 37.8234 13.8775 38.6395C13.6197 38.5703 12.8308 38.3482 12.0993 38.1071C8.97691 37.0698 8.81155 36.5602 4.71641 36.5391C8.724 40.9795 13.1481 39.9547 14.5041 39.0251C15.7945 39.7832 17.1409 40.4386 18.5311 40.9852C13.3475 40.6796 13.1676 40.1726 9.21056 41.522C14.4827 44.6339 18.6576 41.8942 19.2743 41.275C20.6478 41.7967 22.029 42.2405 23.4326 42.6717C22.387 42.7184 18.9893 42.8849 17.9806 43.1926C16.894 43.526 15.7744 44.1689 14.5809 45.0257C15.4461 45.2953 16.3363 45.474 17.2374 45.5591C20.4201 45.8186 23.6505 43.6304 24.2497 42.9214C25.4977 43.3008 27.0006 43.7463 28.3468 44.203C22.9599 44.3866 21.7284 45.4857 19.9834 47.3502C20.816 47.4775 21.658 47.5313 22.4998 47.5109C25.1874 47.4046 28.5812 45.1868 29.2018 44.502C33.3573 46.0046 34.9895 47.4201 36.2219 48.9031C36.1912 48.5415 36.1404 48.182 36.0696 47.8263ZM4.63013 15.335C7.96295 13.3737 9.01154 11.4607 9.43536 9.89425C6.92507 10.063 5.05356 12.7888 4.63013 15.335ZM7.90653 6.74639C7.49662 7.11096 7.13237 7.5253 6.82195 7.98008C6.36595 8.66295 6.00369 9.40574 5.74515 10.188C5.97277 10.0781 8.63315 8.68693 9.19246 8.17875C9.97647 7.46302 10.8218 6.17212 11.097 5.47012C9.87726 5.37321 8.8277 5.91319 7.90653 6.74639ZM45.7734 47.8263C47.6235 45.8351 50.6603 44.5868 53.1777 43.745C52.9871 41.7437 53.81 39.2572 56.2476 37.458C56.8776 37.0083 57.5337 36.5978 58.2125 36.2286C58.089 37.6556 57.7524 38.881 57.1649 39.8256C56.5054 40.8915 54.4627 42.8076 53.5532 43.6212C55.0833 43.1222 56.521 42.7171 58.159 42.2273C58.1454 41.6846 58.2894 40.9301 58.4751 40.2219C58.6814 39.4429 58.9333 38.7203 59.1113 38.3978C59.6317 37.4618 60.3253 36.7337 60.9565 36.1646C61.4595 35.7233 61.9845 35.3086 62.5294 34.9222C62.6753 37.1268 62.2347 39.2286 58.5637 42.1057C60.0976 41.643 61.582 41.168 63.0819 40.5808C63.0469 40.017 63.1938 36.9672 65.0157 34.5011C65.4612 33.9047 65.8678 33.4512 66.1294 33.1609C67.0535 36.0147 65.6343 38.5701 63.4953 40.416C64.9648 39.8351 66.3811 39.1238 67.7276 38.2904C67.4018 36.6858 67.535 33.6131 68.9688 30.7118C70.781 33.3989 69.4124 36.5316 68.1021 38.0494C69.4119 37.2003 70.611 36.1867 71.671 35.0327C71.6866 35.0159 71.7012 34.9988 71.7167 34.9819C71.242 33.9177 70.1662 30.3377 71.1516 27.3356C73.0036 29.1722 73.1554 31.8328 72.2527 34.1193C72.1836 34.3006 72.1034 34.4773 72.0124 34.6483C72.0114 34.6492 72.0107 34.6503 72.0105 34.6516C73.0503 33.444 73.9324 32.1052 74.6349 30.6684C72.9151 28.3779 72.3286 25.7629 72.706 23.267C75.0026 24.791 75.3926 28.0814 74.8129 30.297C75.501 28.8395 76.0625 27.3237 76.4908 25.767C74.3703 23.6383 73.4443 21.1505 73.4453 18.9333C75.2273 19.6766 76.1912 21.491 76.5074 23.3846C76.6311 24.0559 76.656 24.7422 76.5813 25.4209C76.994 23.8404 77.2575 22.2235 77.3682 20.5923C77.0414 20.34 76.4899 19.7834 75.9451 19.2335C75.5269 18.8037 73.7283 17.2417 73.3344 14.4312C75.1592 14.8389 76.3566 16.4528 76.9781 18.2119C77.2281 18.9175 77.3634 19.6596 77.3789 20.4093C77.4237 19.6849 77.4421 18.976 77.4295 18.2897C77.3643 14.6997 76.5998 11.1288 75.3012 7.81698C75.2428 7.66317 75.1913 7.538 75.1524 7.44099C74.953 7.22315 74.6378 6.79668 74.2935 6.32841C73.8373 5.70168 73.3324 5.00106 73.0562 4.54663C71.8801 2.59809 71.4998 1.10082 71.1671 0C72.4463 0.949079 73.4929 1.91278 74.3129 3.67421C74.6185 4.37197 74.8624 5.096 75.0415 5.83772C75.1747 6.33846 75.2655 6.84985 75.3129 7.3663C75.3547 7.46806 75.4121 7.6034 75.4773 7.77342C75.7944 8.56423 76.1689 9.62643 76.4704 10.6581C76.4276 10.3538 76.3216 9.44297 76.1825 8.4196C76.1066 7.85502 76.021 7.25674 75.9558 6.7048C75.8898 6.23053 75.856 5.75221 75.8547 5.27323C75.8848 4.22101 76.1241 3.03405 76.4801 1.69643C77.2933 3.25613 77.9275 4.9573 77.7126 6.86C77.5997 7.91251 77.1999 9.96567 76.4898 10.7234C76.9654 12.345 77.3035 14.005 77.5005 15.6852C77.8623 10.5695 77.4879 10.3802 79.1502 6.89527C80.7076 11.7173 78.41 15.2872 77.5277 15.9316C77.707 17.5713 77.7382 19.2243 77.6211 20.8698C79.0004 16.1476 78.5549 15.8373 80.9974 12.5474C81.6482 17.4276 79.1502 20.5605 77.59 21.2552C77.4519 22.8636 77.1686 24.4556 76.7437 26.0113C79.1006 21.7308 78.6989 21.3084 81.8437 18.5662C81.5198 24.0877 77.7592 26.2527 76.6076 26.4897C76.1633 28.0114 75.5912 29.4915 74.8975 30.9137C75.2146 30.5464 75.6592 30.0231 76.129 29.4499C76.2311 29.3286 76.3323 29.2035 76.4325 29.0774C78.0209 27.1213 78.3886 26.3804 81.5188 24.7362C80.0675 29.6415 76.4889 31.4649 74.6329 31.4342C73.9095 32.8184 73.0187 34.1054 71.9813 35.2655C72.0192 35.242 72.0572 35.2183 72.098 35.1933C72.2994 35.0678 72.5241 34.9166 72.7731 34.7558C73.0134 34.5879 73.2818 34.4128 73.5445 34.2175C76.0541 32.4465 76.1455 31.7155 79.9897 30.7414C78.2349 33.9848 75.5901 36.2319 72.0095 35.8581C71.9161 35.8477 71.8276 35.8339 71.744 35.8168C71.6684 35.8014 71.5937 35.7816 71.5202 35.7576C70.4508 36.8564 69.2579 37.8237 67.9659 38.6395C68.2247 38.5703 69.0135 38.3482 69.7441 38.1071C72.8665 37.0698 73.0328 36.5602 77.128 36.5391C73.1204 40.9795 68.6964 39.9547 67.3395 39.0251C66.0493 39.7836 64.7028 40.439 63.3125 40.9852C68.497 40.6796 68.676 40.1726 72.634 41.522C67.3619 44.6339 63.187 41.8942 62.5703 41.275C61.1968 41.7967 59.8146 42.2405 58.4109 42.6717C59.4576 42.7184 62.8553 42.8849 63.864 43.1926C64.9505 43.526 66.0701 44.1689 67.2627 45.0257C66.3975 45.2955 65.5073 45.4742 64.6062 45.5591C61.4244 45.8186 58.194 43.6304 57.5948 42.9214C56.3468 43.3008 54.844 43.7463 53.4968 44.203C58.8846 44.3866 60.1161 45.4857 61.8612 47.3502C61.0285 47.4775 60.1865 47.5313 59.3447 47.5109C56.6571 47.4046 53.2633 45.1868 52.6418 44.502C48.4873 46.0046 46.8541 47.4201 45.6217 48.9031C45.6526 48.5416 45.7033 48.1821 45.7734 47.8263ZM77.2136 15.335C73.881 13.3737 72.8315 11.4607 72.4083 9.89425C74.9179 10.063 76.7904 12.7888 77.2136 15.335ZM73.9374 6.74639C74.3468 7.11148 74.711 7.52575 75.022 7.98008C75.4776 8.66318 75.8399 9.40591 76.0988 10.188C75.8712 10.0781 73.2108 8.68693 72.6505 8.17875C71.8665 7.46302 71.0212 6.17212 70.746 5.47012C71.9667 5.37321 73.0153 5.91319 73.9374 6.74639Z" fill="var(--fill-0, white)"/>
</g>
</svg>
