<svg preserveAspectRatio="none" width="100%" height="100%" overflow="visible" style="display: block;" viewBox="0 0 81.8445 48.9031" fill="none" xmlns="http://www.w3.org/2000/svg">
<g id="&#227;&#129;&#180;&#227;&#129;&#130;&#227;&#131;&#149;&#227;&#130;&#163;&#227;&#131;&#171;&#227;&#131;&#160; &#227;&#131;&#149;&#227;&#130;&#167;&#227;&#130;&#185;&#227;&#131;&#134;&#227;&#130;&#163;&#227;&#131;&#144;&#227;&#131;&#171;2025 &#229;&#133;&#165;&#233;&#129;&#184;">
<path id="&#227;&#130;&#183;&#227;&#130;&#167;&#227;&#130;&#164;&#227;&#131;&#151; 1" fill-rule="evenodd" clip-rule="evenodd" d="M36.0694 47.8263C34.2203 45.8351 31.1834 44.5868 28.666 43.745C28.8567 41.7437 28.0338 39.2572 25.5962 37.458C24.9661 37.0081 24.3096 36.5975 23.6303 36.2286C23.7548 37.6556 24.0904 38.881 24.6789 39.8256C25.3384 40.8915 27.3801 42.8076 28.2906 43.6212C26.7605 43.1222 25.3218 42.7171 23.6848 42.2273C23.6974 41.6846 23.5534 40.9301 23.3677 40.2219C23.1624 39.4429 22.9095 38.7203 22.7325 38.3978C22.2121 37.4618 21.5176 36.7337 20.8863 36.1646C20.3838 35.7231 19.8591 35.3084 19.3144 34.9222C19.1685 37.1268 19.6091 39.2286 23.2791 42.1057C21.7461 41.643 20.2618 41.168 18.7619 40.5808C18.7969 40.017 18.65 36.9672 16.8281 34.5011C16.3826 33.9047 15.975 33.4512 15.7143 33.1609C14.7893 36.0147 16.2094 38.5701 18.3484 40.416C16.879 39.8351 15.4627 39.1238 14.1162 38.2904C14.442 36.6858 14.3088 33.6131 12.875 30.7118C11.0628 33.3989 12.4314 36.5316 13.7417 38.0494C12.4318 37.2003 11.2327 36.1867 10.1728 35.0327C10.1572 35.0159 10.1416 34.9988 10.127 34.982C10.6017 33.9177 11.6776 30.3377 10.6922 27.3356C8.83917 29.1722 8.68839 31.8328 9.5901 34.1193C9.65949 34.3006 9.74006 34.4773 9.83133 34.6483C9.83231 34.6494 9.83231 34.6504 9.83328 34.6516C8.79346 33.444 7.91139 32.1052 7.2089 30.6684C8.92866 28.3779 9.5152 25.7629 9.13779 23.267C6.8412 24.791 6.45115 28.0814 7.03089 30.297C6.34275 28.8395 5.78136 27.3238 5.35315 25.767C7.47367 23.6383 8.3995 21.1505 8.39853 18.9333C6.61554 19.6766 5.65255 21.491 5.33642 23.3846C5.21266 24.0559 5.18774 24.7422 5.26249 25.4209C4.84947 23.8405 4.58603 22.2236 4.47576 20.5923C4.80259 20.34 5.35422 19.7834 5.89865 19.2335C6.31692 18.8037 8.11547 17.2417 8.50942 14.4312C6.6846 14.8389 5.48719 16.4528 4.86562 18.2119C4.61587 18.9175 4.48059 19.6596 4.46506 20.4093C4.42012 19.6849 4.40115 18.976 4.41438 18.2897C4.47974 14.6997 5.24391 11.1288 6.54161 7.81698C6.60095 7.66317 6.65153 7.538 6.69141 7.44099C6.89082 7.22315 7.20598 6.79668 7.55032 6.32841C8.00652 5.70168 8.51039 5.00106 8.78761 4.54663C9.96363 2.59809 10.344 1.10082 10.6766 0C9.39751 0.949079 8.35086 1.91278 7.53086 3.67421C7.22529 4.3721 6.98116 5.0961 6.80133 5.83772C6.66788 6.33836 6.57741 6.8498 6.53091 7.3663C6.48909 7.46805 6.4317 7.6034 6.36653 7.77342C6.04942 8.56423 5.67395 9.62643 5.37299 10.6581C5.4156 10.3538 5.52221 9.44297 5.66131 8.4196C5.73718 7.85502 5.8218 7.25674 5.88698 6.7048C5.95325 6.23055 5.98737 5.75223 5.98911 5.27323C5.95896 4.22101 5.71967 3.03405 5.36326 1.69643C4.55036 3.25613 3.91625 4.9573 4.13122 6.86C4.24386 7.91251 4.64375 9.96567 5.35403 10.7234C4.87858 12.3451 4.54046 14.0051 4.34337 15.6852C3.98103 10.5695 4.35553 10.3802 2.69393 6.89527C1.13584 11.7173 3.4332 15.2872 4.31604 15.9316C4.13718 17.5714 4.10573 19.2242 4.22207 20.8698C2.84325 16.1476 3.28826 15.8373 0.846745 12.5474C0.195609 17.4276 2.69432 20.5605 4.25378 21.2552C4.39189 22.8636 4.67533 24.4557 5.10053 26.0113C2.74296 21.7308 3.14538 21.3084 0 18.5662C0.324012 24.0877 4.0854 26.2527 5.23613 26.4897C5.68077 28.0113 6.25305 29.4914 6.94665 30.9137C6.62955 30.5464 6.18502 30.0231 5.7152 29.4499C5.61306 29.3286 5.51189 29.2035 5.4119 29.0774C3.82277 27.1213 3.45509 26.3804 0.32508 24.7362C1.77657 29.6415 5.35529 31.4649 7.21123 31.4342C7.93466 32.8184 8.82544 34.1054 9.86286 35.2655C9.82492 35.242 9.78698 35.2183 9.74613 35.1933C9.54477 35.0678 9.31911 34.9166 9.07107 34.7558C8.83081 34.5879 8.56136 34.4128 8.2997 34.2175C5.79009 32.4465 5.69866 31.7155 1.85487 30.7414C3.60887 33.9848 6.25408 36.2319 9.83465 35.8581C9.92803 35.8477 10.0165 35.8339 10.1002 35.8168C10.1758 35.8014 10.2505 35.7816 10.3239 35.7576C11.3933 36.8564 12.5863 37.8237 13.8782 38.6395C13.6195 38.5703 12.8306 38.3482 12.1001 38.1071C8.97769 37.0698 8.81135 36.5602 4.71621 36.5391C8.72381 40.9795 13.1477 39.9547 14.5047 39.0251C15.7949 39.7836 17.1413 40.439 18.5317 40.9852C13.3471 40.6796 13.1672 40.1726 9.21016 41.522C14.4823 44.6339 18.6572 41.8942 19.2739 41.275C20.6474 41.7967 22.0286 42.2405 23.4323 42.6717C22.3866 42.7184 18.9889 42.8849 17.9802 43.1926C16.8936 43.526 15.7741 44.1689 14.5805 45.0257C15.4461 45.2954 16.3365 45.4741 17.238 45.5591C20.4197 45.8186 23.6501 43.6304 24.2493 42.9214C25.4973 43.3008 27.0002 43.7463 28.3464 44.203C22.9595 44.3866 21.728 45.4857 19.983 47.3502C20.8157 47.4775 21.6576 47.5313 22.4994 47.5109C25.187 47.4046 28.5808 45.1868 29.2024 44.502C33.3569 46.0046 34.9891 47.4201 36.2225 48.9031C36.1916 48.5415 36.1405 48.182 36.0694 47.8263ZM4.63013 15.335C7.96275 13.3737 9.01232 11.4607 9.43535 9.89425C6.92584 10.063 5.05336 12.7888 4.63013 15.335ZM7.90634 6.74639C7.49694 7.11148 7.13274 7.52575 6.82176 7.98008C6.36575 8.66295 6.00349 9.40574 5.74496 10.1879C5.97257 10.0781 8.63295 8.68693 9.19227 8.17875C9.97725 7.46302 10.8225 6.17212 11.0968 5.47012C9.87705 5.37321 8.8275 5.91319 7.90634 6.74639ZM45.7742 47.8263C47.6233 45.8351 50.6601 44.5868 53.1775 43.745C52.9869 41.7437 53.8098 39.2572 56.2474 37.458C56.8775 37.0081 57.534 36.5975 58.2133 36.2286C58.0888 37.6556 57.7532 38.881 57.1647 39.8256C56.5052 40.8915 54.4635 42.8076 53.553 43.6212C55.0831 43.1222 56.5217 42.7171 58.1588 42.2273C58.1462 41.6846 58.2901 40.9301 58.4759 40.2219C58.6812 39.4429 58.9341 38.7203 59.1111 38.3978C59.6315 37.4618 60.326 36.7337 60.9573 36.1646C61.4598 35.7231 61.9844 35.3084 62.5292 34.9222C62.6751 37.1268 62.2345 39.2286 58.5644 42.1057C60.0974 41.643 61.5818 41.168 63.0817 40.5808C63.0467 40.017 63.1946 36.9672 65.0155 34.5011C65.461 33.9047 65.8686 33.4512 66.1292 33.1609C67.0543 36.0147 65.6341 38.5701 63.4951 40.416C64.9646 39.8351 66.3809 39.1238 67.7274 38.2904C67.4016 36.6858 67.5348 33.6131 68.9686 30.7118C70.7808 33.3989 69.4122 36.5316 68.1019 38.0494C69.4117 37.2003 70.6109 36.1867 71.6708 35.0327C71.6864 35.0159 71.7019 34.9988 71.7165 34.982C71.2418 33.9177 70.166 30.3377 71.1514 27.3356C73.0044 29.1722 73.1552 31.8328 72.2535 34.1193C72.1841 34.3006 72.1035 34.4773 72.0122 34.6483C72.0113 34.6494 72.0113 34.6504 72.0103 34.6516C73.0501 33.444 73.9322 32.1052 74.6347 30.6684C72.9149 28.3779 72.3284 25.7629 72.7058 23.267C75.0024 24.791 75.3924 28.0814 74.8127 30.297C75.5008 28.8395 76.0623 27.3237 76.4906 25.767C74.3701 23.6383 73.4441 21.1505 73.446 18.9333C75.228 19.6766 76.191 21.491 76.5072 23.3846C76.6309 24.0559 76.6558 24.7422 76.5811 25.4209C76.9938 23.8404 77.2573 22.2235 77.368 20.5923C77.0412 20.34 76.4897 19.7834 75.9449 19.2335C75.5267 18.8037 73.7281 17.2417 73.3342 14.4312C75.159 14.8389 76.3564 16.4528 76.978 18.2119C77.2279 18.9175 77.3632 19.6596 77.3787 20.4093C77.4235 19.6849 77.4429 18.976 77.4293 18.2897C77.3641 14.6997 76.5996 11.1288 75.302 7.81698C75.2426 7.66317 75.192 7.538 75.1522 7.44099C74.9528 7.22315 74.6376 6.79668 74.2933 6.32841C73.8371 5.70168 73.3332 5.00106 73.056 4.54663C71.88 2.59809 71.4996 1.10082 71.1669 0C72.4461 0.949079 73.4927 1.91278 74.3127 3.67421C74.6183 4.3721 74.8624 5.0961 75.0422 5.83772C75.1757 6.33813 75.2661 6.84934 75.3127 7.36561C75.3545 7.46736 75.4119 7.60271 75.477 7.77272C75.7942 8.56354 76.1696 9.62573 76.4702 10.6574C76.4284 10.3531 76.3214 9.44228 76.1823 8.41891C76.1064 7.85432 76.0218 7.25605 75.9566 6.70411C75.8903 6.22986 75.8562 5.75154 75.8545 5.27254C75.8846 4.22032 76.1239 3.03336 76.4799 1.69574C77.2931 3.25544 77.9273 4.95661 77.7124 6.85931C77.5995 7.91182 77.1997 9.96498 76.4896 10.7227C76.9652 12.3444 77.3034 14.0044 77.5003 15.6845C77.8622 10.5688 77.4877 10.3795 79.15 6.89458C80.7073 11.7166 78.4108 15.2865 77.5275 15.9309C77.7066 17.5706 77.7382 19.2235 77.6219 20.8691C79.0002 16.1469 78.5557 15.8366 80.9972 12.5467C81.648 17.4269 79.15 20.5598 77.5898 21.2545C77.4521 22.8629 77.1689 24.455 76.7435 26.0106C79.1014 21.7301 78.6987 21.3077 81.8445 18.5655C81.5196 24.0871 77.759 26.252 76.6083 26.489C76.1633 28.0106 75.5909 29.4906 74.8973 30.913C75.2144 30.5457 75.659 30.0224 76.1288 29.4492C76.2319 29.3279 76.3321 29.2028 76.4323 29.0767C78.0217 27.1206 78.3884 26.3797 81.5186 24.7355C80.0673 29.6409 76.4887 31.4642 74.6327 31.4335C73.9093 32.8177 73.0185 34.1047 71.9811 35.2648C72.019 35.2413 72.057 35.2176 72.0978 35.1926C72.2992 35.0671 72.5249 34.916 72.7729 34.7551C73.0132 34.5872 73.2826 34.4121 73.5443 34.2168C76.0539 32.4458 76.1453 31.7149 79.9895 30.7407C78.2347 33.9841 75.5899 36.2313 72.0093 35.8574C71.9159 35.847 71.8274 35.8332 71.7447 35.8161C71.6688 35.8008 71.5938 35.781 71.52 35.7569C70.4506 36.8557 69.2577 37.823 67.9657 38.6388C68.2245 38.5696 69.0134 38.3475 69.7439 38.1064C72.8673 37.0691 73.0326 36.5595 77.1278 36.5384C73.1202 40.9788 68.6963 39.954 67.3393 39.0245C66.0493 39.7827 64.7032 40.4381 63.3132 40.9846C68.4968 40.6789 68.6768 40.1719 72.6338 41.5213C67.3617 44.6332 63.1868 41.8935 62.5701 41.2743C61.1966 41.796 59.8153 42.2398 58.4117 42.671C59.4574 42.7177 62.8551 42.8842 63.8638 43.1919C64.9503 43.5253 66.0699 44.1682 67.2634 45.025C66.3979 45.2947 65.5074 45.4734 64.606 45.5584C61.4242 45.8179 58.1938 43.6297 57.5946 42.9207C56.3466 43.3001 54.8438 43.7456 53.4976 44.2023C58.8845 44.3859 60.1159 45.485 61.861 47.3495C61.0283 47.4768 60.1864 47.5306 59.3445 47.5102C56.6569 47.4039 53.2631 45.1861 52.6425 44.5013C48.4871 46.0039 46.8549 47.4195 45.6224 48.9024C45.6525 48.541 45.7031 48.1817 45.7742 47.8263ZM77.2134 15.335C73.8808 13.3737 72.8322 11.4607 72.4081 9.89425C74.9177 10.063 76.7902 12.7888 77.2134 15.335ZM73.9372 6.74639C74.3466 7.11148 74.7108 7.52575 75.0218 7.98008C75.4778 8.66295 75.8401 9.40574 76.0986 10.1879C75.871 10.0781 73.2106 8.68693 72.6513 8.17875C71.8673 7.46302 71.022 6.17212 70.7467 5.47012C71.9665 5.37321 73.0161 5.91319 73.9372 6.74639Z" fill="var(--fill-0, white)"/>
<path id="&#227;&#129;&#180;&#227;&#129;&#130;&#227;&#131;&#149;&#227;&#130;&#163;&#227;&#131;&#171;&#227;&#131;&#160; &#227;&#131;&#149;&#227;&#130;&#167;&#227;&#130;&#185;&#227;&#131;&#134;&#227;&#130;&#163;&#227;&#131;&#144;&#227;&#131;&#171;2025 &#229;&#133;&#165;&#233;&#129;&#184;_2" fill-rule="evenodd" clip-rule="evenodd" d="M26.3977 12.4868C26.3977 12.6463 26.4444 12.8023 26.5317 12.9349C26.619 13.0675 26.7431 13.1709 26.8883 13.2319C27.0334 13.2929 27.1931 13.3088 27.3472 13.2776C27.5013 13.2464 27.6428 13.1695 27.7538 13.0566C27.8648 12.9437 27.9404 12.8 27.9709 12.6435C28.0015 12.487 27.9857 12.3248 27.9255 12.1774C27.8653 12.03 27.7634 11.9041 27.6328 11.8156C27.5021 11.727 27.3485 11.6798 27.1914 11.6799C27.0871 11.6797 26.9837 11.7005 26.8873 11.741C26.7909 11.7815 26.7033 11.841 26.6296 11.916C26.5558 11.9909 26.4974 12.0799 26.4576 12.1779C26.4178 12.2759 26.3974 12.3808 26.3977 12.4868ZM27.1914 13.0559C27.0447 13.0516 26.9055 12.9893 26.8032 12.8824C26.701 12.7754 26.6438 12.6322 26.6438 12.4832C26.6438 12.3341 26.701 12.191 26.8032 12.084C26.9055 11.9771 27.0447 11.9148 27.1914 11.9105C27.3381 11.9148 27.4774 11.9771 27.5796 12.084C27.6818 12.191 27.739 12.3341 27.739 12.4832C27.739 12.6322 27.6818 12.7754 27.5796 12.8824C27.4774 12.9893 27.3381 13.0516 27.1914 13.0559ZM21.5876 13.3874C21.6175 13.3823 21.6454 13.3688 21.6681 13.3484C21.6908 13.328 21.7074 13.3016 21.716 13.2721C22.2685 13.2418 22.8158 13.1475 23.3472 12.9911C22.5175 13.8844 21.9991 15.1308 21.9991 16.1251C21.9991 17.5803 22.9922 18.1996 24.2334 18.1996C25.6808 18.1996 26.4395 17.3856 26.4823 16.1536V15.9525C26.4836 15.3182 26.4194 14.6856 26.2907 14.065H26.2985C26.5397 14.5188 27.1632 15.1023 27.7313 15.3041L27.9365 14.807C27.2624 14.5621 26.3977 13.7768 25.9862 12.7609L25.5174 12.9843C25.8792 13.7549 25.9998 14.8142 25.9998 15.7292C25.9998 16.3417 25.9998 17.7031 24.2334 17.7031C23.319 17.7031 22.4883 17.2926 22.4883 16.0894C22.4883 14.5549 23.7441 13.0419 24.4182 12.5881L24.0564 12.2423C23.8929 12.3598 23.7105 12.4476 23.5175 12.5017C23.106 12.6313 22.2831 12.7538 21.5244 12.7971L21.5876 13.3874ZM32.4061 14.0213C32.3847 14.1366 32.3634 14.2447 32.3351 14.36C32.2427 14.3528 32.1503 14.3528 32.0443 14.3528C31.6835 14.3548 31.325 14.4107 30.9801 14.5184C30.9724 14.1798 30.9801 13.8196 30.9938 13.445C31.8031 13.4233 33.1717 13.3513 33.9236 13.164L33.8604 12.6741C33.1435 12.8618 31.7885 12.9551 31.0152 12.9767C31.0366 12.71 31.0511 12.3787 31.0725 12.1122C31.1147 12.1126 31.1557 12.0987 31.1891 12.0725C31.2225 12.0464 31.2462 12.0096 31.2564 11.9681L30.5473 11.9177C30.5327 12.2562 30.5191 12.6597 30.5113 12.9911C29.9014 12.9911 29.2847 12.9911 28.9228 12.9695L28.9374 13.445C29.1709 13.4594 29.2983 13.4594 30.4977 13.4594C30.4909 13.8842 30.4909 14.2951 30.5045 14.6697C29.4763 15.0876 28.667 15.8801 28.667 16.8743C28.667 17.4077 28.9579 17.8325 29.5259 17.8325C29.845 17.8325 30.2992 17.7173 30.8663 17.2923C30.91 17.4182 30.9671 17.539 31.0366 17.6524L31.4548 17.3857C31.3768 17.2649 31.315 17.1341 31.271 16.9967C31.8934 16.4084 32.376 15.6841 32.6824 14.8785C33.4411 15.0082 33.9946 15.4189 34.0306 16.2546V16.305C34.0306 17.2344 33.0871 17.7531 31.6182 17.8972C31.6943 18.0353 31.7584 18.18 31.8099 18.3295C33.5831 18.1277 34.5481 17.4361 34.5481 16.2906C34.5481 15.441 34.087 14.648 32.838 14.4247C32.8666 14.3348 32.8904 14.2434 32.909 14.1509L32.4061 14.0213ZM31.1504 16.4708C31.0441 15.9834 30.9893 15.4859 30.987 14.9867C31.3729 14.8547 31.7795 14.7961 32.1863 14.8138C31.9585 15.4335 31.6057 15.9979 31.1504 16.4708ZM29.6388 17.3501C29.3839 17.3645 29.1495 17.2203 29.1495 16.7953C29.1495 16.0965 29.7526 15.4985 30.5259 15.1528C30.5384 15.7203 30.6074 16.2851 30.7321 16.8385C30.3557 17.1478 29.9724 17.3425 29.6388 17.3498V17.3501ZM40.5702 12.6888L40.4709 12.7536H35.6472V13.2357H40.2871C39.861 15.419 38.5138 17.0252 36.3145 17.7529C36.4327 17.8843 36.5416 18.0239 36.6404 18.1708C38.9603 17.3422 40.3503 15.7208 40.9106 12.9908C40.95 12.9771 40.9829 12.9489 41.003 12.9118L40.5702 12.6888ZM45.6925 13.3228C44.4649 14.6916 42.6352 15.7795 41.4145 16.3486C41.5102 16.453 41.5958 16.5664 41.6703 16.6873C42.4799 16.2866 43.2598 15.8267 44.0038 15.3112V18.3154H44.4367V15.1887C44.4851 15.1783 44.528 15.1502 44.5573 15.1097C44.5067 15.0843 44.4544 15.0627 44.4007 15.0449C44.9543 14.6423 45.4762 14.1966 45.9619 13.712C45.9944 13.7204 46.0277 13.7252 46.0611 13.7264C46.0837 13.7281 46.1064 13.7244 46.1273 13.7157C46.1482 13.7069 46.1669 13.6934 46.1818 13.676L45.6925 13.3228ZM50.7496 12.3574C50.7874 12.3569 50.8238 12.3429 50.8524 12.3179C50.8811 12.2929 50.9001 12.2584 50.9062 12.2206L50.2467 12.1845V17.4726L50.1679 17.5806L50.5376 18.0561C50.592 18.0224 50.6342 17.9719 50.6582 17.912C52.1688 17.1844 53.0482 16.1109 53.552 14.6556C53.3973 14.5758 53.2501 14.4817 53.1124 14.3746C52.7009 15.6354 51.9344 16.6873 50.7496 17.2708V12.3571V12.3574ZM48.2391 13.0562C48.2177 14.9942 48.0902 16.7953 47.0329 17.9625C47.1804 18.0446 47.3227 18.136 47.4589 18.2362C48.5513 16.9466 48.7069 15.1815 48.7497 13.2435C48.7864 13.2442 48.8224 13.2326 48.8519 13.2105C48.8815 13.1883 48.903 13.1569 48.9131 13.121L48.2391 13.0562ZM60.433 17.8476C60.0712 17.0623 59.2201 15.6934 58.475 14.8649L58.0499 15.1099C58.5202 15.6575 58.9426 16.2457 59.3125 16.8678C58.3757 16.9542 56.6949 17.0767 55.5169 17.1271C56.0062 15.7151 56.6161 13.7843 57.0071 12.4586C57.0473 12.4645 57.0883 12.458 57.1249 12.44C57.1614 12.422 57.1919 12.3934 57.2124 12.3578L56.5246 12.1701C56.1346 13.6109 55.4605 15.7651 54.9916 17.1483C54.7154 17.1627 54.4596 17.17 54.2475 17.1772L54.4392 17.8255C54.472 17.8155 54.5016 17.797 54.5252 17.7717C54.5487 17.7464 54.5654 17.7153 54.5734 17.6815C55.6589 17.6238 58.0849 17.4726 59.5605 17.314C59.7025 17.5734 59.8299 17.8327 59.936 18.0777L60.433 17.8476ZM17.26 22.6646L17.1608 22.7294H12.3371V23.2121H16.9759C16.5499 25.3953 15.2027 27.0017 13.0034 27.7293C13.1216 27.8608 13.2308 28.0005 13.3302 28.1471C15.6492 27.3186 17.0401 25.6971 17.6004 22.9672C17.6396 22.9531 17.6725 22.925 17.6928 22.8881L17.26 22.6646ZM18.8056 23.9901V24.408H20.5371V27.2394H18.3951V27.6572H23.1332V27.2394H20.9913V24.408H22.7364V23.9901H18.8056ZM28.5532 22.4701L28.4608 22.5061H24.7013V22.996H28.1836C27.5455 24.5594 25.9921 26.6054 24.0272 27.7004C24.1626 27.8171 24.2862 27.9475 24.3958 28.0894C25.425 27.4915 26.5027 26.4396 27.1272 25.6691C28.0152 26.4118 28.8472 27.2208 29.6164 28.0894L30.0493 27.7076C29.2394 26.8347 28.372 26.0187 27.4531 25.2653C28.0291 24.5047 28.5061 23.6717 28.8723 22.7871C28.8922 22.7811 28.9107 22.771 28.9266 22.7574C28.9425 22.7438 28.9555 22.727 28.9647 22.708L28.5532 22.4701ZM35.9449 22.2824H31.5891V22.765H35.9449V22.2824ZM36.6462 24.314H30.9432V24.7967H33.7028C33.5394 26.1223 33.1279 27.1309 31.6523 27.8514C31.7882 27.9622 31.9163 28.0825 32.0355 28.2116C33.5539 27.4551 34.0364 26.2592 34.228 24.9192C34.2574 24.92 34.2863 24.9123 34.3115 24.897C34.3366 24.8817 34.357 24.8594 34.3701 24.8327L34.2494 24.7967H36.6462V24.314ZM41.3921 23.2981C40.1655 24.667 38.3349 25.7548 37.1151 26.324C37.2104 26.4284 37.2958 26.5418 37.3699 26.6626C38.18 26.2622 38.9603 25.8023 39.7044 25.2866V28.2908H40.1363V25.1641C40.185 25.1542 40.2281 25.126 40.2569 25.085C40.2068 25.0594 40.1547 25.0377 40.1013 25.0202C40.6547 24.6178 41.1764 24.1722 41.6615 23.6874C41.694 23.6956 41.7273 23.7004 41.7608 23.7018C41.7833 23.7035 41.806 23.6999 41.827 23.6911C41.8479 23.6824 41.8666 23.6688 41.8814 23.6514L41.3921 23.2981ZM48.3159 21.8141C48.6447 22.131 48.9354 22.4865 49.1816 22.8731L49.4579 22.6642C49.2088 22.2777 48.9159 21.9223 48.5853 21.6051L48.3159 21.8141ZM47.3792 22.1815C47.7087 22.5004 47.9994 22.8584 48.2449 23.2477L48.5143 23.046C48.2743 22.6526 47.9831 22.294 47.6486 21.9798L47.3792 22.1815ZM49.1952 27.5632C48.8266 26.2303 47.9968 24.1987 47.2517 22.9091L46.7907 23.1324C47.5212 24.4652 48.3441 26.5111 48.6778 27.7721L49.1952 27.5632ZM44.3929 22.9379C44.1663 24.7463 43.5418 26.5762 42.7471 27.556C42.9157 27.6219 43.0755 27.709 43.2228 27.8153C44.0525 26.7491 44.641 24.9264 44.925 23.1973C44.9629 23.2002 45.0008 23.1914 45.0338 23.1722C45.0668 23.1529 45.0933 23.124 45.1098 23.0893L44.3929 22.9379ZM53.5442 22.3327C53.5819 22.3321 53.6181 22.318 53.6465 22.293C53.6749 22.268 53.6939 22.2336 53.6999 22.1959L53.0404 22.1599V27.4479L52.9626 27.556L53.3312 28.0315C53.3856 27.9978 53.4279 27.9472 53.4518 27.8873C54.9625 27.1597 55.8418 26.0863 56.3457 24.631C56.191 24.5512 56.0438 24.4571 55.906 24.35C55.4945 25.6108 54.728 26.6626 53.5442 27.2462V22.3324V22.3327ZM51.0327 23.0316C51.0113 24.9695 50.8839 26.7707 49.8265 27.9378C49.974 28.0199 50.1163 28.1113 50.2526 28.2116C51.3449 26.9219 51.5006 25.1569 51.5434 23.2189C51.5801 23.2197 51.6161 23.2082 51.6457 23.186C51.6752 23.1639 51.6967 23.1324 51.7068 23.0965L51.0327 23.0316ZM57.1122 23.654H57.7269V23.3629C57.7269 23.0304 57.7678 22.5482 58.2999 22.5482C58.758 22.5482 58.8806 22.8724 58.8806 23.2465V23.3796C58.8806 23.7786 58.7823 24.053 58.6024 24.4021L57.1122 27.2952V27.8439H59.4944V27.2702H57.7756L59.2492 24.4603C59.395 24.174 59.4785 23.8593 59.4944 23.5375V23.1468C59.4944 22.3819 59.0362 21.9415 58.3154 21.9415C57.9069 21.9415 57.1122 22.0829 57.1122 23.2467V23.6542V23.654ZM62.859 23.1718C62.859 22.7312 62.7111 21.9413 61.6635 21.9413C60.6159 21.9413 60.468 22.7317 60.468 23.1718V26.6966C60.468 27.1372 60.6159 27.9269 61.6635 27.9269C62.7111 27.9269 62.859 27.1372 62.859 26.6966V23.1718ZM62.2442 26.6134C62.2442 26.9377 62.1139 27.3201 61.6635 27.3201C61.2132 27.3201 61.0828 26.9377 61.0828 26.6134V23.2546C61.0828 22.9303 61.2132 22.5479 61.6635 22.5479C62.1139 22.5479 62.2442 22.9303 62.2442 23.2546V26.6134ZM63.8239 23.654H64.4387V23.3629C64.4387 23.0304 64.4795 22.5482 65.0116 22.5482C65.4698 22.5482 65.5923 22.8724 65.5923 23.2465V23.3796C65.5923 23.7786 65.4941 24.053 65.3141 24.4021L63.8239 27.2952V27.8439H66.2061V27.2702H64.4873L65.961 24.4603C66.1067 24.174 66.1903 23.8593 66.2061 23.5375V23.1468C66.2061 22.3819 65.748 21.9415 65.0272 21.9415C64.6186 21.9415 63.8239 22.0829 63.8239 23.2467V23.6542V23.654ZM67.2868 22.0245V25.1586H67.8763C67.9823 24.8344 68.1953 24.718 68.4161 24.718C68.8256 24.718 68.9404 25.0836 68.9404 25.3498V26.6637C68.9404 26.8384 68.9073 27.3205 68.3675 27.3205C67.9006 27.3205 67.8101 26.9132 67.8101 26.6637V26.4974H67.1963V26.7718C67.1963 27.1958 67.4337 27.9276 68.3918 27.9276C69.4472 27.9276 69.5542 27.113 69.5542 26.7224V25.0839C69.5542 24.477 69.1933 24.1445 68.6943 24.1445C68.545 24.141 68.3968 24.1704 68.2598 24.2306C68.1227 24.2909 68.0002 24.3806 67.9006 24.4936V22.5981H69.5542V22.0245H67.2868ZM37.2084 30.8625H35.4138V31.3524H37.2221C37.232 31.6807 37.2629 32.008 37.3145 32.3322L37.0236 32.2602C36.5772 34.3567 35.6618 35.8912 34.0938 36.7197C34.2361 36.8309 34.3692 36.9538 34.4916 37.0872C35.9809 36.2514 36.903 34.8105 37.4137 32.887C37.7259 34.2918 38.4924 35.9416 40.3367 37.08C40.4493 36.9293 40.5778 36.7916 40.72 36.6693C37.8534 34.9405 37.6909 32.1447 37.6909 30.8553H37.2084V30.8625ZM46.3306 34.6377V33.9172H47.4015V33.5282H46.3306V33.0958C46.423 33.0815 46.4658 33.0455 46.4726 32.9951L45.8763 32.9518V33.5282H44.6779V33.0887C44.7704 33.0815 44.8122 33.0455 44.82 32.9951L44.2237 32.9518V33.5282H43.1877V33.9172H44.2237V34.6377H42.8969V35.0267H47.6924V34.6377H46.3306ZM45.8763 33.9172V34.6377H44.6779V33.9172H45.8763ZM41.2656 30.8265C41.6917 31.1795 42.1664 31.7058 42.358 32.0801L42.7559 31.7991C42.5496 31.4317 42.0672 30.9274 41.6343 30.5815L41.2656 30.8265ZM43.1741 31.5613V32.3178C43.1741 32.7357 43.3084 32.8293 43.8122 32.8293H44.713C45.0748 32.8293 45.1954 32.714 45.2382 32.2385C45.1109 32.2138 44.9886 32.1675 44.8764 32.1017C44.8628 32.4331 44.8268 32.4763 44.6565 32.4763H43.8482C43.6206 32.4763 43.5856 32.4475 43.5856 32.3107V31.9144H44.8482V30.704H42.9971V31.0575H44.4299V31.5613H43.1741ZM45.5359 31.5613V32.3107C45.5359 32.7355 45.6779 32.8293 46.21 32.8293H47.1885C47.565 32.8293 47.6856 32.7068 47.7352 32.2098C47.607 32.1805 47.4831 32.1345 47.3665 32.0729C47.3519 32.4331 47.3169 32.4763 47.1321 32.4763H46.246C45.9901 32.4763 45.9473 32.4475 45.9473 32.3107V31.9144H47.2887V30.704H45.3374V31.0575H46.8627V31.5613H45.5359ZM41.2092 33.2902V33.7513H42.1246V35.7181C41.8045 36.0278 41.4359 36.3449 41.1382 36.5826L41.4077 37.0726C41.4287 37.0644 41.4465 37.0493 41.4581 37.0297C41.4697 37.0102 41.4746 36.9872 41.4719 36.9645C41.7335 36.7123 42.0672 36.3953 42.3794 36.0711C43.0817 36.9645 44.068 36.9645 45.6497 36.9645C46.3666 36.9645 47.1535 36.95 47.6428 36.9356C47.6712 36.7746 47.724 36.6191 47.7994 36.4746C47.2099 36.5105 46.2168 36.5322 45.4016 36.5322C44.1809 36.5322 43.1313 36.5322 42.5778 35.6677V33.2902H41.2092ZM44.5213 35.0769C44.1604 35.4227 43.571 35.7541 43.0749 35.9486C43.1916 36.0375 43.3006 36.1363 43.4008 36.244C43.9315 36.0079 44.4298 35.7028 44.8832 35.3363C44.9101 35.3464 44.9396 35.3469 44.9668 35.3377C44.994 35.3285 45.0173 35.3102 45.033 35.2858L44.5213 35.0769ZM45.6565 35.3003C46.2314 35.5812 46.8276 35.9486 47.1603 36.244L47.6292 36.0207C47.2459 35.7181 46.5932 35.3506 45.9969 35.0769L45.6565 35.3003Z" fill="var(--fill-0, white)"/>
</g>
</svg>
