<?xml version="1.0" encoding="UTF-8"?>
<svg id="_レイヤー_1" data-name="レイヤー 1" xmlns="http://www.w3.org/2000/svg" viewBox="0 0 843 496">
  <defs>
    <style>
      .cls-1 {
        fill: #fff;
        fill-rule: evenodd;
      }
    </style>
  </defs>
  <g id="_ぴあフィルム_フェスティバル2025_入選" data-name="ぴあフィルム フェスティバル2025 入選">
    <path id="_シェイプ_1" data-name="シェイプ 1" class="cls-1" d="M371.56,484.94c-19.01-20.16-50.23-32.79-76.11-41.31,1.96-20.26-6.5-45.43-31.56-63.64-6.48-4.55-13.23-8.71-20.21-12.45,1.28,14.45,4.73,26.85,10.78,36.41,6.78,10.79,27.77,30.18,37.13,38.42-15.73-5.05-30.52-9.15-47.35-14.11.13-5.49-1.35-13.13-3.26-20.3-2.11-7.89-4.71-15.2-6.53-18.46-5.35-9.48-12.49-16.85-18.98-22.61-5.17-4.47-10.56-8.67-16.16-12.58-1.5,22.32,3.03,43.59,40.76,72.71-15.76-4.68-31.02-9.49-46.44-15.44.36-5.71-1.15-36.58-19.88-61.54-4.58-6.04-8.77-10.63-11.45-13.57-9.51,28.89,5.09,54.76,27.08,73.44-15.11-5.88-29.67-13.08-43.51-21.52,3.35-16.24,1.98-47.35-12.76-76.71-18.63,27.2-4.56,58.91,8.91,74.27-13.47-8.6-25.79-18.85-36.69-30.54-.16-.17-.32-.34-.47-.51,4.88-10.77,15.94-47.01,5.81-77.4-19.05,18.59-20.6,45.52-11.33,68.67.71,1.84,1.54,3.62,2.48,5.36.01.01.01.02.02.03-10.69-12.22-19.76-25.78-26.98-40.32,17.68-23.18,23.71-49.65,19.83-74.92-23.61,15.43-27.62,48.73-21.66,71.16-7.07-14.75-12.85-30.1-17.25-45.86,21.8-21.55,31.32-46.73,31.31-69.17-18.33,7.52-28.23,25.89-31.48,45.06-1.27,6.8-1.53,13.74-.76,20.61-4.25-16-6.95-32.36-8.09-48.88,3.36-2.55,9.03-8.19,14.63-13.75,4.3-4.35,22.79-20.16,26.84-48.61-18.76,4.13-31.07,20.46-37.46,38.27-2.57,7.14-3.96,14.65-4.12,22.24-.46-7.33-.66-14.51-.52-21.46.67-36.34,8.53-72.49,21.87-106.01.61-1.56,1.13-2.82,1.54-3.81,2.05-2.21,5.29-6.52,8.83-11.26,4.69-6.34,9.87-13.44,12.72-18.04C103.18,27.12,107.09,11.97,110.51.82c-13.15,9.61-23.91,19.36-32.34,37.19-3.14,7.06-5.65,14.39-7.5,21.9-1.37,5.07-2.3,10.24-2.78,15.47-.43,1.03-1.02,2.4-1.69,4.12-3.26,8-7.12,18.76-10.21,29.2.44-3.08,1.53-12.3,2.96-22.66.78-5.71,1.65-11.77,2.32-17.36.68-4.8,1.03-9.64,1.05-14.49-.31-10.65-2.77-22.67-6.43-36.21-8.36,15.79-14.88,33.01-12.67,52.27,1.16,10.65,5.27,31.44,12.57,39.11-4.89,16.42-8.36,33.22-10.39,50.23-3.72-51.78.12-53.7-16.96-88.98-16.02,48.81,7.6,84.95,16.68,91.47-1.84,16.6-2.16,33.33-.97,49.99-14.17-47.8-9.6-50.94-34.7-84.24-6.69,49.4,18.99,81.11,35.03,88.15,1.42,16.28,4.33,32.4,8.71,48.14-24.24-43.33-20.1-47.6-52.44-75.36,3.33,55.89,42,77.81,53.83,80.21,4.57,15.4,10.45,30.38,17.59,44.78-3.26-3.72-7.83-9.02-12.66-14.82-1.05-1.23-2.09-2.49-3.12-3.77-16.34-19.8-20.12-27.3-52.29-43.94,14.92,49.65,51.71,68.11,70.79,67.8,7.44,14.01,16.59,27.04,27.26,38.78-.39-.24-.78-.48-1.2-.73-2.07-1.27-4.39-2.8-6.94-4.43-2.47-1.7-5.24-3.47-7.93-5.45-25.8-17.93-26.74-25.33-66.26-35.19,18.03,32.83,45.23,55.58,82.04,51.79.96-.11,1.87-.25,2.73-.42.78-.16,1.55-.36,2.3-.6,10.99,11.12,23.26,20.91,36.54,29.17-2.66-.7-10.77-2.95-18.28-5.39-32.1-10.5-33.81-15.66-75.91-15.87,41.2,44.95,86.68,34.57,100.63,25.17,13.26,7.68,27.11,14.31,41.4,19.84-53.3-3.09-55.15-8.23-95.83,5.43,54.2,31.5,97.12,3.77,103.46-2.5,14.12,5.28,28.32,9.77,42.75,14.14-10.75.47-45.68,2.16-56.05,5.27-11.17,3.38-22.68,9.88-34.95,18.55,8.9,2.73,18.05,4.54,27.32,5.4,32.71,2.63,65.92-19.52,72.08-26.7,12.83,3.84,28.28,8.35,42.12,12.97-55.38,1.86-68.04,12.98-85.98,31.86,8.56,1.29,17.22,1.83,25.87,1.63,27.63-1.08,62.52-23.53,68.91-30.46,42.71,15.21,59.49,29.54,72.17,44.55-.32-3.66-.84-7.3-1.57-10.9ZM48.35,156.05c34.26-19.85,45.05-39.22,49.4-55.07-25.8,1.71-45.05,29.3-49.4,55.07ZM82.03,69.11c-4.21,3.7-7.95,7.89-11.15,12.49-4.69,6.91-8.41,14.43-11.07,22.35,2.34-1.11,29.69-15.19,35.44-20.34,8.07-7.25,16.76-20.31,19.58-27.42-12.54-.98-23.33,4.49-32.8,12.92ZM471.33,484.94c19.01-20.16,50.23-32.79,76.11-41.31-1.96-20.26,6.5-45.43,31.56-63.64,6.48-4.55,13.23-8.71,20.21-12.45-1.28,14.45-4.73,26.85-10.78,36.41-6.78,10.79-27.77,30.18-37.13,38.42,15.73-5.05,30.52-9.15,47.35-14.11-.13-5.49,1.35-13.13,3.26-20.3,2.11-7.89,4.71-15.2,6.53-18.46,5.35-9.48,12.49-16.85,18.98-22.61,5.17-4.47,10.56-8.67,16.16-12.58,1.5,22.32-3.03,43.59-40.76,72.71,15.76-4.68,31.02-9.49,46.44-15.44-.36-5.71,1.16-36.58,19.88-61.54,4.58-6.04,8.77-10.63,11.45-13.57,9.51,28.89-5.09,54.76-27.08,73.44,15.11-5.88,29.67-13.08,43.51-21.52-3.35-16.24-1.98-47.35,12.76-76.71,18.63,27.2,4.56,58.91-8.91,74.27,13.47-8.6,25.79-18.85,36.69-30.54.16-.17.32-.34.47-.51-4.88-10.77-15.94-47.01-5.81-77.4,19.05,18.59,20.6,45.52,11.33,68.67-.71,1.84-1.54,3.62-2.48,5.36-.01.01-.01.02-.02.03,10.69-12.22,19.76-25.78,26.98-40.32-17.68-23.18-23.71-49.65-19.83-74.92,23.61,15.43,27.62,48.73,21.66,71.16,7.07-14.75,12.85-30.1,17.25-45.86-21.8-21.55-31.32-46.73-31.3-69.17,18.32,7.52,28.22,25.89,31.47,45.06,1.27,6.8,1.53,13.74.76,20.61,4.24-16,6.95-32.37,8.09-48.88-3.36-2.55-9.03-8.19-14.63-13.75-4.3-4.35-22.79-20.16-26.84-48.61,18.76,4.13,31.07,20.46,37.46,38.27,2.57,7.14,3.96,14.65,4.12,22.24.46-7.33.66-14.51.52-21.46-.67-36.34-8.53-72.49-21.87-106.01-.61-1.56-1.13-2.82-1.54-3.81-2.05-2.21-5.29-6.52-8.83-11.26-4.69-6.34-9.87-13.44-12.72-18.04-12.09-19.72-16-34.88-19.42-46.02,13.15,9.61,23.91,19.36,32.34,37.19,3.14,7.06,5.65,14.39,7.5,21.9,1.37,5.07,2.3,10.24,2.78,15.47.43,1.03,1.02,2.4,1.69,4.12,3.26,8,7.12,18.76,10.21,29.2-.43-3.08-1.53-12.3-2.96-22.66-.78-5.71-1.65-11.77-2.32-17.36-.68-4.8-1.03-9.64-1.05-14.49.31-10.65,2.77-22.67,6.43-36.21,8.36,15.79,14.88,33.01,12.67,52.27-1.16,10.65-5.27,31.44-12.57,39.11,4.89,16.42,8.37,33.22,10.39,50.23,3.72-51.78-.13-53.7,16.96-88.98,16.01,48.81-7.6,84.95-16.68,91.47,1.84,16.6,2.17,33.33.97,49.99,14.17-47.8,9.6-50.94,34.7-84.24,6.69,49.4-18.99,81.11-35.03,88.15-1.42,16.28-4.33,32.4-8.7,48.14,24.24-43.33,20.1-47.6,52.44-75.36-3.34,55.89-42,77.81-53.83,80.21-4.58,15.4-10.46,30.38-17.59,44.78,3.26-3.72,7.83-9.02,12.66-14.82,1.06-1.23,2.09-2.49,3.12-3.77,16.34-19.8,20.11-27.3,52.29-43.94-14.92,49.65-51.71,68.11-70.79,67.8-7.44,14.01-16.59,27.04-27.26,38.78.39-.24.78-.48,1.2-.73,2.07-1.27,4.39-2.8,6.94-4.43,2.47-1.7,5.24-3.47,7.93-5.45,25.8-17.93,26.74-25.33,66.26-35.19-18.04,32.83-45.23,55.58-82.04,51.79-.96-.11-1.87-.24-2.72-.42-.78-.16-1.55-.36-2.31-.6-10.99,11.12-23.26,20.91-36.54,29.17,2.66-.7,10.77-2.95,18.28-5.39,32.11-10.5,33.81-15.66,75.91-15.87-41.2,44.95-86.68,34.57-100.63,25.17-13.26,7.68-27.1,14.31-41.39,19.84,53.29-3.09,55.14-8.23,95.82,5.43-54.2,31.5-97.12,3.77-103.46-2.5-14.12,5.28-28.32,9.77-42.75,14.14,10.75.47,45.68,2.16,56.05,5.27,11.17,3.38,22.68,9.88,34.95,18.55-8.9,2.73-18.05,4.54-27.32,5.4-32.71,2.63-65.92-19.52-72.08-26.7-12.83,3.84-28.28,8.35-42.12,12.97,55.38,1.86,68.04,12.98,85.98,31.86-8.56,1.29-17.22,1.83-25.87,1.63-27.63-1.08-62.52-23.53-68.9-30.46-42.72,15.21-59.5,29.54-72.17,44.55.31-3.66.83-7.3,1.56-10.89h0ZM794.54,156.05c-34.26-19.85-45.04-39.22-49.4-55.07,25.8,1.71,45.05,29.3,49.4,55.07ZM760.86,69.11c4.21,3.7,7.95,7.89,11.15,12.49,4.69,6.91,8.41,14.43,11.07,22.35-2.34-1.11-29.69-15.19-35.44-20.34-8.06-7.25-16.75-20.31-19.58-27.42,12.54-.98,23.33,4.49,32.8,12.92Z"/>
    <path id="_ぴあフィルム_フェスティバル2025_入選-2" data-name="ぴあフィルム フェスティバル2025 入選-2" class="cls-1" d="M272.13,93.22c0,4.51,3.66,8.16,8.17,8.16,4.51,0,8.16-3.66,8.16-8.17,0-4.51-3.66-8.16-8.17-8.16h0c-4.5,0-8.15,3.64-8.16,8.14v.03ZM280.29,98.98c-3.2-.09-5.72-2.77-5.63-5.97.09-3.07,2.56-5.54,5.63-5.63,3.2.09,5.72,2.77,5.63,5.97-.09,3.07-2.56,5.54-5.63,5.63ZM222.68,102.33c.63-.1,1.14-.56,1.32-1.17,5.68-.31,11.31-1.26,16.77-2.84-8.53,9.04-13.86,21.66-13.86,31.72,0,14.73,10.21,21,22.97,21,14.88,0,22.68-8.24,23.12-20.71v-2.04c.01-6.42-.65-12.82-1.97-19.11h.08c2.48,4.59,8.89,10.5,14.73,12.54l2.11-5.03c-6.93-2.48-15.82-10.43-20.05-20.71l-4.82,2.26c3.72,7.8,4.96,18.52,4.96,27.79,0,6.2,0,19.98-18.16,19.98-9.4,0-17.94-4.16-17.94-16.34,0-15.53,12.91-30.85,19.84-35.44l-3.72-3.5c-1.68,1.19-3.56,2.08-5.54,2.63-4.23,1.31-12.69,2.55-20.49,2.99l.65,5.97ZM333.9,108.75c-.22,1.17-.44,2.26-.73,3.43-.95-.07-1.9-.07-2.99-.07-3.71.02-7.39.59-10.94,1.68-.08-3.43,0-7.07.14-10.87,8.32-.22,22.39-.95,30.12-2.84l-.65-4.96c-7.37,1.9-21.3,2.84-29.25,3.06.22-2.7.37-6.05.59-8.75.89,0,1.67-.59,1.89-1.46l-7.29-.51c-.15,3.43-.29,7.51-.37,10.87-6.27,0-12.61,0-16.33-.22l.15,4.81c2.4.15,3.71.15,16.04.15-.07,4.3-.07,8.46.07,12.25-10.57,4.23-18.89,12.25-18.89,22.32,0,5.4,2.99,9.7,8.83,9.7,3.28,0,7.95-1.17,13.78-5.47.45,1.28,1.04,2.5,1.75,3.65l4.3-2.7c-.8-1.22-1.44-2.55-1.89-3.94,6.4-5.96,11.36-13.29,14.51-21.44,7.8,1.31,13.49,5.47,13.86,13.93v.51c0,9.41-9.7,14.66-24.8,16.12.78,1.4,1.44,2.86,1.97,4.38,18.23-2.04,28.15-9.04,28.15-20.64,0-8.6-4.74-16.63-17.58-18.89.29-.91.54-1.83.73-2.77l-5.17-1.31ZM320.99,133.55c-1.09-4.93-1.66-9.97-1.68-15.02,3.97-1.34,8.15-1.93,12.33-1.75-2.34,6.27-5.97,11.99-10.65,16.77h0ZM305.45,142.45c-2.62.15-5.03-1.31-5.03-5.62,0-7.07,6.2-13.13,14.15-16.63.13,5.75.84,11.46,2.12,17.06-3.87,3.13-7.81,5.1-11.24,5.18h0ZM417.83,95.26l-1.02.66h-49.59v4.88h47.7c-4.38,22.1-18.23,38.36-40.84,45.72,1.21,1.33,2.33,2.74,3.35,4.23,23.85-8.39,38.14-24.8,43.9-52.43.41-.14.74-.42.95-.8l-4.45-2.26ZM470.49,101.68c-12.62,13.86-31.43,24.87-43.98,30.63.98,1.06,1.86,2.2,2.63,3.43,8.32-4.06,16.34-8.71,23.99-13.93v30.41h4.45v-31.65c.5-.11.94-.39,1.24-.8-.52-.26-1.06-.48-1.61-.66,5.69-4.08,11.06-8.59,16.05-13.49.33.08.68.13,1.02.15.47.03.93-.15,1.24-.51l-5.03-3.58ZM522.48,91.91c.8,0,1.48-.59,1.61-1.39l-6.78-.36v53.53l-.81,1.09,3.8,4.81c.56-.34.99-.85,1.24-1.46,15.53-7.37,24.57-18.23,29.75-32.96-1.59-.81-3.1-1.76-4.52-2.85-4.23,12.76-12.11,23.41-24.29,29.32v-49.74h0ZM496.67,98.98c-.22,19.62-1.53,37.85-12.4,49.66,1.52.83,2.98,1.76,4.38,2.77,11.23-13.05,12.83-30.92,13.27-50.54.78.01,1.47-.49,1.68-1.24l-6.93-.66ZM622.03,147.48c-3.72-7.95-12.47-21.8-20.13-30.19l-4.37,2.48c4.83,5.54,9.18,11.5,12.98,17.79-9.63.88-26.91,2.12-39.02,2.62,5.03-14.29,11.3-33.84,15.32-47.26.85.12,1.68-.28,2.11-1.02l-7.07-1.9c-4.01,14.59-10.94,36.39-15.76,50.39-2.84.15-5.47.22-7.65.29l1.97,6.56c.69-.21,1.21-.76,1.38-1.46,11.16-.58,36.1-2.12,51.27-3.72,1.46,2.63,2.77,5.25,3.86,7.73l5.11-2.33ZM178.19,196.24l-1.02.66h-49.59v4.89h47.69c-4.38,22.1-18.23,38.36-40.84,45.73,1.21,1.33,2.34,2.75,3.36,4.23,23.84-8.39,38.14-24.8,43.9-52.43.4-.14.74-.43.95-.8l-4.45-2.26ZM194.08,209.66v4.23h17.8v28.66h-22.02v4.23h48.71v-4.23h-22.02v-28.66h17.94v-4.23h-40.41,0ZM294.29,194.27l-.95.37h-38.65v4.96h35.8c-6.56,15.82-22.53,36.54-42.73,47.62,1.39,1.18,2.66,2.5,3.79,3.94,10.58-6.05,21.66-16.7,28.08-24.5,9.13,7.52,17.68,15.71,25.59,24.5l4.45-3.86c-8.33-8.84-17.24-17.1-26.69-24.72,5.92-7.7,10.83-16.13,14.59-25.09.41-.12.76-.41.95-.8l-4.23-2.41ZM370.28,192.37h-44.78v4.89h44.78v-4.89h0ZM377.49,212.94h-58.63v4.89h28.37c-1.68,13.42-5.91,23.63-21.08,30.92,1.4,1.12,2.71,2.34,3.94,3.65,15.61-7.66,20.57-19.76,22.54-33.33.62.02,1.19-.32,1.46-.88l-1.24-.37h24.64v-4.89h0ZM426.28,202.66c-12.61,13.86-31.43,24.87-43.97,30.63.98,1.06,1.86,2.2,2.62,3.43,8.33-4.05,16.35-8.71,24-13.93v30.41h4.44v-31.65c.5-.1.94-.39,1.24-.8-.52-.26-1.05-.48-1.6-.66,5.69-4.07,11.05-8.58,16.04-13.49.33.08.68.13,1.02.15.47.04.93-.15,1.24-.51l-5.03-3.58ZM497.46,187.63c3.38,3.21,6.37,6.81,8.9,10.72l2.84-2.12c-2.56-3.91-5.57-7.51-8.97-10.72l-2.77,2.12ZM487.83,191.35c3.39,3.23,6.38,6.85,8.9,10.79l2.77-2.04c-2.47-3.98-5.46-7.61-8.9-10.79l-2.77,2.04ZM506.5,245.83c-3.79-13.49-12.32-34.06-19.98-47.11l-4.74,2.26c7.51,13.49,15.97,34.2,19.4,46.97l5.32-2.12ZM457.13,199.01c-2.33,18.3-8.75,36.83-16.92,46.75,1.73.67,3.38,1.55,4.89,2.62,8.53-10.79,14.58-29.24,17.5-46.75.8.06,1.55-.37,1.9-1.09l-7.37-1.53ZM551.21,192.88c.8-.01,1.47-.6,1.6-1.38l-6.78-.37v53.53l-.8,1.09,3.79,4.81c.56-.34.99-.85,1.24-1.46,15.53-7.36,24.57-18.23,29.75-32.96-1.59-.81-3.1-1.76-4.52-2.84-4.23,12.76-12.11,23.41-24.28,29.32v-49.74h0ZM525.39,199.96c-.22,19.62-1.53,37.85-12.4,49.66,1.52.83,2.98,1.76,4.38,2.77,11.23-13.05,12.83-30.92,13.27-50.54.78.02,1.47-.49,1.68-1.24l-6.93-.66ZM587.89,206.26h6.32v-2.95c0-3.37.42-8.25,5.89-8.25,4.71,0,5.97,3.28,5.97,7.07v1.35c0,4.04-1.01,6.82-2.86,10.35l-15.32,29.29v5.55h24.49v-5.81h-17.67l15.15-28.44c1.5-2.9,2.36-6.08,2.52-9.34v-3.96c0-7.74-4.71-12.2-12.12-12.2-4.2,0-12.37,1.43-12.37,13.21v4.12h0ZM646.97,201.38c0-4.46-1.52-12.46-12.29-12.46s-12.29,8-12.29,12.46v35.68c0,4.46,1.52,12.45,12.29,12.45s12.29-7.99,12.29-12.45v-35.68ZM640.65,236.21c0,3.28-1.34,7.15-5.97,7.15s-5.97-3.87-5.97-7.15v-34c0-3.28,1.34-7.15,5.97-7.15s5.97,3.87,5.97,7.15v34h0ZM656.89,206.26h6.32v-2.95c0-3.37.42-8.25,5.89-8.25,4.71,0,5.97,3.28,5.97,7.07v1.35c0,4.04-1.01,6.82-2.86,10.35l-15.32,29.28v5.55h24.49v-5.81h-17.67l15.15-28.44c1.5-2.9,2.36-6.08,2.52-9.34v-3.96c0-7.74-4.71-12.2-12.12-12.2-4.2,0-12.37,1.43-12.37,13.21v4.12h0ZM692.49,189.76v31.73h6.06c1.09-3.28,3.28-4.46,5.55-4.46,4.21,0,5.39,3.7,5.39,6.39v13.3c0,1.77-.34,6.65-5.89,6.65-4.8,0-5.73-4.12-5.73-6.65v-1.68h-6.31v2.78c0,4.29,2.44,11.7,12.29,11.7,10.85,0,11.95-8.25,11.95-12.2v-16.59c0-6.14-3.71-9.51-8.84-9.51-3.11-.07-6.09,1.22-8.16,3.53v-19.19h17v-5.81h-23.31ZM383.27,279.23h-18.45v4.96h18.59c.1,3.32.42,6.64.95,9.92l-2.99-.73c-4.59,21.22-14,36.76-30.12,45.14,1.46,1.13,2.83,2.37,4.09,3.72,15.31-8.46,24.79-23.05,30.04-42.52,3.21,14.22,11.09,30.92,30.05,42.44,1.16-1.53,2.48-2.92,3.94-4.16-29.47-17.5-31.14-45.8-31.14-58.85h-4.96v.07ZM477.05,317.44v-7.29h11.01v-3.94h-11.01v-4.38c.95-.14,1.39-.51,1.46-1.02l-6.13-.44v5.83h-12.32v-4.45c.95-.07,1.38-.44,1.46-.95l-6.13-.44v5.83h-10.65v3.94h10.65v7.29h-13.64v3.94h49.3v-3.94h-14ZM472.38,310.15v7.29h-12.32v-7.29h12.32ZM424.98,278.86c4.38,3.57,9.26,8.9,11.23,12.69l4.09-2.84c-2.12-3.72-7.08-8.82-11.53-12.33l-3.79,2.48ZM444.6,286.3v7.66c0,4.23,1.38,5.18,6.56,5.18h9.26c3.72,0,4.96-1.17,5.4-5.98-1.31-.25-2.57-.72-3.72-1.39-.14,3.35-.51,3.79-2.26,3.79h-8.31c-2.34,0-2.7-.29-2.7-1.68v-4.01h12.98v-12.25h-19.03v3.58h14.73v5.1h-12.91ZM468.88,286.3v7.58c0,4.3,1.46,5.25,6.93,5.25h10.06c3.87,0,5.11-1.24,5.62-6.27-1.32-.3-2.59-.76-3.79-1.39-.15,3.65-.51,4.08-2.41,4.08h-9.11c-2.63,0-3.07-.29-3.07-1.68v-4.01h13.79v-12.25h-20.06v3.58h15.68v5.1h-13.64ZM424.4,303.8v4.67h9.41v19.91c-3.29,3.14-7.08,6.34-10.14,8.75l2.77,4.96c.45-.17.72-.62.66-1.09,2.69-2.55,6.12-5.76,9.33-9.04,7.22,9.04,17.36,9.04,33.62,9.04,7.37,0,15.46-.15,20.49-.29.29-1.63.83-3.2,1.61-4.67-6.06.36-16.27.58-24.65.58-12.55,0-23.34,0-29.03-8.75v-24.07h-14.07ZM458.45,321.89c-3.71,3.5-9.77,6.86-14.87,8.82,1.2.9,2.32,1.9,3.35,2.99,5.46-2.39,10.58-5.48,15.24-9.19.57.21,1.21,0,1.54-.51l-5.26-2.12ZM470.12,324.15c5.91,2.84,12.04,6.56,15.46,9.55l4.82-2.26c-3.94-3.06-10.65-6.78-16.78-9.55l-3.5,2.26Z"/>
  </g>
</svg>