<svg preserveAspectRatio="none" width="100%" height="100%" overflow="visible" style="display: block;" viewBox="0 0 90.9776 48.9031" fill="none" xmlns="http://www.w3.org/2000/svg">
<g id="&#228;&#187;&#164;&#229;&#146;&#140;7&#229;&#185;&#180;&#229;&#186;&#166; &#232;&#138;&#179;&#230;&#179;&#137;&#230;&#150;&#135;&#229;&#140;&#150;&#232;&#178;&#161;&#229;&#155;&#163;&#230;&#152;&#160;&#229;&#131;&#143; &#239;&#188;&#136;&#230;&#151;&#165;&#230;&#156;&#172;&#230;&#152;&#160;&#231;&#148;&#187;&#239;&#188;&#137;&#239;&#188;&#156;&#229;&#173;&#166;&#233;&#131;&#168;&#231;&#148;&#159;&#229;&#175;&#190;&#232;&#177;&#161;&#239;&#188;&#158; &#231;&#160;&#148;&#231;&#169;&#182;&#232;&#161;&#168;&#229;&#189;&#176; &#229;&#164;&#167;&#232;&#179;&#158;">
<path id="&#227;&#130;&#183;&#227;&#130;&#167;&#227;&#130;&#164;&#227;&#131;&#151; 1" fill-rule="evenodd" clip-rule="evenodd" d="M36.0905 47.8263C34.2403 45.8351 31.2018 44.5868 28.683 43.745C28.8738 41.7437 28.0494 39.2572 25.6104 37.458C24.9804 37.0079 24.3239 36.5973 23.6444 36.2286C23.769 37.6556 24.1048 38.881 24.6936 39.8256C25.3535 40.8915 27.3963 42.8076 28.3073 43.6212C26.7764 43.1222 25.3369 42.7171 23.6989 42.2273C23.7116 41.6846 23.5675 40.9301 23.3817 40.2219C23.1763 39.4429 22.9232 38.7203 22.7461 38.3978C22.2254 37.4618 21.5305 36.7337 20.8989 36.1646C20.3961 35.7231 19.8712 35.3084 19.3261 34.9222C19.1801 37.1268 19.621 39.2286 23.2931 42.1057C21.7592 41.643 20.274 41.168 18.7733 40.5808C18.8083 40.017 18.6603 36.9672 16.8374 34.5011C16.3926 33.9047 15.9848 33.4512 15.724 33.1609C14.7984 36.0147 16.2194 38.5701 18.3596 40.416C16.8893 39.8351 15.4723 39.1238 14.125 38.2904C14.451 36.6858 14.3177 33.6131 12.8831 30.7118C11.0699 33.3989 12.4393 36.5316 13.7502 38.0494C12.4397 37.2003 11.2399 36.1867 10.1793 35.0327C10.1638 35.0159 10.1482 34.9988 10.1336 34.982C10.6086 33.9177 11.685 30.3377 10.6991 27.3356C8.84501 29.1722 8.69415 31.8328 9.59636 34.1193C9.66578 34.3006 9.7464 34.4773 9.83773 34.6483C9.8387 34.6494 9.8387 34.6504 9.83968 34.6516C8.79927 33.444 7.9167 32.1052 7.21382 30.6684C8.93454 28.3779 9.52142 25.7629 9.14379 23.267C6.84592 24.791 6.45468 28.0814 7.03571 30.297C6.34679 28.8397 5.78501 27.3239 5.35684 25.767C7.47855 23.6383 8.40509 21.1505 8.40314 18.9333C6.62012 19.6766 5.6566 21.491 5.34029 23.3846C5.21646 24.0559 5.19153 24.7422 5.26632 25.4209C4.85338 23.8404 4.58974 22.2235 4.47895 20.5923C4.80597 20.34 5.35781 19.7834 5.90284 19.2335C6.32134 18.8037 8.1209 17.2417 8.51507 14.4312C6.68923 14.8389 5.49115 16.4528 4.86923 18.2119C4.61918 18.9175 4.48376 19.6596 4.46825 20.4093C4.42348 19.6849 4.40401 18.976 4.41764 18.2897C4.48285 14.6997 5.24783 11.1288 6.54616 7.81698C6.60553 7.66317 6.65614 7.538 6.69605 7.44099C6.89459 7.22315 7.2109 6.79668 7.55543 6.32841C8.01189 5.70168 8.51604 5.00106 8.79342 4.54663C9.97009 2.59809 10.3506 1.10082 10.6835 0C9.40366 0.949079 8.35643 1.91278 7.53597 3.67421C7.23023 4.3721 6.98596 5.0961 6.80603 5.83772C6.67251 6.33836 6.58198 6.8498 6.53546 7.3663C6.49361 7.46805 6.43618 7.6034 6.37097 7.77342C6.05369 8.56423 5.67801 9.62643 5.37727 10.6581C5.41912 10.3538 5.52618 9.44297 5.66535 8.4196C5.74127 7.85502 5.82595 7.25674 5.89116 6.7048C5.95747 6.23055 5.99161 5.75223 5.99334 5.27323C5.96317 4.22101 5.72376 3.03405 5.36754 1.69643C4.5539 3.25613 3.91932 4.9573 4.13441 6.86C4.24731 7.91251 4.64733 9.96567 5.35781 10.7234C4.88196 12.345 4.54365 14.005 4.34659 15.6852C3.98356 10.5695 4.35924 10.3802 2.69593 6.89527C1.13677 11.7173 3.43562 15.2872 4.31934 15.9316C4.14015 17.5713 4.10855 19.2242 4.22493 20.8698C2.84582 16.1476 3.29059 15.8373 0.847707 12.5474C0.196595 17.4276 2.69593 20.5605 4.25607 21.2552C4.39461 22.8636 4.67837 24.4556 5.10378 26.0113C2.74459 21.7308 3.14753 21.3084 0 18.5662C0.325069 24.0877 4.0877 26.2527 5.23906 26.4897C5.68434 28.0113 6.2571 29.4913 6.95104 30.9137C6.63376 30.5464 6.18897 30.0231 5.71889 29.4499C5.61572 29.3286 5.51548 29.2035 5.41523 29.0774C3.82492 27.1213 3.45702 26.3804 0.32604 24.7362C1.77815 29.6415 5.35878 31.4649 7.21577 31.4342C7.93961 32.8184 8.83087 34.1054 9.86888 35.2655C9.83092 35.242 9.79296 35.2183 9.75208 35.1933C9.54964 35.0678 9.32482 34.9166 9.07664 34.7558C8.83625 34.5879 8.56665 34.4128 8.30484 34.2175C5.79382 32.4465 5.70234 31.7155 1.85601 30.7414C3.61177 33.9848 6.25807 36.2319 9.84065 35.8581C9.93408 35.8477 10.0226 35.8339 10.1054 35.8168C10.1814 35.8015 10.2565 35.7817 10.3302 35.7576C11.4002 36.8564 12.5938 37.8237 13.8865 38.6395C13.6276 38.5703 12.8383 38.3482 12.1074 38.1071C8.98224 37.0698 8.81678 36.5602 4.71935 36.5391C8.72919 40.9795 13.1556 39.9547 14.5123 39.0251C15.8035 39.7832 17.1506 40.4386 18.5416 40.9852C13.3551 40.6796 13.175 40.1726 9.21581 41.522C14.4909 44.6339 18.6681 41.8942 19.2852 41.275C20.6594 41.7967 22.0415 42.2405 23.4459 42.6717C22.3996 42.7184 19 42.8849 17.9907 43.1926C16.9036 43.526 15.7834 44.1689 14.5892 45.0257C15.4552 45.2954 16.3462 45.4741 17.2482 45.5591C20.4317 45.8186 23.6639 43.6304 24.2634 42.9214C25.5121 43.3008 27.0158 43.7463 28.3628 44.203C22.9729 44.3866 21.7407 45.4857 19.9947 47.3502C20.8278 47.4775 21.6702 47.5313 22.5125 47.5109C25.2016 47.4046 28.5974 45.1868 29.2183 44.502C33.3761 46.0046 35.0092 47.4201 36.2423 48.9031C36.2118 48.5415 36.1611 48.182 36.0905 47.8263ZM4.6337 15.335C7.96809 13.3737 9.01727 11.4607 9.44162 9.89425C6.9306 10.063 5.05707 12.7888 4.6337 15.335ZM7.91165 6.74639C7.50202 7.11148 7.13762 7.52575 6.82646 7.98008C6.3702 8.66295 6.00773 9.40574 5.74905 10.1879C5.9768 10.0781 8.63867 8.68693 9.1983 8.17875C9.98275 7.46302 10.8285 6.17212 11.1039 5.47012C9.88347 5.37321 8.83333 5.91319 7.91165 6.74639ZM54.8871 47.8263C56.7373 45.8351 59.7758 44.5868 62.2946 43.745C62.1038 41.7437 62.9282 39.2572 65.3672 37.458C65.9972 37.0079 66.6538 36.5973 67.3332 36.2286C67.2086 37.6556 66.8728 38.881 66.284 39.8256C65.6241 40.8915 63.5813 42.8076 62.6703 43.6212C64.2012 43.1222 65.6407 42.7171 67.2787 42.2273C67.266 41.6846 67.4101 40.9301 67.596 40.2219C67.8013 39.4429 68.0544 38.7203 68.2315 38.3978C68.7522 37.4618 69.4471 36.7337 70.0787 36.1646C70.5815 35.7231 71.1065 35.3084 71.6516 34.9222C71.7975 37.1268 71.3567 39.2286 67.6845 42.1057C69.2184 41.643 70.7046 41.168 72.2044 40.5808C72.1693 40.017 72.3172 36.9672 74.1402 34.5011C74.5849 33.9047 74.9928 33.4512 75.2536 33.1609C76.1792 36.0147 74.7592 38.5701 72.618 40.416C74.0883 39.8351 75.5053 39.1238 76.8527 38.2904C76.5266 36.6858 76.6609 33.6131 78.0945 30.7118C79.9077 33.3989 78.5384 36.5316 77.2274 38.0494C78.5379 37.2003 79.7377 36.1867 80.7983 35.0327C80.8138 35.0159 80.8294 34.9988 80.844 34.982C80.3691 33.9177 79.2926 30.3377 80.2785 27.3356C82.1326 29.1722 82.2835 31.8328 81.3813 34.1193C81.3118 34.3006 81.2312 34.4773 81.1399 34.6483C81.1389 34.6494 81.1389 34.6504 81.1379 34.6516C82.1783 33.444 83.0609 32.1052 83.7638 30.6684C82.0431 28.3779 81.4562 25.7629 81.8338 23.267C84.1317 24.791 84.5229 28.0814 83.9419 30.297C84.6308 28.8397 85.1926 27.3239 85.6208 25.767C83.4991 23.6383 82.5725 21.1505 82.5745 18.9333C84.3575 19.6766 85.321 21.491 85.6373 23.3846C85.7612 24.0559 85.7861 24.7422 85.7113 25.4209C86.1242 23.8404 86.3879 22.2235 86.4986 20.5923C86.1716 20.34 85.6198 19.7834 85.0748 19.2335C84.6563 18.8037 82.8567 17.2417 82.4625 14.4312C84.2884 14.8389 85.4865 16.4528 86.1084 18.2119C86.3584 18.9175 86.4939 19.6596 86.5094 20.4093C86.5541 19.6849 86.5736 18.976 86.56 18.2897C86.4948 14.6997 85.7298 11.1288 84.4314 7.81698C84.3721 7.66317 84.3215 7.538 84.2816 7.44099C84.083 7.22315 83.7667 6.79668 83.4222 6.32841C82.9657 5.70168 82.4616 5.00106 82.1842 4.54663C81.0075 2.59809 80.627 1.10082 80.2941 0C81.5739 0.949079 82.6212 1.91278 83.4416 3.67421C83.7474 4.3721 83.9917 5.0961 84.1716 5.83772C84.3051 6.33836 84.3956 6.8498 84.4422 7.3663C84.484 7.46805 84.5414 7.6034 84.6066 7.77342C84.9239 8.56423 85.2996 9.62643 85.6003 10.6581C85.5585 10.3538 85.4514 9.44297 85.3122 8.4196C85.2363 7.85502 85.1517 7.25674 85.0865 6.7048C85.0206 6.2305 84.9865 5.75221 84.9843 5.27323C85.0144 4.22101 85.2548 3.03405 85.6101 1.69643C86.4237 3.25613 87.0583 4.9573 86.8432 6.86C86.7303 7.91251 86.3303 9.96567 85.6198 10.7234C86.0957 12.345 86.434 14.005 86.631 15.6852C86.994 10.5695 86.6184 10.3802 88.2817 6.89527C89.8408 11.7173 87.542 15.2872 86.6583 15.9316C86.8375 17.5713 86.8691 19.2242 86.7527 20.8698C88.1318 16.1476 87.687 15.8373 90.1299 12.5474C90.781 17.4276 88.2817 20.5605 86.7206 21.2552C86.5828 22.8636 86.2994 24.4557 85.8738 26.0113C88.233 21.7308 87.8301 21.3084 90.9776 18.5662C90.6525 24.0877 86.8899 26.2527 85.7385 26.4897C85.2933 28.0113 84.7205 29.4913 84.0266 30.9137C84.3439 30.5464 84.7886 30.0231 85.2587 29.4499C85.3619 29.3286 85.4621 29.2035 85.5624 29.0774C87.1527 27.1213 87.5206 26.3804 90.6516 24.7362C89.1995 29.6415 85.6188 31.4649 83.7618 31.4342C83.038 32.8184 82.1467 34.1054 81.1087 35.2655C81.1467 35.242 81.1846 35.2183 81.2255 35.1933C81.428 35.0678 81.6528 34.9166 81.901 34.7558C82.1414 34.5879 82.411 34.4128 82.6728 34.2175C85.1838 32.4465 85.2762 31.7155 89.1216 30.7414C87.3658 33.9848 84.7195 36.2319 81.137 35.8581C81.0435 35.8477 80.955 35.8339 80.8722 35.8168C80.7962 35.8015 80.7212 35.7817 80.6474 35.7576C79.5775 36.8562 78.3843 37.8234 77.0921 38.6395C77.35 38.5703 78.1393 38.3482 78.8702 38.1071C81.9954 37.0698 82.1608 36.5602 86.2583 36.5391C82.2484 40.9795 77.822 39.9547 76.4653 39.0251C75.1741 39.7832 73.827 40.4386 72.436 40.9852C77.6225 40.6796 77.8026 40.1726 81.7618 41.522C76.4867 44.6339 72.3095 41.8942 71.6924 41.275C70.3182 41.7967 68.9361 42.2405 67.5317 42.6717C68.578 42.7184 71.9776 42.8849 72.9869 43.1926C74.074 43.526 75.1942 44.1689 76.3884 45.0257C75.5224 45.2954 74.6314 45.4741 73.7295 45.5591C70.5459 45.8186 67.3137 43.6304 66.7142 42.9214C65.4655 43.3008 63.9618 43.7463 62.6148 44.203C68.0047 44.3866 69.2369 45.4857 70.9829 47.3502C70.1498 47.4775 69.3074 47.5313 68.4651 47.5109C65.776 47.4046 62.3802 45.1868 61.7593 44.502C57.6015 46.0046 55.9684 47.4201 54.7353 48.9031C54.7658 48.5415 54.8165 48.182 54.8871 47.8263ZM86.3439 15.335C83.0095 13.3737 81.9603 11.4607 81.536 9.89425C84.048 10.063 85.9205 12.7888 86.3439 15.335ZM83.066 6.74639C83.4756 7.11148 83.84 7.52575 84.1511 7.98008C84.6074 8.66295 84.9699 9.40574 85.2286 10.1879C85.0008 10.0781 82.3389 8.68693 81.7793 8.17875C80.9948 7.46302 80.1491 6.17212 79.8737 5.47012C81.0941 5.37321 82.1443 5.91319 83.066 6.74639Z" fill="var(--fill-0, white)"/>
<path id="&#228;&#187;&#164;&#229;&#146;&#140;7&#229;&#185;&#180;&#229;&#186;&#166; &#232;&#138;&#179;&#230;&#179;&#137;&#230;&#150;&#135;&#229;&#140;&#150;&#232;&#178;&#161;&#229;&#155;&#163;&#230;&#152;&#160;&#229;&#131;&#143; &#239;&#188;&#136;&#230;&#151;&#165;&#230;&#156;&#172;&#230;&#152;&#160;&#231;&#148;&#187;&#239;&#188;&#137;&#239;&#188;&#156;&#229;&#173;&#166;&#233;&#131;&#168;&#231;&#148;&#159;&#229;&#175;&#190;&#232;&#177;&#161;&#239;&#188;&#158; &#231;&#160;&#148;&#231;&#169;&#182;&#232;&#161;&#168;&#229;&#189;&#176; &#229;&#164;&#167;&#232;&#179;&#158;_2" fill-rule="evenodd" clip-rule="evenodd" d="M33.7693 8.8937C33.9814 9.10946 34.2124 9.32297 34.4622 9.53425C34.712 9.74553 34.9667 9.94361 35.2262 10.1285C35.4871 10.3134 35.7421 10.4785 35.9941 10.6238C36.0331 10.5622 36.0788 10.4954 36.1304 10.4224C36.1778 10.3556 36.2301 10.2927 36.2871 10.2342C36.0182 10.1011 35.7585 9.95001 35.5095 9.78182C35.2389 9.60052 34.9783 9.40433 34.7289 9.19412C34.4749 8.98067 34.2351 8.75835 34.0097 8.52719C33.7951 8.3084 33.5972 8.07329 33.4179 7.8239H32.9819C32.8365 8.05549 32.6735 8.27518 32.4943 8.48095C32.2884 8.71826 32.0691 8.94316 31.8373 9.1545C31.591 9.37938 31.3324 9.58991 31.0626 9.78508C30.7965 9.97883 30.5186 10.1553 30.2305 10.3133C30.2724 10.3425 30.3095 10.3781 30.3405 10.419C30.3755 10.4631 30.4076 10.506 30.4387 10.5474C30.4643 10.5824 30.488 10.6187 30.5098 10.6561C30.8859 10.4427 31.2457 10.201 31.5862 9.93307C31.9188 9.67373 32.2342 9.39246 32.5303 9.09108C32.7852 8.83543 33.0167 8.55696 33.2223 8.25907C33.3894 8.48367 33.5722 8.69576 33.7693 8.8937ZM31.8763 10.2076H34.6345V9.79812H31.8763V10.2076ZM30.8417 11.4556H35.2399V11.0462H30.8417V11.4556ZM35.0053 12.8886C35.0072 12.9029 35.0058 12.9175 35.0012 12.9312C34.9967 12.9449 34.9891 12.9574 34.979 12.9676C34.945 12.9853 34.9073 12.9943 34.869 12.994C34.8379 12.994 34.7805 12.9952 34.6958 12.9973C34.6111 12.9995 34.5109 12.9996 34.3941 12.9973C34.2773 12.9951 34.1508 12.9918 34.0165 12.9875C34.0542 13.0553 34.0867 13.1259 34.1138 13.1988C34.1417 13.2694 34.1635 13.3423 34.179 13.4167C34.4301 13.4167 34.6394 13.4123 34.8068 13.4036C34.9403 13.4006 35.0727 13.3784 35.2 13.3375C35.2829 13.3086 35.3525 13.2499 35.3956 13.1724C35.4336 13.0852 35.4513 12.9903 35.4472 12.8951V11.0464H35.0053V12.8888V12.8886ZM32.6043 13.8791H33.0539V11.152H32.6043V13.8792V13.8791ZM40.1315 13.0338H42.1675V12.6114H40.1315V13.034V13.0338ZM39.9689 13.5819H40.3923V8.8607H41.9203V13.5359H42.3632V8.43827H39.9689V13.5823V13.5819ZM38.1343 13.8593H38.5636V8.35885H38.1343V13.8595V13.8593ZM36.8399 10.1878H39.7412V9.77194H36.8399V10.1879V10.1878ZM37.855 10.6236C37.7503 10.8663 37.633 11.1033 37.5037 11.3334C37.3791 11.5557 37.2423 11.7706 37.0939 11.9772C36.9666 12.1561 36.8274 12.326 36.6774 12.4857C36.7163 12.5386 36.7591 12.6036 36.8078 12.6805C36.8492 12.7472 36.8859 12.8167 36.9178 12.8886C37.0806 12.7154 37.2275 12.5275 37.3567 12.3273C37.5093 12.0953 37.6494 11.855 37.7762 11.6075C37.9115 11.3477 38.0331 11.0839 38.1441 10.8151C38.255 10.5463 38.3494 10.2847 38.4273 10.0293L38.1149 9.91697C38.0416 10.1574 37.9548 10.3934 37.855 10.6238V10.6236ZM38.6871 8.10772C38.4098 8.17819 38.1162 8.24092 37.8064 8.29592C37.4965 8.35091 37.1961 8.39823 36.9051 8.43788C36.9344 8.49418 36.9595 8.55267 36.9801 8.61284C37.0005 8.66986 37.0168 8.72834 37.0287 8.78779C37.3272 8.75263 37.6373 8.7086 37.9591 8.65571C38.2794 8.60302 38.5905 8.54029 38.8925 8.46752C39.1609 8.4049 39.4249 8.32437 39.6828 8.22647L39.383 7.88307C39.1569 7.97548 38.9243 8.05064 38.6871 8.10792V8.10772ZM38.3105 10.5509C38.3708 10.6214 38.4507 10.7216 38.5509 10.8514C38.6511 10.9812 38.7553 11.1221 38.8662 11.2741C38.9772 11.426 39.0813 11.5704 39.1786 11.7066C39.276 11.8427 39.3509 11.9553 39.4035 12.0433L39.676 11.6802C39.6419 11.6362 39.5874 11.5679 39.5135 11.4754C39.4395 11.3829 39.3568 11.2807 39.2633 11.1683C39.1699 11.056 39.0745 10.9439 38.9772 10.8316C38.8799 10.7192 38.7913 10.6181 38.7134 10.5278C38.6356 10.4375 38.5772 10.3727 38.5383 10.3331L38.3105 10.5509ZM44.8615 13.3574C44.8829 12.882 44.9164 12.4484 44.9618 12.0566C45.0046 11.6805 45.0765 11.3085 45.1769 10.9439C45.2779 10.5855 45.4162 10.2391 45.5895 9.91045C45.789 9.53812 46.0175 9.18259 46.2728 8.84727V8.52343H43.3257V8.98567H45.6616C45.4381 9.29742 45.239 9.62637 45.0659 9.96952C44.9047 10.292 44.7709 10.6277 44.6659 10.9732C44.5583 11.333 44.478 11.7006 44.4255 12.0728C44.3691 12.4623 44.3298 12.8904 44.3077 13.357H44.8615V13.3574ZM48.0266 8.67557C47.8774 8.95315 47.7065 9.21813 47.5156 9.46797C47.3373 9.70094 47.1368 9.91549 46.9171 10.1085C46.9639 10.1331 47.0086 10.1618 47.0504 10.1944C47.0961 10.2296 47.1409 10.2648 47.1867 10.3C47.2324 10.3351 47.2703 10.3661 47.3005 10.3924C47.5169 10.1798 47.7152 9.949 47.8932 9.70239C48.2908 9.15299 48.6145 8.5523 48.8558 7.91617L48.413 7.79762C48.3075 8.10035 48.1783 8.39401 48.0266 8.67577V8.67557ZM48.0616 9.05858H52.4793V8.62953H48.2699L48.0616 9.05858ZM47.977 12.1292H48.413V10.5313H52.3294V10.1153H47.977V12.1292ZM46.8976 12.3268H52.7722V11.9041H46.8976V12.3268ZM49.9351 13.8786H50.378V8.85408H49.9351V13.8792V13.8786ZM54.5221 10.042H59.1665V9.67286H54.5221V10.0427V10.042ZM54.6195 11.9702H58.3665V11.6004H54.6195V11.9712V11.9702ZM55.5956 11.1447H58.093V9.07201H57.6706V10.7889H56.0122V9.07201H55.5956V11.1454V11.1447ZM58.2565 11.6664C58.1002 11.9576 57.8849 12.2119 57.6249 12.4126C57.3417 12.6325 57.0312 12.8135 56.7013 12.9508C56.3395 13.1029 55.9649 13.2211 55.582 13.3041C55.1828 13.3922 54.7789 13.4561 54.3723 13.4955C54.4129 13.5541 54.4487 13.616 54.4793 13.6805C54.5108 13.7423 54.5381 13.8063 54.5611 13.8719C54.9903 13.8199 55.4161 13.7416 55.836 13.6375C56.239 13.5387 56.6322 13.4028 57.0108 13.2315C57.3648 13.0717 57.6953 12.8628 57.9928 12.6107C58.2794 12.3665 58.5167 12.0682 58.6916 11.7324L58.4191 11.5806L58.3402 11.6004H58.2565V11.6664ZM55.3679 12.0626C55.613 12.4169 55.9246 12.7188 56.2847 12.9508C56.6801 13.2057 57.1068 13.4067 57.5538 13.5484C58.0478 13.7072 58.555 13.82 59.0692 13.8852C59.0894 13.8403 59.1135 13.7973 59.1412 13.7568C59.1714 13.7105 59.2025 13.6643 59.2356 13.6184C59.2636 13.5771 59.2952 13.5384 59.33 13.5029C58.8238 13.4553 58.3228 13.3614 57.8332 13.2222C57.4016 13.1019 56.9871 12.9255 56.6 12.6972C56.2642 12.5012 55.9728 12.2358 55.7445 11.9181L55.3679 12.0626ZM56.2983 8.70807H56.747V7.8239H56.2983V8.70876V8.70807ZM54.0988 8.89301H59.2123V8.49083H54.0988V8.8936V8.89301ZM53.8846 10.3986C53.8846 10.6407 53.8791 10.9005 53.8681 11.1777C53.8571 11.455 53.8321 11.7379 53.7932 12.0263C53.7546 12.313 53.696 12.5966 53.618 12.8748C53.5433 13.1426 53.436 13.4 53.2987 13.6409C53.3429 13.6567 53.3845 13.6789 53.4223 13.7069C53.4661 13.7377 53.5099 13.7696 53.5557 13.8027C53.5913 13.8276 53.6252 13.8552 53.6569 13.8852C53.804 13.629 53.9188 13.355 53.9985 13.0697C54.0837 12.7687 54.1477 12.462 54.1902 12.1518C54.2331 11.8371 54.2623 11.53 54.2778 11.2306C54.2934 10.9312 54.3012 10.6538 54.3012 10.3986V8.49083H53.8846V10.3993V10.3986ZM20.892 19.6879H23.7554V19.2757H20.892V19.6879ZM21.6327 18.2781H22.0716V17.1748H21.6327V18.2788V18.2781ZM20.7285 19.2623C20.6694 19.5791 20.5693 19.8866 20.4307 20.1767C20.2863 20.4709 20.0858 20.7331 19.8409 20.9482C19.544 21.2002 19.2029 21.393 18.8355 21.5167C18.8914 21.57 18.9428 21.6278 18.9893 21.6897C19.0366 21.7492 19.0771 21.8138 19.11 21.8826C19.5061 21.7392 19.8727 21.5227 20.1913 21.2441C20.4569 21.0045 20.6749 20.7156 20.8336 20.3929C20.9883 20.0721 21.1015 19.7323 21.1704 19.3821C21.2432 19.0175 21.2949 18.6488 21.3251 18.2781H20.8658C20.8356 18.6113 20.7899 18.9396 20.7285 19.263V19.2623ZM23.552 19.3422C23.5169 19.79 23.4777 20.1558 23.4342 20.4394C23.4039 20.6596 23.359 20.8774 23.2999 21.0914C23.2741 21.2062 23.2187 21.3119 23.1393 21.3977C23.1054 21.4282 23.0634 21.4479 23.0186 21.4542C22.9608 21.4615 22.9026 21.4648 22.8444 21.4641C22.7665 21.4641 22.6293 21.4607 22.4356 21.4542C22.2419 21.4477 22.0346 21.4352 21.8157 21.4176C21.8616 21.4796 21.8962 21.5494 21.9179 21.6237C21.9393 21.693 21.9536 21.7643 21.9607 21.8366C22.1699 21.8498 22.3685 21.8586 22.5563 21.8632C22.7441 21.8675 22.8901 21.8675 22.9952 21.8632C23.0944 21.8578 23.1924 21.8399 23.2872 21.8099C23.3651 21.7822 23.4357 21.7367 23.4936 21.677C23.5877 21.5749 23.6571 21.452 23.696 21.3179C23.7674 21.0935 23.8191 20.8632 23.8507 20.6296C23.8962 20.3348 23.9409 19.9546 23.9851 19.4891C23.989 19.4624 23.9919 19.4326 23.9948 19.3993C23.9977 19.366 23.9997 19.3251 24.0045 19.2763H23.552V19.3427V19.3422ZM18.9533 18.4776H24.7841V18.0587H18.9533V18.4776ZM18.999 16.7552H24.7452V16.3495H18.999V16.7552ZM20.493 17.4401H20.9251V15.7648H20.493V17.4406V17.4401ZM22.7665 17.4401H23.1987V15.7648H22.7665V17.4406V17.4401ZM25.6231 19.6813H27.4703V19.2823H25.6231V19.6813ZM28.2499 18.9165C28.4252 19.3445 28.6591 19.7453 28.9448 20.1069C29.5171 20.8341 30.2937 21.3675 31.1716 21.6365C31.194 21.5966 31.2213 21.5522 31.2534 21.5035C31.2861 21.4551 31.3212 21.4085 31.3585 21.3638C31.3955 21.3195 31.4296 21.2818 31.4597 21.2508C31.0281 21.1369 30.6155 20.9587 30.2354 20.7221C29.8698 20.4946 29.5415 20.2108 29.2621 19.8808C28.9893 19.5605 28.7671 19.1994 28.6032 18.8101L28.2499 18.9165ZM30.1594 19.269C29.9833 19.4109 29.8003 19.5472 29.6125 19.6779C29.4246 19.8086 29.2504 19.9207 29.0888 20.0138L29.3701 20.2532C29.5404 20.1601 29.7195 20.0537 29.9074 19.934C30.0952 19.8143 30.283 19.6868 30.4709 19.5516C30.6587 19.4164 30.8313 19.2824 30.9887 19.1493L30.6149 18.8767C30.4884 18.9968 30.3366 19.1278 30.1594 19.2696V19.269ZM28.1847 21.3238C28.1881 21.3571 28.1787 21.3905 28.1584 21.417C28.1255 21.4398 28.0863 21.4515 28.0465 21.4501C28.0115 21.4501 27.9491 21.4513 27.8596 21.4535C27.7701 21.4557 27.6659 21.4557 27.5452 21.4535C27.4246 21.4513 27.2951 21.4479 27.1559 21.4436C27.1931 21.5107 27.2247 21.5807 27.2504 21.6531C27.2767 21.7206 27.2957 21.7909 27.3068 21.8626C27.5637 21.8626 27.7788 21.8581 27.9521 21.8493C28.0902 21.8456 28.2274 21.8255 28.3608 21.7894C28.4459 21.7661 28.5194 21.7116 28.5672 21.6365C28.611 21.5408 28.6304 21.4355 28.6236 21.3302V18.6844H28.1847V21.3246V21.3238ZM27.3263 19.3553C27.2279 19.6619 27.0759 19.948 26.8776 20.2C26.4832 20.6968 25.9636 21.076 25.3739 21.2972C25.4075 21.3318 25.4391 21.3685 25.4683 21.407C25.5014 21.4491 25.5335 21.4922 25.5637 21.5366C25.5913 21.5753 25.6133 21.6178 25.6289 21.6629C25.9415 21.5288 26.2364 21.3557 26.5068 21.1475C26.7883 20.931 27.0377 20.6746 27.2474 20.3861C27.4704 20.0793 27.643 19.738 27.7584 19.3753L27.483 19.2622L27.4051 19.282H27.3263V19.3551V19.3553ZM30.1633 17.7406V18.4256H26.6508V17.7406H30.1633ZM30.1633 16.7165V17.3948H26.6508V16.7165H30.1633ZM26.2187 18.7911H30.6149V16.3502H26.2187V18.7908V18.7911ZM27.9978 16.1277C27.9258 16.2763 27.857 16.406 27.7915 16.5168L28.1973 16.6099C28.2674 16.5124 28.3433 16.3938 28.427 16.2543C28.5107 16.1148 28.5905 15.9739 28.6694 15.8319L28.1642 15.7323C28.1169 15.8674 28.0614 15.9994 27.9978 16.1274V16.1277ZM35.4929 19.1137C35.0852 19.6691 34.5813 20.1444 34.0058 20.5165C33.3692 20.9197 32.6799 21.2298 31.958 21.4376C31.9955 21.4776 32.0294 21.521 32.0592 21.5672C32.0972 21.6226 32.1332 21.6759 32.1682 21.7269C32.1979 21.769 32.2221 21.8148 32.2403 21.8632C32.9812 21.6294 33.6868 21.2926 34.3367 20.8623C34.9321 20.459 35.4541 19.9539 35.8793 19.3693C36.3365 18.726 36.6933 18.0149 36.9372 17.2612L36.4788 17.1215C36.2584 17.8353 35.9255 18.5081 35.4929 19.1138V19.1137ZM32.9868 17.2882C33.2368 18.0273 33.5863 18.7277 34.0252 19.3697C34.442 19.9726 34.9626 20.4942 35.562 20.9093C36.2076 21.3477 36.9237 21.6683 37.6779 21.8569C37.6993 21.8173 37.7295 21.7693 37.7664 21.7139C37.803 21.6588 37.8423 21.6055 37.8842 21.5544C37.9261 21.5033 37.9621 21.4601 37.9922 21.4247C37.2536 21.2563 36.5498 20.958 35.9124 20.5434C35.3255 20.156 34.8128 19.6637 34.399 19.0904C33.9768 18.5 33.6462 17.8474 33.4189 17.1552L32.9868 17.2882ZM32.0232 17.3414H37.9329V16.9091H32.0232V17.3414ZM34.7299 17.1685H35.1815V15.7583H34.7299V17.1682V17.1685ZM41.4386 20.8793C41.4316 21.0612 41.4583 21.2428 41.5174 21.4147C41.5399 21.4762 41.5753 21.5321 41.6209 21.5786C41.6666 21.625 41.7216 21.661 41.7821 21.684C41.9501 21.7394 42.1264 21.7641 42.3028 21.7572H43.6926C43.874 21.77 44.0545 21.7221 44.2065 21.6209C44.3381 21.5021 44.426 21.3415 44.4557 21.1653C44.5144 20.8828 44.5506 20.5959 44.5637 20.3074C44.4126 20.2688 44.2702 20.2011 44.1442 20.1079C44.1371 20.3604 44.1173 20.6123 44.0849 20.8627C44.0765 20.9968 44.0313 21.1258 43.9545 21.2351C43.9174 21.2717 43.873 21.2999 43.8243 21.3177C43.7756 21.3355 43.7238 21.3425 43.6722 21.3382H42.3291C42.233 21.3418 42.137 21.3295 42.0449 21.3017C42.0137 21.292 41.9852 21.2749 41.9618 21.2517C41.9384 21.2285 41.9209 21.2001 41.9106 21.1686C41.8848 21.0768 41.8736 20.9814 41.8775 20.886V15.9246H41.4386V20.879V20.8793ZM43.2371 17.5708C42.9773 17.7593 42.7019 17.9433 42.4108 18.1228C42.1208 18.3024 41.836 18.4698 41.5563 18.6249C41.5865 18.6737 41.6206 18.7302 41.6575 18.7945C41.6909 18.8502 41.7186 18.9093 41.7403 18.9707C42.0284 18.8156 42.322 18.6527 42.6211 18.4819C42.9202 18.3111 43.2073 18.1349 43.4824 17.9533C43.7387 17.7858 43.9838 17.6014 44.2163 17.4012L43.8951 17.0288C43.6884 17.2246 43.4686 17.4057 43.2371 17.5706V17.5708ZM39.8006 16.9024C39.6013 17.2307 39.3791 17.544 39.1358 17.8401C38.9117 18.1138 38.6628 18.3654 38.3923 18.5916C38.4281 18.6347 38.4609 18.6803 38.4906 18.728C38.5246 18.7835 38.5587 18.8388 38.5918 18.8942C38.6185 18.9377 38.6416 18.9833 38.6609 19.0306C38.9492 18.7723 39.2143 18.4886 39.4531 18.1827C39.7124 17.8524 39.951 17.506 40.1675 17.1454C40.3869 16.7812 40.5817 16.4024 40.7505 16.0114L40.3242 15.8651C40.1778 16.2247 40.0027 16.5715 39.8006 16.9021V16.9024ZM39.565 21.8502H39.9972V17.1549L39.9904 17.1482L39.565 17.5805V21.8502ZM47.8592 17.767H51.0826V17.3481H47.8592V17.767ZM49.7853 21.2783C49.7894 21.319 49.7775 21.3596 49.7522 21.3914C49.7185 21.4178 49.677 21.4318 49.6344 21.4309H49.3366C49.1857 21.4309 49.0144 21.4286 48.8217 21.4243C48.8647 21.4928 48.899 21.5665 48.9239 21.6437C48.949 21.715 48.9675 21.7885 48.9794 21.8632C49.2324 21.8632 49.4378 21.8566 49.5955 21.8434C49.7206 21.8367 49.8441 21.8121 49.9624 21.7702C50.0459 21.7414 50.116 21.6822 50.159 21.604C50.2033 21.5014 50.2233 21.3898 50.2174 21.278V15.7845H49.7853V21.2773V21.2783ZM49.3395 18.3888C49.1981 18.6744 49.0394 18.9509 48.8646 19.2168C48.6993 19.4688 48.5155 19.7078 48.3147 19.9316C48.137 20.1315 47.9382 20.3111 47.7219 20.467C47.7785 20.5154 47.8319 20.5676 47.8816 20.6233C47.9341 20.6792 47.9835 20.738 48.0295 20.7995C48.3226 20.5547 48.5874 20.277 48.8188 19.9716C49.0845 19.6259 49.3202 19.2577 49.5235 18.8709C49.7356 18.472 49.9153 18.0561 50.0607 17.6274L49.7064 17.521C49.6024 17.8178 49.4798 18.1075 49.3395 18.3885V18.3888ZM45.4903 21.029C45.3579 21.2374 45.2007 21.4284 45.0221 21.5975C45.0644 21.62 45.1051 21.6456 45.1438 21.674L45.281 21.7738C45.3183 21.7993 45.3523 21.8295 45.3822 21.8636C45.5682 21.6701 45.7321 21.4559 45.8708 21.2251C46.0212 20.9813 46.1474 20.7229 46.2475 20.4537L45.828 20.3473C45.7426 20.5873 45.6292 20.8161 45.4903 21.0287V21.029ZM47.1584 21.0722C47.2693 21.2454 47.3698 21.4253 47.4592 21.6109L47.8329 21.4113C47.7484 21.2272 47.6474 21.0513 47.5312 20.886C47.4037 20.6966 47.2659 20.5145 47.1185 20.3406L46.7652 20.5136C46.9062 20.6923 47.0375 20.8787 47.1584 21.0719V21.0722ZM47.2168 17.6407V18.5451H45.7822V17.6407H47.2168ZM47.2168 18.8976V19.8086H45.7822V18.8976H47.2168ZM47.2168 16.397V17.2882H45.7822V16.397H47.2168ZM45.3628 20.1807H47.6489V16.0177H45.3628V20.1807ZM52.6943 18.0393H56.6322V17.6469H52.6943V18.0393ZM55.2891 20.2871C55.2913 20.3049 55.2897 20.323 55.2845 20.3402C55.2793 20.3574 55.2706 20.3733 55.2589 20.3868C55.2293 20.4081 55.194 20.4198 55.1577 20.4201H54.8433C54.6856 20.4201 54.5095 20.4179 54.3129 20.4134C54.3392 20.4711 54.3645 20.5364 54.3907 20.6096C54.4138 20.6711 54.4314 20.7345 54.4433 20.7991C54.7012 20.7991 54.9121 20.7969 55.0759 20.7925C55.2034 20.7936 55.3303 20.7757 55.4526 20.7392C55.5326 20.7131 55.601 20.6589 55.6453 20.5863C55.6887 20.493 55.7081 20.3901 55.7017 20.2871V16.7625H55.2891V20.2871ZM53.5489 18.9869C53.6519 19.1289 53.7471 19.2766 53.834 19.4292C53.9078 19.5559 53.9694 19.6895 54.018 19.8282L54.3645 19.6354C54.3128 19.4986 54.2483 19.3672 54.1718 19.243C54.0861 19.1011 53.9907 18.956 53.8837 18.8074C53.7814 18.6647 53.6685 18.5302 53.546 18.405L53.218 18.5713C53.335 18.7042 53.4455 18.8428 53.5489 18.9869ZM51.8953 21.8565H52.3342V16.503H56.9134V21.8565H57.366V16.0772H51.8953V21.8565ZM52.1503 21.5502H57.0974V21.1251H52.1503V21.5507V21.5502ZM60.314 19.462H64.2187V19.0497H60.314V19.462ZM60.7724 19.216H61.1783V17.2546H63.4129V19.2165H63.8187V16.8424H60.7724V19.2165V19.216ZM62.0367 18.3182C62.0375 18.632 62.0158 18.9454 61.9715 19.2559C61.9283 19.5554 61.8386 19.8461 61.7058 20.1171C61.5577 20.4088 61.3539 20.6677 61.1062 20.8785C60.7855 21.1469 60.4252 21.3623 60.0386 21.5169C60.0751 21.5447 60.109 21.5759 60.1398 21.6101C60.1766 21.6498 60.2108 21.692 60.242 21.7364C60.2722 21.7807 60.2965 21.8184 60.314 21.8495C60.7284 21.6836 61.1125 21.4487 61.4508 21.1546C61.7148 20.9183 61.9315 20.6327 62.0893 20.3133C62.2336 20.0114 62.3298 19.6881 62.3744 19.3556C62.4208 19.0118 62.4439 18.6653 62.4435 18.3183V15.7912H62.0367V18.3183V18.3182ZM62.1418 19.3024C62.2658 19.8617 62.4887 20.3935 62.7997 20.8719C63.0852 21.3022 63.4773 21.6485 63.9365 21.876C63.9589 21.8406 63.9861 21.8007 64.0192 21.7564C64.0523 21.7121 64.0864 21.6675 64.1234 21.6233C64.1554 21.5839 64.1916 21.5482 64.2314 21.5169C63.792 21.3309 63.413 21.0233 63.1375 20.6292C62.8431 20.2052 62.632 19.7277 62.5155 19.2226L62.1418 19.3024ZM58.6166 16.6689H59.6911V20.1935H58.6166V20.5993H60.098V16.2571H58.6166V16.6694V16.6689ZM58.6303 18.5975H59.9403V18.199H58.6303V18.598V18.5975ZM58.4074 21.1317H58.8132V16.2571H58.4074V21.1317ZM67.2066 16.3336C67.0584 16.5408 66.8951 16.7364 66.7181 16.9188C66.5264 17.1168 66.3169 17.296 66.0923 17.4542C66.1535 17.4866 66.2118 17.5244 66.2665 17.5672C66.323 17.6099 66.3746 17.659 66.4203 17.7135C66.7596 17.4481 67.0673 17.1434 67.3371 16.8057C67.5772 16.5065 67.7921 16.1872 67.9794 15.8514L67.5473 15.7717C67.4483 15.9677 67.3344 16.1556 67.2066 16.3336ZM67.2787 16.5497H69.159V16.1906H67.5531L67.2787 16.5497ZM70.0496 17.4009V18.2057H67.0616V17.4009H70.0496ZM66.6558 18.5381H70.4758V17.0688H66.6558V18.5385V18.5381ZM68.3327 18.3453H68.7327V17.2015H68.3327V18.3453ZM67.7536 18.6578C67.5145 18.7934 67.2671 18.9134 67.013 19.0169C66.7531 19.1233 66.4988 19.2164 66.2499 19.2963C66.282 19.3247 66.3116 19.3558 66.3385 19.3894C66.3706 19.4289 66.4037 19.4684 66.4368 19.5058C66.4649 19.5377 66.49 19.5722 66.5117 19.6088C66.7609 19.5157 67.0198 19.406 67.2884 19.2796C67.5519 19.156 67.8077 19.0161 68.0544 18.8607C68.2787 18.7215 68.4904 18.5623 68.687 18.3852L68.3395 18.2389C68.1608 18.401 67.9642 18.5416 67.7536 18.6578ZM68.3064 19.6088C68.4457 19.8365 68.5436 20.0876 68.5955 20.3503C68.6389 20.5608 68.6398 20.7779 68.5984 20.9888C68.5752 21.1401 68.4996 21.278 68.3853 21.3778C68.3301 21.4236 68.2651 21.4554 68.1955 21.4709C68.122 21.4849 68.0474 21.4915 67.9726 21.4906C67.9074 21.4906 67.8266 21.4884 67.7303 21.484C67.6339 21.4796 67.5337 21.4707 67.4285 21.4574C67.4653 21.5191 67.4919 21.5865 67.5074 21.6569C67.5223 21.7182 67.5334 21.7804 67.5405 21.8431L67.8159 21.8564C67.9074 21.8608 67.9882 21.8631 68.0582 21.8631C68.1709 21.8606 68.2829 21.845 68.3921 21.8166C68.4954 21.7861 68.5912 21.734 68.6734 21.6635C68.797 21.5702 68.8889 21.4401 68.9361 21.2912C68.9994 21.1064 69.0294 20.9115 69.0247 20.7159C69.0194 20.4853 68.9806 20.2567 68.9099 20.0375C68.8301 19.7896 68.7139 19.5554 68.5653 19.3427C68.3983 19.1042 68.1938 18.8953 67.9599 18.7241L67.6709 18.917C67.9257 19.1026 68.1417 19.3378 68.3064 19.6088ZM67.7079 19.6055C67.4819 19.7435 67.2476 19.8668 67.0062 19.9746C66.7793 20.0781 66.5462 20.1669 66.3083 20.2407C66.3569 20.2859 66.401 20.336 66.4397 20.3902C66.4783 20.442 66.5135 20.4965 66.5448 20.5531C66.785 20.4611 67.0199 20.3556 67.2485 20.237C67.4912 20.1132 67.7273 19.9767 67.9561 19.828C68.1555 19.7015 68.3431 19.5568 68.5167 19.3957L68.2412 19.2095C68.0772 19.3596 67.8985 19.4923 67.7079 19.6055ZM68.1205 20.3503C67.9252 20.4962 67.7218 20.6305 67.5113 20.7527C67.2907 20.8813 67.0668 20.9977 66.8397 21.1018C66.6256 21.2007 66.4067 21.2884 66.1837 21.3645C66.2338 21.4116 66.2788 21.464 66.3181 21.5208C66.3593 21.576 66.3955 21.635 66.4261 21.697C66.7338 21.582 67.0327 21.4441 67.3205 21.2847C67.6235 21.1195 67.9167 20.9363 68.1984 20.7361C68.4463 20.5645 68.6759 20.3672 68.8836 20.1475L68.5887 19.9281C68.4465 20.0839 68.2897 20.2253 68.1205 20.3503ZM70.0135 19.0535C69.8802 19.1622 69.7459 19.2687 69.6106 19.3728C69.4891 19.4675 69.3623 19.5552 69.231 19.6355L69.4928 19.8744C69.6719 19.7681 69.8685 19.6373 70.0826 19.482C70.2968 19.3269 70.4904 19.1718 70.6656 19.0165L70.3444 18.7572C70.2394 18.8619 70.1289 18.9608 70.0135 19.0535ZM68.648 18.3786C68.7433 18.8277 68.8781 19.2673 69.051 19.692C69.2076 20.0824 69.4123 20.4511 69.6603 20.7892C69.8814 21.0951 70.1554 21.3576 70.469 21.5641C70.4953 21.5285 70.5245 21.4886 70.5576 21.4443C70.6207 21.3596 70.6921 21.2817 70.7707 21.2116C70.4676 21.0341 70.2006 20.7993 69.9843 20.52C69.7435 20.2118 69.5451 19.8717 69.3945 19.5092C69.2296 19.1186 69.1003 18.7134 69.0082 18.2988L68.648 18.3786ZM69.014 16.2771C68.9415 16.4259 68.8586 16.5693 68.7658 16.706C68.6721 16.8487 68.567 16.9832 68.4514 17.1083C68.4984 17.1468 68.5433 17.1879 68.5858 17.2314C68.6287 17.2743 68.669 17.3199 68.7065 17.3677C68.8499 17.2241 68.9823 17.0696 69.1026 16.9055C69.2342 16.7314 69.3536 16.5481 69.4598 16.3569L69.1853 16.1707L69.1123 16.1904H69.014V16.2769V16.2771ZM65.6202 16.8224C65.4781 17.1482 65.3142 17.4637 65.1297 17.7667C64.9642 18.0405 64.7777 18.3007 64.572 18.5448C64.604 18.5886 64.6336 18.6341 64.6606 18.6812C64.6932 18.736 64.7227 18.7926 64.7492 18.8507C64.7754 18.9084 64.7949 18.9549 64.8085 18.9904C65.0355 18.7105 65.2414 18.4137 65.4246 18.1025C65.626 17.7617 65.8086 17.4098 65.9716 17.0484C66.1386 16.6784 66.2838 16.2987 66.4066 15.9113L66.0008 15.7983C65.8947 16.1472 65.7676 16.4892 65.6202 16.8224ZM65.4704 21.8566H65.8889V17.0019L65.8762 16.9887L65.4704 17.3943V21.8566ZM13.4592 26.8825C13.545 27.1904 13.6717 27.4851 13.8359 27.7582C14.0012 28.031 14.1954 28.2847 14.415 28.5146L14.7099 28.3539C14.4996 28.1348 14.3144 27.8922 14.158 27.6307C13.9249 27.232 13.7735 26.7897 13.713 26.3302C13.6525 25.8707 13.684 25.4035 13.8057 24.9567C13.8872 24.6671 14.0056 24.3895 14.158 24.131C14.3131 23.8695 14.4984 23.6276 14.7099 23.4105L14.415 23.2498C14.1942 23.4777 13.9999 23.7306 13.8359 24.0036C13.672 24.2778 13.5453 24.5733 13.4592 24.8819C13.2853 25.5371 13.2853 26.2273 13.4592 26.8825ZM15.7474 28.3594H16.124V24.0977H18.9027V28.3318H19.2852V23.7265H15.7474V28.3597V28.3594ZM15.9985 26.0208H19.0613V25.6553H15.9985V26.0208ZM15.9878 27.9993H19.072V27.6279H15.9878V27.9993ZM20.5845 24.9013H25.334V24.53H20.5845V24.9013ZM21.6658 27.3675H24.2147V26.9906H21.6658V27.3675ZM22.7578 28.4204H23.1393V23.3496H22.7578V28.4204ZM22.2332 25.4361C22.0736 25.6919 21.8946 25.9346 21.6979 26.1621C21.5071 26.3837 21.2991 26.5893 21.076 26.7772C20.8681 26.9526 20.6431 27.1058 20.4044 27.2344C20.4376 27.2604 20.4676 27.2903 20.494 27.3233C20.5251 27.3603 20.5572 27.3972 20.5903 27.4342C20.6191 27.4665 20.6446 27.5018 20.6662 27.5395C20.9945 27.3431 21.2978 27.1068 21.5694 26.8356C21.8654 26.544 22.1317 26.2229 22.3646 25.8773C22.603 25.5259 22.8059 25.1508 22.9699 24.7578L22.6429 24.647C22.5279 24.921 22.3908 25.185 22.2332 25.4363V25.4361ZM22.9427 24.7794C23.1048 25.1664 23.3032 25.5367 23.5354 25.885C23.7639 26.2307 24.0286 26.5503 24.3247 26.8382C24.599 27.1082 24.9073 27.3402 25.2415 27.5281C25.2658 27.4872 25.2931 27.4483 25.3233 27.4117C25.3564 27.3711 25.3895 27.3327 25.4245 27.2954C25.4596 27.258 25.4907 27.2271 25.5199 27.2012C25.1885 27.0397 24.8822 26.8296 24.6109 26.5778C24.3194 26.3113 24.0576 26.0131 23.8303 25.6886C23.6044 25.3696 23.4147 25.0257 23.2648 24.6634L22.9427 24.7794ZM27.6981 26.4253H30.9526V26.0817H27.6981V26.4253ZM28.0805 26.2203H28.4192V24.5855H30.2811V26.2203H30.6198V24.2419H28.0805V26.2203ZM29.1346 25.4721C29.135 25.7336 29.1168 25.9947 29.0801 26.2535C29.0436 26.5031 28.9687 26.7453 28.8582 26.9712C28.7349 27.2143 28.5652 27.43 28.3589 27.6058C28.0916 27.8291 27.7914 28.0087 27.4693 28.1378C27.4999 28.161 27.5282 28.1869 27.554 28.2154C27.5843 28.2487 27.6126 28.2839 27.6387 28.3206C27.664 28.3576 27.6835 28.389 27.6981 28.4149C28.0436 28.2767 28.3639 28.0809 28.646 27.8358C28.866 27.6386 29.0467 27.4005 29.1784 27.1343C29.2981 26.8825 29.3782 26.6133 29.4159 26.3363C29.4544 26.0498 29.4736 25.7609 29.4733 25.4717V23.3662H29.1346V25.4721ZM29.2222 26.2921C29.3251 26.7582 29.5108 27.2013 29.7701 27.5999C30.0081 27.9586 30.3351 28.2473 30.7181 28.4367C30.7356 28.4071 30.759 28.3739 30.7862 28.337C30.8135 28.3002 30.8427 28.263 30.8728 28.2262C30.8997 28.1933 30.9301 28.1635 30.9634 28.1373C30.597 27.9824 30.281 27.726 30.0514 27.3974C29.8062 27.044 29.6301 26.6461 29.5327 26.2254L29.2222 26.2921ZM26.2839 24.0974H27.1793V27.0347H26.2839V27.3726H27.518V23.7541H26.2839V24.0977V24.0974ZM26.2956 25.7046H27.3876V25.3721H26.2956V25.7046ZM26.1097 27.8161H26.4484V23.7538H26.1097V27.8161ZM31.8315 28.071H35.9211V27.7163H31.8315V28.071ZM31.4655 24.0587H36.2812V23.7095H31.4655V24.0587ZM31.6349 28.4201H31.9901V24.6519H31.6349V28.4204V28.4201ZM35.7732 28.4035H36.1285V24.6519H35.7732V28.4038V28.4035ZM33.6661 24.8789H34.0369V23.8206H33.6661V24.8792V24.8789ZM33.6875 27.0568H34.0155V24.8403H33.6875V27.0571V27.0568ZM34.8564 26.1036V26.8741H32.8583V26.1036H34.8564ZM34.8564 25.0285V25.7991H32.8583V25.0285H34.8564ZM32.541 27.1954H35.1786V24.7129H32.541V27.1957V27.1954ZM37.9085 24.8816C37.8224 24.573 37.6958 24.2776 37.5319 24.0033C37.3679 23.7304 37.1736 23.4774 36.9528 23.2495L36.6579 23.4102C36.8691 23.6275 37.0543 23.8694 37.2097 24.1307C37.3622 24.389 37.4804 24.6667 37.5611 24.9564C37.6853 25.4029 37.7181 25.8704 37.6577 26.3303C37.5973 26.7901 37.4448 27.2325 37.2097 27.6304C37.053 27.8916 36.8679 28.1342 36.6579 28.3536L36.9528 28.5143C37.1724 28.2844 37.3666 28.0307 37.5319 27.7579C37.6961 27.4848 37.8228 27.1902 37.9085 26.8822C38.0824 26.2271 38.0824 25.537 37.9085 24.8819V24.8816ZM44.0012 23.7653L39.9115 25.8992V25.9213L44.0012 28.0552L44.1598 27.7448L40.6269 25.916V25.9049L44.1598 24.0761L44.0012 23.7653ZM46.0324 25.5388H48.7731V25.2118H46.0324V25.5388ZM45.1263 26.8244H49.9468V26.4753H45.1263V26.8244ZM47.3424 27.955C47.344 27.9705 47.3425 27.9861 47.3378 28.0009C47.3331 28.0157 47.3254 28.0294 47.3151 28.0409C47.2826 28.062 47.2446 28.0726 47.2061 28.0714C47.1701 28.075 47.1078 28.0769 47.0202 28.0769C46.9326 28.0769 46.8265 28.0759 46.701 28.0741C46.5754 28.0724 46.4421 28.0695 46.3 28.0658C46.3292 28.1175 46.3584 28.1776 46.3896 28.2459C46.4167 28.3041 46.4395 28.3643 46.4577 28.426C46.7127 28.426 46.9193 28.4223 47.0777 28.415C47.2055 28.4119 47.3327 28.3954 47.4572 28.3656C47.5389 28.3474 47.6111 28.299 47.6597 28.2298C47.7008 28.1466 47.7195 28.0539 47.7142 27.961V26.0651H47.3424V27.9549V27.955ZM48.6641 25.2838C48.5596 25.3949 48.4452 25.496 48.3224 25.5858C48.1779 25.6941 48.0275 25.7941 47.8718 25.8851C47.7188 25.9759 47.5602 26.0564 47.3969 26.1262C47.4261 26.1558 47.4621 26.1909 47.5039 26.2315C47.5411 26.2668 47.5746 26.3058 47.6042 26.3479C47.7755 26.2702 47.9503 26.1797 48.1288 26.0763C48.3059 25.9736 48.4772 25.8607 48.6417 25.7382C48.7927 25.6275 48.9352 25.5054 49.068 25.3727L48.8334 25.1898L48.7517 25.212H48.6641V25.284V25.2838ZM45.246 25.4889H45.5954V24.6077H49.4826V25.4889H49.8485V24.2695H45.246V25.4888V25.4889ZM48.9804 23.696C48.9045 23.8124 48.8246 23.926 48.7429 24.0369C48.6611 24.1477 48.5823 24.2475 48.5054 24.3361L48.7945 24.4636C48.9113 24.3417 49.0378 24.1949 49.174 24.023C49.3103 23.8512 49.4352 23.6803 49.5488 23.5104L49.1711 23.3774C49.1205 23.4735 49.0573 23.5796 48.9804 23.6959V23.696ZM45.9175 23.9621C46.0006 24.0842 46.0735 24.213 46.1355 24.3474L46.4577 24.1811C46.3961 24.0486 46.3221 23.9224 46.2367 23.8042C46.142 23.6668 46.0389 23.5353 45.9282 23.4107L45.6226 23.5549C45.7209 23.6764 45.8192 23.8122 45.9175 23.9621ZM47.285 23.8901C47.3551 24.0257 47.4128 24.1676 47.4572 24.314L47.7901 24.181C47.7461 24.0345 47.6867 23.8933 47.613 23.7598C47.5326 23.6061 47.4422 23.458 47.3424 23.3165L47.0261 23.4384C47.1215 23.5833 47.2079 23.7343 47.285 23.8901ZM53.545 28.426H53.8992V24.0257H55.1937V23.6711H53.545V28.426ZM50.6291 24.3084H53.2335V23.9703H50.6291V24.3083V24.3084ZM50.487 25.8435H53.3104V25.5H50.487V25.8435ZM51.7435 24.1699H52.1036V23.3607H51.7435V24.1699ZM51.1313 24.9763C51.1703 25.1226 51.1979 25.2717 51.214 25.4224L51.5469 25.3392C51.5265 25.191 51.4946 25.0446 51.4515 24.9014C51.406 24.7426 51.3501 24.5871 51.2841 24.4359L50.9785 24.5024C51.04 24.6566 51.091 24.8149 51.1313 24.9762V24.9763ZM52.4695 24.713C52.4325 24.8315 52.3946 24.9467 52.3547 25.0593C52.3148 25.172 52.2758 25.2709 52.2398 25.3557L52.5406 25.4446C52.598 25.3191 52.6603 25.1675 52.7255 24.9902C52.7907 24.8129 52.853 24.6429 52.9114 24.4803L52.562 24.3973C52.5367 24.4894 52.5055 24.5947 52.4695 24.7129V24.713ZM50.995 28.0938H52.8082V27.7614H50.995V28.0938ZM50.8636 28.4263H51.2082V26.6807H52.6389V28.3987H52.9931V26.3478H50.8636V28.4259V28.4263ZM55.1012 23.7878C55.0574 23.8987 55.0058 24.0261 54.9484 24.1702C54.891 24.3144 54.8268 24.4658 54.7596 24.6247C54.6925 24.7835 54.6233 24.9433 54.5523 25.104C54.4812 25.2647 54.4073 25.4171 54.3314 25.5612C54.5719 25.7483 54.7726 25.983 54.9212 26.2512C55.0142 26.4324 55.068 26.6317 55.0788 26.8358C55.0803 26.9285 55.0685 27.0209 55.0438 27.1101C55.0245 27.1829 54.9786 27.2453 54.9153 27.2847C54.8813 27.3074 54.8433 27.3234 54.8034 27.3318C54.7591 27.3416 54.7143 27.3482 54.6691 27.3516C54.6146 27.3553 54.5484 27.3563 54.4706 27.3543C54.3917 27.3526 54.3109 27.348 54.2272 27.3405C54.2586 27.3981 54.2824 27.4596 54.2983 27.5234C54.3148 27.5832 54.3259 27.6445 54.3314 27.7063C54.4112 27.71 54.4939 27.7119 54.5795 27.7119C54.6652 27.7119 54.744 27.7082 54.817 27.7008C54.9405 27.6886 55.0598 27.6488 55.1664 27.5843C55.264 27.5174 55.3361 27.4187 55.3708 27.3046C55.4153 27.1642 55.4367 27.0173 55.4341 26.8699C55.4329 26.7301 55.4126 26.5911 55.3737 26.457C55.3253 26.297 55.2527 26.1456 55.1587 26.0081C55.032 25.8256 54.8843 25.6591 54.7187 25.5121C54.8501 25.2535 54.9838 24.9736 55.1197 24.6724C55.2569 24.3713 55.3819 24.0914 55.4944 23.8327L55.2316 23.6548L55.1723 23.6715H55.1012V23.7878ZM56.8531 24.7965H60.6313V24.4309H56.8531V24.7965ZM56.6078 26.4147H60.4347V26.0545H56.6078V26.4144V26.4147ZM56.018 28.2435H60.8882V27.8779H56.018V28.2435ZM58.2624 28.0606H58.6439V23.3441H58.2624V28.0602V28.0606ZM56.7879 24.2177C56.6901 24.4617 56.5759 24.6988 56.4463 24.9271C56.329 25.1354 56.1889 25.3297 56.0287 25.5062C56.0677 25.5244 56.1051 25.5457 56.1407 25.5699C56.1825 25.5977 56.2234 25.6244 56.2643 25.6503C56.2985 25.6717 56.3296 25.6978 56.3567 25.7279C56.5157 25.5358 56.6565 25.3289 56.7772 25.1099C56.9126 24.8656 57.0328 24.613 57.1373 24.3535C57.247 24.0825 57.34 23.8049 57.4156 23.5222L57.0448 23.4391C56.976 23.7038 56.8902 23.9636 56.7879 24.2169V24.2177ZM63.8469 25.0517H66.3969V24.6971H63.8469V25.0517ZM61.4829 24.6194H64.0114V24.2703H61.4829V24.6194ZM65.3711 27.9058C65.3729 27.9236 65.3712 27.9417 65.366 27.9588C65.3608 27.9759 65.3523 27.9918 65.3409 28.0056C65.3115 28.0272 65.276 28.0388 65.2397 28.0388H64.9613C64.8231 28.0388 64.6664 28.0369 64.4913 28.0332C64.5059 28.0665 64.5214 28.1072 64.538 28.1552C64.5545 28.2033 64.5701 28.2504 64.5847 28.2965C64.5979 28.337 64.607 28.3788 64.6119 28.4212C64.8445 28.4212 65.0334 28.4165 65.1764 28.4074C65.2894 28.4044 65.4011 28.3829 65.5073 28.3436C65.5802 28.3163 65.6417 28.2645 65.6815 28.1967C65.7236 28.106 65.7424 28.0059 65.7361 27.9058V23.3385H65.3711V27.905V27.9058ZM64.1857 26.2239C64.2655 26.3772 64.3365 26.5259 64.3959 26.6699C64.4493 26.7941 64.4941 26.9219 64.5302 27.0523L64.8523 26.8971C64.8167 26.765 64.7701 26.6361 64.7132 26.5119C64.6489 26.3696 64.575 26.2237 64.4913 26.074C64.4076 25.9244 64.3222 25.7868 64.2353 25.6612L63.9345 25.7995C64.0262 25.9357 64.1101 26.0771 64.1857 26.2231V26.2239ZM62.1681 25.9939C62.3374 26.2008 62.4996 26.4104 62.6547 26.6229C62.8098 26.8354 62.9499 27.0404 63.0752 27.238C63.1869 27.4116 63.288 27.5921 63.3778 27.7784L63.6669 27.5234C63.5735 27.3415 63.4705 27.1648 63.3584 26.9942C63.2328 26.8003 63.0911 26.5999 62.9331 26.3929C62.7751 26.186 62.6103 25.9809 62.4386 25.7778C62.2673 25.5745 62.098 25.3842 61.9306 25.2069L61.6639 25.4175C61.8313 25.5944 61.9994 25.7863 62.1681 25.9931V25.9939ZM62.5428 24.4754H62.8922V23.3496H62.5428V24.4746V24.4754ZM62.8318 26.1657C62.6942 26.5644 62.4983 26.9399 62.2508 27.2796C62.0075 27.6055 61.704 27.8803 61.3574 28.0887C61.3917 28.1157 61.424 28.1454 61.4537 28.1776C61.4878 28.2144 61.5199 28.2505 61.5491 28.2856C61.5734 28.3141 61.5953 28.3447 61.6143 28.377C61.9705 28.1407 62.2828 27.8424 62.5369 27.4959C62.798 27.1331 63.0058 26.7338 63.154 26.3104C63.3253 25.8209 63.4514 25.3163 63.5306 24.8031L63.1705 24.7537C63.1031 25.2342 62.9897 25.7068 62.8318 26.1649V26.1657ZM69.1074 26.6561C69.2532 26.8215 69.3671 27.0133 69.4432 27.2214C69.5027 27.3764 69.5209 27.5447 69.4958 27.7091C69.4877 27.7704 69.4674 27.8293 69.4359 27.8822C69.4044 27.9352 69.3625 27.9809 69.3128 28.0166C69.2643 28.0558 69.2072 28.0824 69.1464 28.0942C69.0824 28.1057 69.0176 28.1113 68.9527 28.1109C68.8943 28.1109 68.8213 28.1089 68.7337 28.1054C68.6461 28.1018 68.5575 28.0961 68.4661 28.0887C68.5015 28.1385 68.5266 28.195 68.54 28.2549C68.5547 28.3113 68.5647 28.3687 68.5702 28.4267C68.65 28.4304 68.7288 28.4331 68.8077 28.435C68.8865 28.4369 68.9556 28.4378 69.0179 28.4378C69.1118 28.4358 69.2052 28.4228 69.2962 28.3991C69.385 28.3727 69.4696 28.3335 69.5473 28.2827C69.6585 28.206 69.7441 28.0968 69.7926 27.9695C69.8494 27.8235 69.8711 27.6658 69.8559 27.5095C69.8387 27.3226 69.7879 27.1404 69.706 26.972C69.6069 26.7687 69.4779 26.5818 69.3235 26.4178C69.137 26.2202 68.9217 26.0529 68.685 25.9218L68.4446 26.1103C68.6935 26.2539 68.9174 26.438 69.1074 26.6553V26.6561ZM68.4446 26.6478C68.2158 26.7577 67.9805 26.853 67.74 26.9332C67.4928 27.0163 67.2563 27.0838 67.0305 27.1355C67.0726 27.1753 67.1111 27.2189 67.1453 27.2657C67.1852 27.3193 67.2174 27.3645 67.2436 27.4015C67.4854 27.3371 67.7233 27.2585 67.9561 27.166C68.202 27.0697 68.4424 26.9596 68.6763 26.8362C68.8834 26.7301 69.08 26.6039 69.2632 26.4594L68.9955 26.3211C68.823 26.448 68.6384 26.5571 68.4446 26.647V26.6478ZM68.8816 27.1965C68.6846 27.3226 68.4802 27.4364 68.2695 27.5373C68.0515 27.6427 67.8276 27.7387 67.5979 27.8255C67.3822 27.908 67.1619 27.9772 66.938 28.0329C66.9842 28.073 67.0253 28.1186 67.0607 28.1688C67.0965 28.2168 67.1284 28.2678 67.156 28.3211C67.3672 28.2583 67.5875 28.1798 67.8169 28.0856C68.0462 27.9914 68.2717 27.8852 68.4933 27.767C68.7089 27.6525 68.9184 27.5267 69.1211 27.3901C69.3045 27.2678 69.4765 27.1287 69.635 26.9745L69.3673 26.8248C69.2163 26.9625 69.0538 27.0866 68.8816 27.1957V27.1965ZM68.2967 24.021H69.9074V23.7154H68.2967V24.0202V24.021ZM68.6549 25.8332C68.3888 25.9435 68.1172 26.0397 67.8412 26.1213C67.5551 26.2064 67.2774 26.2765 67.0081 26.3319C67.0266 26.3541 67.049 26.3827 67.0743 26.4178C67.0996 26.4529 67.1239 26.4881 67.1483 26.5231C67.1726 26.5582 67.1901 26.5868 67.2047 26.609C67.4743 26.5388 67.7546 26.4548 68.0456 26.3569C68.3366 26.2589 68.6189 26.149 68.8923 26.0271C69.1392 25.92 69.3749 25.7881 69.596 25.6336L69.3128 25.4896C69.1047 25.6247 68.8844 25.7395 68.6549 25.8324V25.8332ZM69.4325 25.6336C69.544 26.0339 69.7046 26.4183 69.9104 26.778C70.1027 27.1121 70.348 27.4117 70.6364 27.6647C70.9288 27.9181 71.2624 28.1178 71.6223 28.2549C71.6399 28.2217 71.6622 28.1858 71.6875 28.1468C71.7135 28.1073 71.7418 28.0693 71.7722 28.0332C71.7982 28.0015 71.8265 27.9718 71.8569 27.9443C71.5084 27.8323 71.1833 27.6557 70.8982 27.4234C70.6185 27.1928 70.3796 26.9155 70.1917 26.6034C69.9947 26.2761 69.8406 25.9241 69.7333 25.5563L69.4325 25.6336ZM70.9644 26.1019C70.8058 26.2147 70.6419 26.3228 70.4729 26.4261C70.3039 26.5294 70.1466 26.62 70.0009 26.6977L70.2296 26.8861C70.3756 26.8159 70.5333 26.7319 70.7046 26.634C70.8759 26.5361 71.0452 26.4336 71.2126 26.3263C71.38 26.219 71.5328 26.1139 71.671 26.0102L71.3761 25.7885C71.2603 25.8842 71.1221 25.9885 70.9644 26.1011V26.1019ZM70.9119 24.747V25.4231H67.8549V24.747H70.9119ZM67.5113 25.7168H71.2671V24.4524H67.5113V25.716V25.7168ZM68.0982 23.7993C67.9352 23.9763 67.7599 24.1412 67.5736 24.2925C67.3678 24.4601 67.1476 24.6084 66.9156 24.7358C66.948 24.7569 66.9783 24.781 67.0062 24.8079C67.0363 24.8376 67.0675 24.868 67.0986 24.8993C67.126 24.9259 67.149 24.9568 67.1667 24.9908C67.5226 24.7766 67.8525 24.5209 68.1498 24.2288C68.4081 23.9758 68.6421 23.6984 68.8485 23.4003L68.4661 23.3227C68.3577 23.4921 68.2345 23.6513 68.0982 23.7985V23.7993ZM69.1649 25.5837H69.5259V24.591H69.1649V25.5829V25.5837ZM69.7712 23.7937C69.727 23.8814 69.6779 23.9665 69.6242 24.0486C69.562 24.1449 69.4944 24.2374 69.4218 24.3257C69.3547 24.4088 69.2798 24.4849 69.198 24.553C69.2418 24.5788 69.2894 24.6084 69.343 24.6419C69.387 24.6691 69.4296 24.6988 69.4705 24.7308C69.5473 24.6606 69.6281 24.5784 69.7138 24.4838C69.801 24.3874 69.8822 24.2856 69.9571 24.179C70.033 24.0701 70.1002 23.9657 70.1586 23.8659L69.9133 23.6996L69.8481 23.7163H69.7712V23.7937ZM72.8837 23.766L72.7251 24.0764L76.257 25.9052V25.9163L72.7251 27.7451L72.8837 28.0555L76.9724 25.9216V25.8995L72.8837 23.766ZM29.2134 31.9847H31.8393V31.6355H29.2134V31.9847ZM29.0548 33.9797H31.9493V33.6251H29.0548V33.9797ZM30.9711 36.407H31.3205V31.7677H30.9711V36.4062V36.407ZM29.6835 33.7347C29.6835 33.938 29.6751 34.1495 29.6582 34.3693C29.6418 34.5903 29.6089 34.8099 29.5599 35.0259C29.5114 35.243 29.4392 35.454 29.3448 35.6549C29.2473 35.8601 29.1182 36.0481 28.9623 36.2119C28.9981 36.2284 29.0321 36.2489 29.0635 36.2728C29.0976 36.2986 29.1317 36.3245 29.1648 36.3504C29.1932 36.373 29.2205 36.3971 29.2465 36.4225C29.4135 36.2469 29.5525 36.0459 29.6582 35.8267C29.7615 35.612 29.8405 35.3861 29.8937 35.1534C29.9462 34.9199 29.9817 34.6828 29.9998 34.444C30.0183 34.2038 30.0274 33.9692 30.0271 33.7403V31.7842H29.6835V33.7347ZM26.9973 31.9779H28.9078V31.6343H26.9973V31.9779ZM27.5375 33.6681H28.4815V35.3648H27.5375V35.7028H28.8095V33.3309H27.5375V33.6689V33.6681ZM27.4148 33.1196C27.3004 33.4983 27.1262 33.8558 26.899 34.178C26.9249 34.2157 26.9477 34.2556 26.9671 34.2971C26.9905 34.3465 27.0119 34.3959 27.0323 34.444C27.0498 34.4832 27.0636 34.524 27.0732 34.5659C27.2482 34.3315 27.3949 34.0766 27.5102 33.8067C27.639 33.507 27.7476 33.1987 27.8353 32.884C27.9277 32.5534 28.005 32.2126 28.0669 31.8616L27.7282 31.7894C27.6564 32.2402 27.5517 32.6849 27.4148 33.1199V33.1196ZM27.3739 36.1509H27.6903V33.3305H27.3739V36.1513V36.1509ZM32.7843 34.5882H36.0107V34.2389H32.7843V34.5882ZM35.8092 35.8406C35.8047 35.9506 35.8202 36.0605 35.855 36.1648C35.869 36.201 35.8903 36.2337 35.9177 36.261C35.945 36.2882 35.9777 36.3093 36.0136 36.3228C36.113 36.3562 36.2175 36.3713 36.3221 36.3672H36.9061C37.0096 36.3734 37.1121 36.343 37.1961 36.2812C37.2789 36.1974 37.3326 36.0885 37.3489 35.9709C37.388 35.7598 37.4098 35.5457 37.4141 35.3309C37.381 35.3197 37.3421 35.3059 37.2964 35.2893C37.2525 35.2733 37.2096 35.2548 37.1679 35.2339C37.1317 35.2158 37.0972 35.1944 37.0647 35.1701C37.0608 35.414 37.054 35.5959 37.0423 35.716C37.042 35.7979 37.0227 35.8786 36.9859 35.9515C36.9721 35.9697 36.9542 35.9842 36.9337 35.9938C36.9132 36.0035 36.8907 36.008 36.8681 36.0069H36.3708C36.3189 36.0127 36.2666 36.0021 36.2209 35.9765C36.2065 35.9573 36.196 35.9355 36.19 35.9122C36.184 35.8889 36.1826 35.8646 36.1859 35.8407V34.2393H35.8092V35.841V35.8406ZM34.7172 32.05H35.088V31.3189H34.7172V32.05ZM33.9503 32.6374C33.899 32.7964 33.8139 32.9421 33.7011 33.0641C33.5719 33.1975 33.4181 33.3039 33.2486 33.3772C33.0154 33.4775 32.7718 33.5509 32.5225 33.5961C32.5655 33.6383 32.6031 33.6858 32.6344 33.7375C32.6675 33.7883 32.694 33.8432 32.7133 33.9009C32.9904 33.8464 33.26 33.758 33.5162 33.6377C33.7077 33.5468 33.8791 33.4177 34.0204 33.2581C34.1476 33.108 34.2442 32.9337 34.3046 32.7454C34.3734 32.5283 34.42 32.3045 34.4437 32.0776H34.0622C34.0442 32.2679 34.0067 32.4558 33.9503 32.6382V32.6374ZM35.3226 33.2026C35.3184 33.3036 35.3343 33.4044 35.3693 33.499C35.3851 33.535 35.4084 33.567 35.4376 33.5929C35.4669 33.6187 35.5014 33.6378 35.5387 33.6487C35.6514 33.6804 35.7682 33.6944 35.8851 33.6903H36.6822C36.7771 33.6949 36.8717 33.6759 36.9577 33.6348C37.0298 33.5926 37.0837 33.5243 37.1085 33.4436C37.1468 33.3206 37.1688 33.1929 37.1737 33.064C37.1407 33.053 37.1046 33.041 37.0647 33.028C37.0245 33.0149 36.9851 32.9992 36.947 32.9809C36.9122 32.9643 36.8784 32.9458 36.8457 32.9254C36.845 33.0173 36.8379 33.109 36.8243 33.1998C36.8208 33.2462 36.8003 33.2897 36.7669 33.3217C36.7302 33.3446 36.6873 33.3553 36.6443 33.3522H35.9182C35.8524 33.3586 35.786 33.3491 35.7245 33.3244C35.7086 33.309 35.6965 33.2898 35.6894 33.2686C35.6823 33.2473 35.6803 33.2247 35.6837 33.2025V32.0836H35.3226V33.203V33.2026ZM32.5984 32.8147H32.9644V32.1778H36.874V32.7705H37.2506V31.8394H32.5984V32.8148V32.8147ZM34.3844 34.2002C34.3833 34.3296 34.3703 34.4586 34.3454 34.5855C34.3173 34.7286 34.2667 34.8661 34.1956 34.9929C34.1082 35.1455 33.9975 35.2829 33.8676 35.4002C33.6957 35.5545 33.5038 35.6842 33.2972 35.7855C33.0155 35.9247 32.7212 36.0361 32.4184 36.1179C32.4671 36.1637 32.5126 36.2127 32.5546 36.2648C32.5957 36.3134 32.634 36.3643 32.6695 36.4173C32.9895 36.329 33.2997 36.2074 33.5951 36.0542C33.8145 35.9411 34.0167 35.7964 34.1956 35.6248C34.3358 35.4881 34.4528 35.329 34.542 35.1536C34.6186 35.0017 34.673 34.8393 34.7036 34.6715C34.7304 34.5179 34.7441 34.3621 34.7445 34.2061V33.547H34.3844V34.201V34.2002ZM38.184 32.1275H42.552V31.8006H38.184V32.1275ZM38.4351 32.9255H42.3388V32.6152H38.4351V32.9255ZM37.9815 33.79H42.7369V33.4631H37.9815V33.79ZM40.1655 33.7125H40.5373V31.3188H40.1655V33.7129V33.7125ZM39.6799 33.9785C39.4916 34.1156 39.2957 34.2414 39.093 34.3553C38.8822 34.4743 38.6652 34.5816 38.4429 34.6768C38.2325 34.7681 38.0167 34.8458 37.7966 34.9095C37.8279 34.9386 37.8569 34.9701 37.8833 35.0038L37.9708 35.1146C37.9969 35.1468 38.0188 35.1821 38.036 35.2199C38.2586 35.1452 38.4767 35.0573 38.6891 34.9567C38.9152 34.8501 39.1358 34.7317 39.3499 34.602C39.5617 34.474 39.7658 34.3334 39.9612 34.1808C40.1396 34.0425 40.3066 33.8896 40.4604 33.7236L40.1441 33.5685C40.0034 33.7208 39.8478 33.8583 39.6799 33.9789V33.9785ZM40.3456 33.6848C40.4628 34.1037 40.6315 34.5059 40.8478 34.8819C41.0488 35.2285 41.3077 35.5369 41.6128 35.7935C41.9246 36.0522 42.2796 36.2521 42.661 36.3837C42.6795 36.3504 42.7019 36.3134 42.7291 36.2728C42.7564 36.2322 42.7856 36.1925 42.8167 36.1537C42.8435 36.1186 42.8735 36.0861 42.9062 36.0567C42.5363 35.9485 42.1892 35.7719 41.8824 35.5358C41.5887 35.3057 41.339 35.023 41.1456 34.7017C40.9415 34.3622 40.7847 33.9958 40.6794 33.6127L40.3456 33.6848ZM41.9125 34.3083C41.7675 34.421 41.6186 34.5291 41.4678 34.6324C41.3169 34.7358 41.1777 34.8283 41.0502 34.9095L41.2741 35.1146C41.4055 35.0407 41.5466 34.9539 41.7004 34.8541C41.8542 34.7543 42.005 34.651 42.1559 34.5438C42.3067 34.4366 42.4459 34.3295 42.5734 34.2223L42.2843 33.9951C42.1821 34.0916 42.0582 34.1961 41.9125 34.3087V34.3083ZM38.5275 36.4003C38.7465 36.341 38.9898 36.2765 39.2594 36.2064C39.529 36.1362 39.8113 36.0622 40.1062 35.9847C40.4011 35.9071 40.6921 35.8295 40.9792 35.7519L40.9412 35.4194C40.6317 35.5007 40.3222 35.581 40.0127 35.6604C39.7032 35.7399 39.4103 35.8147 39.1339 35.8849C38.8575 35.9551 38.6171 36.0124 38.4127 36.0567L38.5275 36.4003ZM39.1825 36.0124H39.5485V34.3281L39.456 34.2948L39.1825 34.5719V36.0128V36.0124ZM43.5019 32.05H46.3409V31.7507H43.5019V32.05ZM43.3374 32.9366H46.4333V32.6322H43.3374V32.937V32.9366ZM43.3325 35.5413H46.4557V35.2252H43.3325V35.5413ZM44.7515 31.9502H45.1068V31.3242H44.7515V31.9505V31.9502ZM44.7515 36.3948H45.1068V34.7215H44.7515V36.3951V36.3948ZM44.1326 32.3797C44.1599 32.4718 44.1826 32.5652 44.2007 32.6596L44.517 32.593C44.5016 32.5011 44.4768 32.411 44.443 32.3243C44.4076 32.225 44.3667 32.1279 44.3204 32.0334L44.0206 32.0888C44.0662 32.1824 44.1036 32.2799 44.1326 32.3801V32.3797ZM45.4348 32.3021C45.3871 32.4149 45.3414 32.5137 45.2976 32.5984L45.5759 32.6815C45.6197 32.604 45.6693 32.5125 45.7238 32.4072C45.7783 32.3019 45.8329 32.1975 45.8874 32.0941L45.5438 32.0052C45.5125 32.106 45.4761 32.2052 45.4348 32.3023V32.3021ZM45.828 34.1669V34.5549H44.0148V34.1669H45.828ZM45.828 33.5296V33.9176H44.0148V33.5296H45.828ZM43.6761 34.8098H46.1822V33.2803H43.6761V34.8098ZM47.3755 31.8643C47.2278 32.0105 47.0708 32.1465 46.9054 32.2716C46.7504 32.3905 46.5871 32.498 46.4168 32.593C46.4645 32.63 46.5132 32.6725 46.5647 32.7205C46.6086 32.761 46.6487 32.8055 46.6845 32.8535C46.8607 32.7438 47.0304 32.6235 47.1925 32.4933C47.3648 32.3556 47.529 32.2075 47.684 32.05C47.8335 31.8996 47.972 31.7384 48.0986 31.5678L47.7492 31.4294C47.6372 31.5852 47.5121 31.7308 47.3755 31.8647V31.8643ZM47.501 33.4055C47.3355 33.5587 47.1613 33.7021 46.9794 33.8349C46.8072 33.9617 46.6267 34.0765 46.4392 34.1785C46.4904 34.2192 46.5395 34.2627 46.5862 34.3088C46.6309 34.3512 46.6728 34.3965 46.7117 34.4445C46.9037 34.327 47.0895 34.1993 47.2684 34.0621C47.4579 33.9182 47.6386 33.7627 47.8096 33.5966C47.9726 33.4396 48.1223 33.2691 48.2572 33.0868L47.9185 32.9427C47.7944 33.1103 47.6546 33.2652 47.501 33.4054V33.4055ZM47.5555 35.1595C47.3537 35.3581 47.1356 35.5389 46.9034 35.6998C46.6751 35.8593 46.4319 35.9957 46.1774 36.1071C46.2295 36.1527 46.2786 36.2018 46.3244 36.254C46.3675 36.3008 46.406 36.3518 46.4392 36.4063C46.7045 36.2749 46.9585 36.121 47.1983 35.9463C47.439 35.7713 47.6638 35.5747 47.8699 35.3589C48.067 35.1526 48.2425 34.926 48.3935 34.6828L48.0441 34.5445C47.9079 34.7699 47.7437 34.9766 47.5555 35.1595ZM50.1824 32.7765H55.9343V32.3242H50.1824V32.7765ZM52.9143 32.6168C53.0666 33.1827 53.2763 33.7309 53.5401 34.2528C53.7825 34.7354 54.0937 35.1791 54.4637 35.5696C54.8208 35.9443 55.2415 36.2507 55.7056 36.474C55.7319 36.4345 55.763 36.3885 55.8 36.3376C55.837 36.2868 55.8769 36.2356 55.9178 36.1847C55.9528 36.1407 55.9913 36.0996 56.0326 36.0616C55.5855 35.8684 55.1779 35.5921 54.8307 35.247C54.4707 34.8877 54.168 34.4737 53.9333 34.02C53.6817 33.5388 53.4848 33.0301 53.3464 32.5038L52.9143 32.6168ZM52.8063 31.2733C52.7956 31.597 52.7683 31.9384 52.7245 32.2974C52.6787 32.665 52.6009 33.0278 52.4919 33.3814C52.3776 33.751 52.2191 34.105 52.0199 34.4354C51.8069 34.7861 51.5431 35.1022 51.2374 35.3732C50.8842 35.6807 50.4863 35.9308 50.0578 36.1147C50.126 36.1653 50.1886 36.2233 50.2446 36.2876C50.2993 36.3472 50.3484 36.4117 50.3916 36.4804C50.8325 36.2818 51.2403 36.0148 51.6004 35.689C51.9181 35.3979 52.1928 35.0618 52.416 34.6912C52.626 34.3418 52.7933 33.9677 52.9143 33.5772C53.0302 33.2038 53.1155 32.8212 53.1693 32.4335C53.2218 32.0544 53.2559 31.6909 53.2715 31.3428C53.2861 30.9948 53.2935 30.6811 53.2939 30.4018H52.8286C52.8248 30.6593 52.8173 30.9498 52.8063 31.2734V31.2733ZM59.3612 31.393H59.8069V30.3889H59.3612V31.3934V31.393ZM56.9105 32.3108H57.33V31.4994H61.916V32.3108H62.3491V31.1603H56.9105V32.3109V32.3108ZM60.9534 32.1711V32.6565H58.3256V32.1711H60.9534ZM57.913 32.9491H61.3856V31.8723H57.913V32.9491ZM57.8575 30.9141C57.9443 31.0188 58.0199 31.1324 58.0833 31.2532L58.4901 31.0869C58.4197 30.9715 58.3396 30.8624 58.2507 30.7609C58.154 30.6475 58.05 30.5409 57.9392 30.4416L57.5529 30.568C57.6531 30.6704 57.7547 30.7858 57.8575 30.9143V30.9141ZM61.0478 30.7678C60.9408 30.9053 60.8415 31.0228 60.75 31.1202L61.1043 31.2466C61.1958 31.1579 61.2993 31.0526 61.4148 30.9305C61.5299 30.8091 61.6384 30.6815 61.7398 30.5481L61.2999 30.4085C61.2233 30.5335 61.1391 30.6535 61.0478 30.768V30.7678ZM61.3398 34.2391V34.6315H57.9723V34.2391H61.3398ZM61.3398 34.9109V35.3033H57.9723V34.9109H61.3398ZM61.3398 33.5743V33.9596H57.9723V33.5743H61.3398ZM57.5529 35.5959H61.772V33.2884H57.5529V35.5959ZM58.1066 35.8752C57.8845 35.9443 57.6591 36.002 57.4312 36.0482C57.1937 36.0969 56.9615 36.139 56.7344 36.1745C56.774 36.2058 56.8111 36.2403 56.8453 36.2776C56.8842 36.3197 56.9241 36.3629 56.9631 36.4073C57.002 36.4517 57.0351 36.4893 57.0614 36.5203C57.2794 36.4671 57.511 36.4061 57.7563 36.3375C58.0015 36.2688 58.2374 36.1912 58.4638 36.1047C58.6658 36.0302 58.8608 35.9378 59.0468 35.8287L58.6342 35.6624C58.4651 35.7496 58.2885 35.8208 58.1066 35.8752ZM60.8717 36.1047C61.1053 36.1733 61.3236 36.2421 61.5267 36.3109C61.7298 36.3797 61.9011 36.4429 62.0406 36.5004L62.4727 36.2343C62.316 36.1721 62.1285 36.1068 61.9102 36.0382C61.6918 35.9697 61.4592 35.902 61.2123 35.8353C60.9651 35.7688 60.7199 35.7089 60.4746 35.6558L60.1534 35.9151C60.3987 35.9728 60.6371 36.0358 60.8717 36.1047Z" fill="var(--fill-0, white)"/>
</g>
</svg>
