<?xml version="1.0" encoding="UTF-8"?>
<svg id="_レイヤー_1" data-name="レイヤー 1" xmlns="http://www.w3.org/2000/svg" viewBox="0 0 841 496">
  <defs>
    <style>
      .cls-1 {
        fill: #fff;
        fill-rule: evenodd;
      }
    </style>
  </defs>
  <g id="_第4回_沖縄NICE映画祭_NICE特別賞" data-name="第4回 沖縄NICE映画祭 NICE特別賞">
    <path id="_シェイプ_1" data-name="シェイプ 1" class="cls-1" d="M370.99,484.94c-19.02-20.16-50.24-32.79-76.12-41.31,1.96-20.26-6.5-45.43-31.56-63.64-6.48-4.55-13.22-8.71-20.2-12.45,1.27,14.45,4.73,26.85,10.77,36.41,6.78,10.79,27.78,30.18,37.13,38.42-15.73-5.05-30.51-9.15-47.35-14.11.14-5.49-1.34-13.13-3.25-20.3-2.12-7.89-4.71-15.2-6.54-18.46-5.35-9.48-12.48-16.85-18.97-22.61-5.17-4.47-10.57-8.67-16.17-12.58-1.5,22.32,3.03,43.59,40.77,72.71-15.77-4.68-31.03-9.49-46.45-15.44.36-5.71-1.15-36.58-19.88-61.54-4.58-6.04-8.76-10.63-11.45-13.57-9.5,28.89,5.09,54.76,27.08,73.44-15.11-5.88-29.67-13.08-43.51-21.52,3.35-16.24,1.98-47.35-12.76-76.71-18.63,27.2-4.56,58.91,8.91,74.27-13.47-8.6-25.79-18.85-36.69-30.54-.16-.17-.31-.34-.47-.51,4.88-10.77,15.94-47.01,5.81-77.4-19.04,18.59-20.6,45.52-11.32,68.67.71,1.84,1.54,3.62,2.47,5.36.01,0,.02.02.02.03-10.69-12.22-19.75-25.78-26.97-40.32,17.67-23.18,23.7-49.65,19.82-74.92-23.61,15.43-27.62,48.73-21.66,71.16-7.07-14.75-12.85-30.1-17.25-45.86,21.8-21.55,31.32-46.73,31.31-69.17-18.32,7.52-28.23,25.89-31.48,45.06-1.27,6.8-1.53,13.74-.76,20.61-4.24-16-6.95-32.37-8.09-48.88,3.36-2.55,9.03-8.19,14.63-13.75,4.3-4.35,22.79-20.16,26.84-48.61-18.76,4.13-31.07,20.46-37.46,38.27-2.57,7.14-3.96,14.65-4.12,22.24-.46-7.33-.65-14.51-.52-21.46.67-36.34,8.53-72.49,21.88-106.01.6-1.56,1.13-2.82,1.53-3.81,2.05-2.21,5.29-6.52,8.83-11.26,4.69-6.34,9.88-13.44,12.72-18.04C102.6,27.12,106.51,11.97,109.93.82c-13.15,9.61-23.91,19.36-32.34,37.19-3.14,7.06-5.65,14.39-7.49,21.9-1.37,5.07-2.3,10.25-2.79,15.47-.43,1.03-1.01,2.4-1.69,4.12-3.26,8-7.11,18.76-10.21,29.2.44-3.08,1.53-12.3,2.96-22.66.78-5.71,1.66-11.77,2.33-17.36.68-4.8,1.03-9.64,1.04-14.49-.31-10.65-2.77-22.67-6.43-36.21-8.36,15.79-14.88,33.01-12.67,52.27,1.16,10.65,5.27,31.44,12.57,39.11-4.89,16.42-8.37,33.22-10.39,50.23-3.72-51.78.13-53.7-16.95-88.98-16.02,48.81,7.6,84.95,16.67,91.47-1.84,16.6-2.16,33.33-.96,49.99-14.18-47.8-9.6-50.94-34.71-84.24-6.69,49.4,19,81.11,35.03,88.15,1.42,16.28,4.33,32.4,8.7,48.14C28.37,220.79,32.51,216.52.17,188.76c3.33,55.89,42,77.81,53.83,80.21,4.57,15.4,10.45,30.38,17.58,44.78-3.26-3.72-7.83-9.02-12.66-14.82-1.05-1.23-2.09-2.49-3.12-3.77-16.33-19.8-20.11-27.3-52.29-43.94,14.92,49.65,51.71,68.11,70.79,67.8,7.44,14.01,16.59,27.04,27.26,38.78-.39-.24-.78-.48-1.2-.73-2.07-1.27-4.38-2.8-6.94-4.43-2.47-1.7-5.23-3.47-7.93-5.45-25.8-17.93-26.74-25.33-66.25-35.19,18.03,32.83,45.22,55.58,82.03,51.79.96-.11,1.87-.25,2.73-.42.78-.16,1.55-.36,2.3-.6,11,11.12,23.26,20.91,36.54,29.17-2.65-.7-10.77-2.95-18.28-5.39-32.1-10.5-33.81-15.66-75.91-15.87,41.2,44.95,86.68,34.57,100.63,25.17,13.26,7.68,27.11,14.31,41.4,19.84-53.3-3.09-55.14-8.23-95.83,5.43,54.2,31.5,97.12,3.77,103.46-2.5,14.12,5.28,28.33,9.77,42.76,14.14-10.76.47-45.69,2.16-56.06,5.27-11.17,3.38-22.68,9.88-34.94,18.55,8.89,2.73,18.05,4.54,27.31,5.4,32.71,2.63,65.92-19.52,72.08-26.7,12.83,3.84,28.28,8.35,42.13,12.97-55.39,1.86-68.05,12.98-85.99,31.86,8.56,1.29,17.22,1.83,25.87,1.63,27.63-1.08,62.52-23.53,68.91-30.46,42.71,15.21,59.5,29.54,72.17,44.55-.32-3.66-.84-7.3-1.56-10.9ZM47.77,156.05c34.26-19.85,45.05-39.22,49.4-55.07-25.8,1.71-45.05,29.3-49.4,55.07ZM81.45,69.11c-4.21,3.7-7.95,7.89-11.15,12.49-4.68,6.91-8.41,14.43-11.07,22.35,2.34-1.11,29.69-15.19,35.45-20.34,8.06-7.25,16.75-20.31,19.58-27.42-12.55-.98-23.33,4.49-32.81,12.92ZM470.34,484.94c19.01-20.16,50.23-32.79,76.11-41.31-1.96-20.26,6.51-45.43,31.57-63.64,6.47-4.55,13.22-8.71,20.2-12.45-1.28,14.45-4.73,26.85-10.78,36.41-6.78,10.79-27.77,30.18-37.13,38.42,15.73-5.05,30.52-9.15,47.35-14.11-.13-5.49,1.35-13.13,3.26-20.3,2.11-7.89,4.71-15.2,6.53-18.46,5.35-9.48,12.49-16.85,18.98-22.61,5.17-4.47,10.56-8.66,16.16-12.58,1.5,22.32-3.03,43.59-40.76,72.71,15.76-4.68,31.03-9.49,46.44-15.44-.36-5.71,1.16-36.58,19.89-61.54,4.57-6.04,8.76-10.63,11.44-13.57,9.51,28.89-5.08,54.76-27.08,73.44,15.11-5.88,29.67-13.08,43.51-21.52-3.35-16.24-1.97-47.35,12.76-76.71,18.64,27.2,4.56,58.91-8.91,74.27,13.47-8.6,25.8-18.86,36.7-30.54.15-.17.31-.34.47-.51-4.89-10.77-15.95-47.01-5.81-77.4,19.04,18.59,20.59,45.52,11.32,68.67-.71,1.84-1.54,3.62-2.48,5.36-.01.01-.01.02-.02.03,10.69-12.22,19.76-25.78,26.98-40.32-17.68-23.18-23.71-49.65-19.83-74.92,23.61,15.43,27.63,48.73,21.66,71.16,7.08-14.75,12.85-30.1,17.25-45.86-21.8-21.55-31.32-46.73-31.3-69.17,18.32,7.52,28.23,25.89,31.47,45.06,1.27,6.8,1.53,13.74.76,20.61,4.25-16,6.96-32.36,8.09-48.88-3.36-2.55-9.03-8.19-14.63-13.75-4.3-4.35-22.79-20.16-26.84-48.61,18.76,4.13,31.07,20.46,37.46,38.27,2.57,7.14,3.96,14.65,4.12,22.24.46-7.33.66-14.51.52-21.46-.67-36.34-8.53-72.49-21.87-106.01-.6-1.56-1.13-2.82-1.54-3.81-2.04-2.21-5.29-6.52-8.82-11.26-4.7-6.34-9.88-13.44-12.73-18.04-12.09-19.72-16-34.88-19.42-46.02,13.15,9.61,23.91,19.36,32.34,37.19,3.14,7.06,5.65,14.39,7.5,21.9,1.37,5.07,2.3,10.24,2.78,15.47.43,1.03,1.02,2.4,1.69,4.12,3.26,8,7.12,18.76,10.22,29.2-.44-3.08-1.54-12.3-2.97-22.66-.78-5.71-1.65-11.77-2.32-17.36-.68-4.8-1.03-9.64-1.05-14.49.31-10.65,2.78-22.67,6.44-36.21,8.35,15.79,14.87,33.01,12.66,52.27-1.16,10.65-5.27,31.44-12.57,39.11,4.89,16.42,8.37,33.22,10.39,50.23,3.73-51.78-.12-53.7,16.96-88.98,16.02,48.81-7.6,84.95-16.68,91.47,1.84,16.6,2.17,33.33.97,49.99,14.17-47.8,9.6-50.94,34.7-84.24,6.7,49.4-18.99,81.11-35.02,88.15-1.42,16.28-4.34,32.4-8.71,48.14,24.24-43.33,20.1-47.6,52.44-75.36-3.33,55.89-42,77.81-53.83,80.21-4.58,15.4-10.46,30.38-17.59,44.78,3.26-3.72,7.83-9.02,12.66-14.82,1.06-1.23,2.09-2.49,3.12-3.77,16.34-19.8,20.12-27.3,52.29-43.94-14.92,49.65-51.71,68.11-70.79,67.8-7.44,14.01-16.59,27.04-27.26,38.78.39-.24.79-.48,1.2-.73,2.08-1.27,4.39-2.8,6.94-4.43,2.47-1.7,5.24-3.47,7.93-5.45,25.8-17.93,26.75-25.33,66.26-35.19-18.03,32.83-45.23,55.58-82.04,51.79-.96-.11-1.87-.24-2.72-.42-.78-.16-1.55-.36-2.31-.6-10.99,11.12-23.25,20.91-36.53,29.17,2.65-.7,10.76-2.95,18.27-5.39,32.11-10.5,33.81-15.66,75.91-15.87-41.2,44.95-86.68,34.57-100.62,25.17-13.27,7.67-27.11,14.31-41.4,19.84,53.29-3.09,55.14-8.23,95.82,5.43-54.2,31.5-97.12,3.77-103.46-2.5-14.12,5.28-28.32,9.77-42.75,14.14,10.75.47,45.68,2.16,56.05,5.27,11.17,3.38,22.68,9.88,34.95,18.55-8.9,2.73-18.05,4.54-27.32,5.4-32.71,2.63-65.92-19.52-72.08-26.7-12.83,3.84-28.28,8.35-42.12,12.97,55.38,1.86,68.04,12.98,85.98,31.86-8.56,1.29-17.22,1.83-25.87,1.63-27.63-1.08-62.52-23.53-68.9-30.46-42.72,15.21-59.5,29.54-72.17,44.55.32-3.66.84-7.3,1.56-10.9h0ZM793.55,156.05c-34.26-19.85-45.04-39.22-49.4-55.07,25.81,1.71,45.05,29.3,49.4,55.07ZM759.87,69.11c4.21,3.69,7.96,7.89,11.15,12.49,4.69,6.91,8.41,14.43,11.07,22.35-2.34-1.11-29.69-15.19-35.44-20.34-8.06-7.25-16.75-20.31-19.58-27.42,12.54-.98,23.33,4.49,32.8,12.92Z"/>
    <path id="_第4回_沖縄NICE映画祭_NICE特別賞-2" data-name="第4回 沖縄NICE映画祭 NICE特別賞-2" class="cls-1" d="M349.47,113.35h43.18v-14.91h-48.8v3.81h44.39v7.22h-38.77v3.88h0ZM346.02,114.99c-.46,1.94-.94,3.83-1.43,5.68-.49,1.85-.98,3.46-1.47,4.85l4.41.74c.44-1.47.91-3.15,1.4-5.05.49-1.89.97-3.85,1.44-5.88.47-2.03.9-3.98,1.3-5.85h-4.48c-.31,1.74-.7,3.58-1.17,5.51ZM346.39,123.77h46.79v-3.88h-45.58l-1.21,3.88ZM392.05,120.5c-.24,3.24-.67,6.47-1.27,9.66-.45,1.98-.98,3.26-1.61,3.84-.25.24-.56.39-.9.43-.48.07-.96.11-1.44.1-.58.04-1.6.04-3.07,0s-3.06-.15-4.75-.33c.42.62.72,1.31.9,2.04.19.69.31,1.39.37,2.1,1.74.09,3.37.13,4.88.13s2.7-.02,3.54-.07c.8-.02,1.58-.15,2.34-.4.67-.25,1.29-.64,1.81-1.14,1.09-1.32,1.81-2.92,2.07-4.61.7-3.47,1.19-6.97,1.47-10.5.13-.62.19-1.24.2-1.87h-4.54v.6h0ZM366.44,141.35h4.42v-41.91h-4.42v41.91ZM359.93,125.88c-2.14,1.63-4.4,3.1-6.75,4.41-2.44,1.36-4.95,2.59-7.52,3.68-2.46,1.05-4.98,1.93-7.56,2.64.31.31.65.68,1.01,1.1s.71.86,1.07,1.3c.3.37.57.78.8,1.2,2.59-.89,5.14-1.91,7.62-3.07,2.61-1.22,5.16-2.58,7.62-4.08,2.43-1.47,4.75-3.11,6.95-4.91,2.03-1.65,3.89-3.5,5.55-5.51l-3.55-1.6c-1.57,1.79-3.33,3.42-5.24,4.85h0ZM346.06,89.68h21.65v-3.68h-21.65v3.68ZM371.73,89.68h27.2v-3.68h-27.2v3.68ZM343.38,88.51c-1.61,2.63-3.53,5.04-5.74,7.19.42.22.83.47,1.23.74.47.31.93.61,1.37.9.37.24.73.49,1.07.77,1.47-1.49,2.8-3.11,3.98-4.85,1.3-1.91,2.51-3.88,3.61-5.92,1.13-2.07,2.12-4.22,2.97-6.42l-4.21-1.14c-1.12,3.05-2.55,5.97-4.28,8.72h0ZM369.22,88.41c-1.84,2.57-4.03,4.87-6.52,6.82.46.21.9.47,1.31.77.46.34.92.66,1.37.97.38.26.73.55,1.06.87,2.49-2.23,4.71-4.75,6.62-7.49,2.09-2.93,3.78-6.12,5.02-9.49l-4.22-1.07c-1.15,3.07-2.71,5.97-4.64,8.62h0ZM352.14,93.39c.57,1.37,1.02,2.79,1.34,4.24l4.01-1.47c-.37-1.44-.86-2.85-1.47-4.21-.66-1.53-1.4-3.02-2.21-4.48l-3.81,1.34c.81,1.48,1.52,3.01,2.14,4.58h0ZM381.22,93.43c.92,1.4,1.68,2.91,2.27,4.48l3.94-1.6c-.7-1.54-1.52-3.01-2.47-4.41-1.02-1.58-2.16-3.07-3.41-4.48l-3.74,1.34c1.24,1.48,2.38,3.04,3.41,4.68h0ZM429.95,136.14v-48.93h-5.82l-20.79,31.75v3.54h33.29v-4.35h-27.47l11.83-17.51c.67-1.2,1.34-2.41,2-3.61s1.3-2.36,1.88-3.48h.33c-.09,1.2-.18,2.65-.27,4.34-.09,1.69-.13,3.12-.13,4.28v33.96h5.15ZM480.48,102.32v16.04h-17.05v-16.04h17.05ZM459.16,122.37h25.8v-24.06h-25.8v24.06h0ZM444.38,141.29h4.62v-53.87h46.32v53.88h4.74v-58.35h-55.68v58.35h0ZM446.99,137.68h51.07v-4.21h-51.07v4.21ZM171.88,212.15h4.81v-28.57h34.38v28.19h5.04v-33.08h-44.23v33.46ZM191.13,233.69h5.2v-69.67h-5.2v69.67ZM174.32,207.64h38.96v-4.96h-38.96v4.96ZM157.1,170.71c1.86.99,3.59,2.01,5.19,3.06,1.37.86,2.66,1.85,3.86,2.94l3.06-4.28c-1.27-1.06-2.62-2-4.05-2.83-1.63-.97-3.38-1.92-5.24-2.87-1.75-.89-3.55-1.7-5.38-2.41l-2.83,3.82c1.73.71,3.53,1.57,5.39,2.56h0ZM153.16,191.22c1.89.87,3.66,1.77,5.31,2.71,1.42.79,2.79,1.67,4.09,2.64l2.75-4.35c-1.31-.96-2.71-1.82-4.16-2.56-1.71-.89-3.51-1.74-5.39-2.56s-3.69-1.5-5.42-2.06l-2.68,3.97c1.87.65,3.71,1.39,5.5,2.22ZM154.54,232.78c1.48-2.39,3.03-4.99,4.66-7.79,1.63-2.8,3.23-5.68,4.81-8.63,1.58-2.95,3.01-5.75,4.28-8.4l-3.74-3.36c-1.43,2.9-3,5.88-4.7,8.94-1.7,3.05-3.4,5.96-5.08,8.71-1.68,2.75-3.21,5.12-4.59,7.11l4.36,3.43ZM256.14,211.54h32.77v-3.9h-32.77v3.9ZM285.86,181.44v6.65h-26.89v-6.65h26.89ZM285.86,171.28v6.49h-26.89v-6.49h26.89ZM254.46,191.98h36.06v-24.52h-36.06v24.52h0ZM269.89,226.13c-.06,1.64.16,3.28.65,4.85.37,1.08,1.21,1.94,2.29,2.33,1.49.46,3.06.67,4.62.61h11.16c2.44,0,4.11-.62,5-1.87.89-1.25,1.47-3.55,1.72-6.91-.66-.2-1.39-.46-2.18-.76-.7-.26-1.38-.6-2.02-.99-.03,1.77-.28,3.52-.73,5.23-.31.88-1.18,1.43-2.1,1.34h-10.31c-1.48,0-2.42-.23-2.83-.69s-.61-1.48-.61-3.05v-57.37h-4.66v57.29h0ZM253.62,226.58h4.58v-29.78h-4.58v29.79h0ZM256.37,200.76h30.86v17.72h-30.86v3.97h35.6v-25.66h-35.6v3.97h0ZM233.76,169.4c-.97,2.06-1.99,4.09-3.06,6.07-1.07,1.99-2.06,3.72-2.98,5.2l3.52,1.6c1.13-1.61,2.17-3.28,3.13-5,1.07-1.91,2.15-3.87,3.24-5.88,1.1-2.01,2.11-3.96,3.02-5.84l-4.5-1.76c-.62,1.68-1.41,3.56-2.37,5.62h0ZM241.09,178.92c-1.37,2.34-2.84,4.71-4.39,7.1s-3.12,4.67-4.7,6.84-3.08,4.09-4.51,5.77l3.21,1.83c1.94-2.24,3.99-4.84,6.15-7.79,2.16-2.95,4.3-6.02,6.42-9.21,2.11-3.18,4.03-6.17,5.77-8.98l-4.36-2.06c-1.02,1.99-2.21,4.16-3.59,6.5h0ZM228.03,183.58c1.37,1.53,2.65,3.06,3.82,4.58,1.02,1.29,1.91,2.67,2.67,4.13l2.98-3.74c-.79-1.41-1.73-2.75-2.79-3.97-1.2-1.43-2.49-2.88-3.89-4.35s-2.79-2.83-4.17-4.05l-2.75,3.21c1.38,1.28,2.75,2.68,4.13,4.21h0ZM244.64,195.19c.94,1.94,1.8,3.83,2.56,5.69.68,1.59,1.22,3.24,1.61,4.93l4.12-1.91c-.45-1.63-1.03-3.23-1.72-4.77-.79-1.81-1.68-3.67-2.67-5.58-.99-1.91-2.03-3.68-3.09-5.31l-3.82,1.53c1.1,1.75,2.11,3.56,3.01,5.43h0ZM223.6,202.21c3.41-.2,7.33-.43,11.76-.69,4.43-.26,8.94-.54,13.52-.84v-4.35c-4.78.26-9.44.5-13.98.73-4.54.23-8.44.39-11.69.5l.39,4.66ZM246.17,215.39c.66,2.24,1.13,4.52,1.41,6.84l4.05-1.3c-.34-2.28-.85-4.52-1.53-6.72-.71-2.46-1.6-4.86-2.67-7.18l-3.74,1.07c.96,2.39,1.79,4.83,2.48,7.3h0ZM226.19,217.11c-.64,2.94-1.69,5.76-3.13,8.4.48.13.94.31,1.38.54.51.26,1.02.5,1.53.73.4.17.79.39,1.14.65,1.36-2.84,2.43-5.81,3.17-8.86.9-3.5,1.6-7.04,2.1-10.62l-4.35-.76c-.46,3.37-1.07,6.68-1.84,9.94h0ZM236.05,233.76h4.58v-34.22h-4.58v34.22h0ZM311.14,227.81v-30.63c0-2.9-.09-5.77-.27-8.59-.17-2.83-.37-5.64-.57-8.44h.38l6.12,11.38,21,36.29h6.57v-55.92h-6.03v30.33c0,2.85.09,5.76.26,8.71.17,2.95.39,5.83.65,8.63h-.38l-6.11-11.46-21.16-36.21h-6.49v55.92h6.03ZM366.3,227.81v-55.91h-6.34v55.92h6.34ZM412.28,226.7c2.83-1.47,5.35-3.48,7.41-5.92l-3.51-3.97c-1.69,1.92-3.71,3.53-5.96,4.74-2.24,1.14-4.73,1.72-7.25,1.68-3.4.08-6.73-.92-9.52-2.86-2.79-2.07-4.94-4.89-6.18-8.14-1.54-3.99-2.28-8.25-2.18-12.53-.1-4.23.65-8.44,2.21-12.38,1.3-3.23,3.5-6.02,6.35-8.02,2.81-1.9,6.14-2.89,9.54-2.83,2.27-.04,4.52.46,6.57,1.45,1.92.96,3.64,2.28,5.05,3.9l3.51-4.12c-1.83-1.88-3.94-3.47-6.26-4.7-2.75-1.45-5.83-2.17-8.94-2.1-3.36-.03-6.7.64-9.78,1.99-3,1.32-5.66,3.29-7.79,5.77-2.28,2.68-4.02,5.78-5.12,9.13-1.27,3.89-1.89,7.97-1.83,12.07-.07,4.12.54,8.22,1.79,12.15,1.07,3.34,2.79,6.44,5.04,9.13,2.08,2.46,4.7,4.42,7.64,5.73,3.02,1.32,6.29,1.98,9.59,1.95,3.33.07,6.63-.65,9.62-2.11h0ZM463.01,227.81v-5.35h-26.36v-21.46h21.47v-5.35h-21.47v-18.41h25.52v-5.35h-31.86v55.92h32.7ZM495.32,206.26h45.53v-4.74h-45.53v4.74ZM500.67,203.44h4.74v-22.53h26.05v22.54h4.73v-27.27h-35.52v27.27h0ZM515.41,193.12c0,3.6-.24,7.2-.76,10.77-.5,3.44-1.55,6.78-3.09,9.89-1.73,3.35-4.11,6.32-6.99,8.75-3.74,3.08-7.95,5.55-12.46,7.33.43.32.83.67,1.19,1.07.43.45.82.94,1.18,1.45.3.42.58.85.84,1.3,4.83-1.91,9.31-4.6,13.26-7.98,3.08-2.71,5.6-5.99,7.44-9.66,1.69-3.47,2.81-7.18,3.33-11,.54-3.95.8-7.93.8-11.92v-29.03h-4.74v29.03h0ZM516.64,204.43c1.44,6.42,4.04,12.53,7.67,18.03,3.33,4.95,7.9,8.93,13.26,11.54.25-.41.57-.87.95-1.38s.79-1.02,1.22-1.53c.38-.45.8-.86,1.27-1.22-5.13-2.13-9.55-5.67-12.76-10.2-3.43-4.87-5.89-10.36-7.26-16.16l-4.35.91ZM475.54,174.18h12.53v40.49h-12.53v4.66h17.26v-49.88h-17.26v4.74h0ZM475.69,196.33h15.28v-4.58h-15.28v4.58h0ZM473.09,225.44h4.74v-56h-4.74v56ZM553.15,228.95h57.22v-4.89h-57.22v4.89ZM548.03,173.64h67.38v-4.81h-67.38v4.81ZM550.4,233.76h4.97v-51.94h-4.97v51.95h0ZM608.31,233.54h4.96v-51.71h-4.96v51.72h0ZM578.82,184.95h5.19v-14.59h-5.19v14.59h0ZM579.12,214.97h4.59v-30.55h-4.59v30.56h0ZM595.47,201.83v10.62h-27.96v-10.61h27.96ZM595.47,187.01v10.62h-27.96v-10.61h27.96ZM563.08,216.88h36.9v-34.22h-36.9v34.22h0ZM635.5,170.47c-1.79,2.49-3.79,4.82-5.99,6.95-2.4,2.33-4.99,4.43-7.76,6.3.36.26.75.57,1.19.96s.85.79,1.26,1.22c.35.36.65.76.91,1.18,4.4-3.03,8.35-6.67,11.73-10.81,2.97-3.63,5.59-7.53,7.83-11.65l-5.04-.84c-1.22,2.33-2.6,4.56-4.13,6.69h0ZM636.19,172.65h18.18v-3.82h-15.89l-2.29,3.82ZM653.22,169.75c-1.14,3.84-2.78,7.51-4.88,10.92-2.04,3.3-4.48,6.34-7.26,9.05-2.7,2.63-5.67,4.96-8.86,6.95-3.05,1.91-6.3,3.46-9.7,4.62.58.6,1.1,1.25,1.56,1.95.48.69.9,1.42,1.26,2.18,4.82-1.96,9.36-4.52,13.52-7.64,4.43-3.31,8.32-7.27,11.54-11.76,3.47-4.86,6.06-10.29,7.64-16.04l-3.06-1.38-.84.23h-.92v.92ZM638.63,179.19c1.63.99,3.19,1.98,4.66,2.94,1.25.8,2.44,1.66,3.59,2.6l2.53-2.83c-1.13-.96-2.33-1.83-3.6-2.6-1.47-.92-3.03-1.83-4.66-2.75s-3.2-1.73-4.73-2.45l-2.45,2.52c1.48.72,3.03,1.57,4.66,2.56h0ZM676.79,222.31c2.01,1.83,3.91,3.64,5.69,5.42,1.53,1.49,2.93,3.1,4.2,4.81l4.36-2.9c-1.29-1.73-2.74-3.34-4.32-4.81-1.81-1.73-3.73-3.49-5.77-5.27-2.03-1.78-4.02-3.39-5.95-4.81l-4.13,2.6c1.94,1.47,3.91,3.13,5.92,4.96h0ZM631.87,186.83c1.56,1.15,3.03,2.25,4.43,3.32,1.22.92,2.39,1.91,3.48,2.98l2.98-2.75c-1.12-1.03-2.29-2-3.51-2.9-1.43-1.07-2.93-2.14-4.51-3.21s-3.11-2.04-4.59-2.9l-2.9,2.37c1.53.91,3.07,1.94,4.62,3.09h0ZM667.89,173.19h19.25v-4.43h-19.25v4.43h0ZM644.36,197.33h29.8v-4.66h-29.8v4.66ZM629.24,210.93h58.97v-4.74h-58.97v4.74ZM685.77,169.91c-.95,2.13-2.08,4.17-3.36,6.11-1.44,2.2-3.02,4.31-4.74,6.3-1.61,1.89-3.37,3.64-5.27,5.23.59.47,1.15.96,1.68,1.49.56.53,1.07,1.1,1.53,1.72,2.09-1.79,4.05-3.71,5.88-5.77,1.96-2.2,3.78-4.52,5.46-6.95,1.64-2.35,3.1-4.81,4.39-7.37l-3.36-2.22-.99.31h-1.22v1.15h0ZM658.65,165.86c1.68,5.87,4.08,11.52,7.14,16.81,2.83,4.86,6.45,9.22,10.73,12.87,4.36,3.67,9.32,6.55,14.67,8.52.31-.51.64-1.03.99-1.57.36-.54.76-1.05,1.19-1.53.43-.48.8-.88,1.11-1.18-5.15-1.67-9.95-4.26-14.17-7.64-4.13-3.34-7.65-7.36-10.43-11.88-2.95-4.82-5.21-10.03-6.72-15.47l-4.51,1.07ZM655.67,228.04c.05.36-.06.73-.31.99-.38.2-.79.31-1.22.31-.46.05-1.2.08-2.21.08s-2.23-.01-3.63-.04-2.94-.07-4.62-.11c.44.74.81,1.52,1.1,2.33.29.76.54,1.54.73,2.33,3,0,5.5-.04,7.49-.11,1.62-.03,3.24-.24,4.81-.65,1-.23,1.86-.85,2.4-1.72.49-1.04.71-2.18.65-3.32v-19.86h-5.19v19.79h0ZM632.56,222.39c-2.54,2.35-5.32,4.42-8.29,6.19.41.25.88.58,1.42.99s1.06.81,1.6,1.22c.45.32.84.71,1.18,1.15,3.03-2.07,5.87-4.41,8.48-6.99,2.73-2.61,5.09-5.58,7.03-8.82l-5.04-1.53c-1.71,2.91-3.86,5.54-6.38,7.79h0ZM234.75,319.48v-30.63c0-2.9-.09-5.77-.27-8.59s-.37-5.64-.57-8.44h.38l6.11,11.38,21.01,36.29h6.57v-55.92h-6.03v30.33c0,2.85.08,5.76.26,8.71s.4,5.83.65,8.63h-.38l-6.11-11.46-21.16-36.21h-6.49v55.92h6.03ZM289.91,319.48v-55.92h-6.35v55.92h6.35ZM335.89,318.37c2.83-1.47,5.35-3.48,7.41-5.92l-3.51-3.97c-1.69,1.92-3.71,3.53-5.96,4.74-2.25,1.15-4.74,1.72-7.26,1.68-3.39.08-6.73-.92-9.51-2.86-2.79-2.07-4.94-4.89-6.19-8.14-1.53-3.99-2.27-8.25-2.17-12.53-.1-4.23.65-8.44,2.21-12.38,1.29-3.23,3.5-6.02,6.34-8.02,2.82-1.9,6.15-2.89,9.55-2.83,2.27-.04,4.52.46,6.57,1.45,1.92.95,3.63,2.28,5.04,3.9l3.52-4.12c-1.83-1.88-3.95-3.47-6.27-4.7-2.75-1.45-5.82-2.17-8.93-2.1-3.36-.03-6.7.65-9.78,1.99-3,1.31-5.66,3.29-7.79,5.77-2.28,2.68-4.02,5.78-5.12,9.13-1.27,3.89-1.9,7.97-1.84,12.07-.06,4.12.55,8.22,1.8,12.15,1.07,3.34,2.79,6.44,5.04,9.13,2.08,2.46,4.7,4.42,7.64,5.73,3.02,1.32,6.29,1.98,9.59,1.95,3.33.07,6.63-.65,9.62-2.1h0ZM386.62,319.48v-5.35h-26.36v-21.47h21.47v-5.35h-21.47v-18.41h25.52v-5.35h-31.86v55.92h32.7ZM424.28,268.76h35.98v-4.81h-35.98v4.81ZM419.77,283.81h44v-4.81h-44v4.81ZM420.99,298.17h42.48v-4.81h-42.48v4.81ZM439.56,281.51h5.04v-26.13h-5.04v26.13h0ZM449.11,318.95c.04.38-.07.77-.31,1.07-.35.26-.78.39-1.22.38h-3.86c-1.91,0-4.06-.03-6.46-.08.45.81.81,1.67,1.07,2.56.27.84.48,1.69.62,2.56,2.95,0,5.43-.05,7.44-.15,1.61-.04,3.22-.27,4.78-.69,1.01-.33,1.87-1.02,2.4-1.95.5-1.17.72-2.43.65-3.7v-35.9h-5.11v35.9h0ZM429.01,307.22c1.28,1.5,2.44,2.99,3.48,4.47.92,1.27,1.73,2.63,2.41,4.05l4.2-2.67c-.75-1.38-1.6-2.69-2.56-3.93-1.1-1.45-2.28-2.9-3.55-4.35-1.23-1.4-2.53-2.74-3.9-4.01l-3.89,2.37c1.34,1.3,2.61,2.66,3.81,4.09h0ZM394.94,302.06c3.87-1.17,8.24-2.53,13.11-4.09,4.86-1.55,9.71-3.12,14.55-4.7l-.69-4.43c-3.41,1.02-6.85,2.06-10.31,3.13s-6.74,2.04-9.82,2.9c-3.08.87-5.82,1.6-8.21,2.21l1.37,4.97ZM407.93,325.44h4.81v-69.9h-4.81v69.9ZM397.43,268.95c-.49,3.13-1.07,6.09-1.76,8.86-.61,2.56-1.47,5.05-2.56,7.45.36.15.79.37,1.3.65s1.02.57,1.53.88c.4.23.78.48,1.14.76,1.06-2.54,1.92-5.16,2.6-7.83.76-2.93,1.43-6.05,1.99-9.36s1.01-6.65,1.37-10.01l-4.51-.76c-.25,3.11-.62,6.23-1.1,9.36h0ZM398,276.01h22.92v-4.89h-22.16l-.76,4.89ZM512.74,306.8h4.97v-42.17h-4.97v42.17ZM531.61,318.49c.06.55-.12,1.09-.5,1.49-.46.32-1,.5-1.56.5h-4.32c-2.17,0-4.62-.03-7.37-.08.29.53.54,1.08.76,1.64.26.64.5,1.26.73,1.87.21.51.35,1.05.42,1.6,3.51.05,6.35.01,8.52-.11,1.72-.05,3.43-.32,5.08-.8,1.05-.36,1.94-1.08,2.52-2.02.59-1.28.85-2.68.76-4.09v-61.65h-5.04v61.65h0ZM484.17,296.87h18.18v-4.58h-18.18v4.58ZM500.21,293.2c-.25,6.16-.52,11.12-.8,14.86-.17,2.83-.49,5.65-.96,8.44-.12,1.29-.56,2.52-1.29,3.59-.25.37-.63.63-1.07.73-.53.09-1.07.12-1.61.11-.66,0-1.82-.01-3.47-.04s-3.48-.14-5.47-.34c.43.71.76,1.46,1,2.25.23.76.39,1.54.46,2.33,1.88.1,3.69.17,5.42.19,1.35.04,2.7,0,4.05-.11.94-.07,1.86-.27,2.75-.57.79-.3,1.47-.82,1.98-1.49.91-1.25,1.5-2.71,1.72-4.24.56-2.93.95-5.89,1.15-8.86.33-3.9.62-9.08.88-15.55.05-.28.08-.56.07-.84v-1.38h-4.81v.91h0ZM499.68,263.56v15.51h-20.4v-15.51h20.4ZM474.54,283.73h30.03v-24.75h-30.03v24.75ZM482.22,293.01c-.37,3.76-1.03,7.49-1.95,11.15-.86,3.51-2.16,6.89-3.85,10.08-1.65,3.07-3.9,5.79-6.61,7.98.71.44,1.38.95,1.98,1.53.63.55,1.17,1.2,1.61,1.91,2.92-2.4,5.34-5.35,7.14-8.67,1.85-3.43,3.27-7.07,4.24-10.85,1.03-3.97,1.8-8,2.29-12.07.51-4.15.87-8.24,1.07-12.26h-5.04c-.2,3.67-.49,7.4-.88,11.19h0ZM578.97,266.92h5.2v-11.54h-5.2v11.54ZM550.4,277.46h4.89v-9.32h53.47v9.32h5.05v-13.21h-63.41v13.21h0ZM597.54,275.86v5.58h-30.64v-5.58h30.64ZM562.09,284.8h40.49v-12.38h-40.49v12.38h0ZM561.44,261.43c1.01,1.21,1.9,2.51,2.64,3.9l4.73-1.91c-.81-1.33-1.75-2.58-2.79-3.74-1.12-1.31-2.33-2.53-3.63-3.67l-4.5,1.45c1.25,1.26,2.43,2.58,3.55,3.96h0ZM598.64,259.75c-1.25,1.58-2.4,2.93-3.47,4.05l4.12,1.45c1.07-1.02,2.28-2.23,3.63-3.63,1.34-1.39,2.6-2.86,3.78-4.39l-5.12-1.6c-.9,1.43-1.88,2.81-2.94,4.12h0ZM602.04,299.62v4.51h-39.26v-4.51h39.26ZM602.04,307.34v4.51h-39.26v-4.51h39.26ZM602.04,291.98v4.43h-39.26v-4.43h39.26ZM557.89,315.2h49.19v-26.5h-49.19v26.5ZM564.34,318.41c-2.59.79-5.22,1.46-7.87,1.99-2.77.56-5.48,1.04-8.13,1.45.47.36.9.75,1.3,1.18.46.48.91.98,1.37,1.49s.84.94,1.15,1.3c2.54-.61,5.24-1.31,8.1-2.1,2.85-.79,5.6-1.68,8.25-2.67,2.35-.86,4.63-1.92,6.8-3.17l-4.82-1.91c-1.97,1-4.03,1.82-6.15,2.45h0ZM596.58,321.04c2.72.79,5.27,1.58,7.64,2.37,2.37.79,4.37,1.52,6,2.18l5.04-3.05c-1.84-.71-4.03-1.47-6.57-2.25-2.55-.79-5.26-1.57-8.14-2.33s-5.74-1.45-8.59-2.06l-3.74,2.98c2.85.66,5.64,1.39,8.36,2.18h0Z"/>
  </g>
</svg>