<svg preserveAspectRatio="none" width="100%" height="100%" overflow="visible" style="display: block;" viewBox="0 0 81.999 48.9031" fill="none" xmlns="http://www.w3.org/2000/svg">
<g id="&#231;&#172;&#172;4&#229;&#155;&#158; &#230;&#178;&#150;&#231;&#184;&#132;NICE&#230;&#152;&#160;&#231;&#148;&#187;&#231;&#165;&#173; NICE&#231;&#137;&#185;&#229;&#136;&#165;&#232;&#179;&#158;">
<path id="&#227;&#130;&#183;&#227;&#130;&#167;&#227;&#130;&#164;&#227;&#131;&#151; 1" fill-rule="evenodd" clip-rule="evenodd" d="M36.1561 47.8263C34.3016 45.8351 31.2575 44.5868 28.7341 43.745C28.9252 41.7437 28.1004 39.2572 25.6569 37.458C25.0255 37.0083 24.3678 36.5978 23.6874 36.2286C23.8112 37.6556 24.1486 38.881 24.7375 39.8256C25.3985 40.8915 27.4461 42.8076 28.3578 43.6212C26.8241 43.1222 25.3829 42.7171 23.741 42.2273C23.7546 41.6846 23.6103 40.9301 23.4241 40.2219C23.2174 39.4429 22.9649 38.7203 22.7865 38.3978C22.2648 37.4618 21.5696 36.7337 20.9368 36.1646C20.4329 35.723 19.9066 35.3083 19.3602 34.9222C19.2139 37.1268 19.6556 39.2286 23.3354 42.1057C21.7978 41.643 20.3099 41.168 18.8064 40.5808C18.8415 40.017 18.6942 36.9672 16.868 34.5011C16.4215 33.9047 16.0139 33.4512 15.7516 33.1609C14.8253 36.0147 16.2479 38.5701 18.392 40.416C16.919 39.8351 15.4994 39.1238 14.1496 38.2904C14.4763 36.6858 14.3427 33.6131 12.9055 30.7118C11.089 33.3989 12.4609 36.5316 13.7742 38.0494C12.4613 37.2003 11.2594 36.1867 10.1969 35.0327C10.1813 35.0159 10.1666 34.9988 10.151 34.982C10.6269 33.9177 11.7052 30.3377 10.7175 27.3356C8.86109 29.1722 8.70897 31.8328 9.6138 34.1193C9.68304 34.3006 9.76347 34.4773 9.85463 34.6483C9.85564 34.6492 9.85634 34.6503 9.85658 34.6516C8.81459 33.444 7.93075 32.1052 7.22693 30.6684C8.94981 28.3779 9.53776 25.7629 9.15945 23.267C6.8574 24.791 6.4664 28.0814 7.04752 30.297C6.35776 28.8395 5.79498 27.3237 5.36559 25.767C7.49116 23.6383 8.41939 21.1505 8.41841 18.9333C6.63216 19.6766 5.66591 21.491 5.34902 23.3846C5.22497 24.0559 5.2 24.7422 5.27492 25.4209C4.86123 23.8404 4.5971 22.2235 4.48611 20.5923C4.81372 20.34 5.36658 19.7834 5.91259 19.2335C6.33186 18.8037 8.13467 17.2417 8.52956 14.4312C6.7004 14.8389 5.50014 16.4528 4.8771 18.2119C4.6266 18.9175 4.49094 19.6596 4.4754 20.4093C4.43055 19.6849 4.41202 18.976 4.4247 18.2897C4.49002 14.6997 5.25639 11.1288 6.55805 7.81698C6.61655 7.66317 6.66823 7.538 6.70723 7.44099C6.90711 7.22315 7.22303 6.79668 7.56819 6.32841C8.02548 5.70168 8.53152 5.00106 8.80843 4.54663C9.98724 2.59809 10.3685 1.10082 10.7019 0C9.41976 0.949079 8.37065 1.91278 7.5487 3.67421C7.24233 4.37197 6.99793 5.096 6.8184 5.83772C6.68489 6.33846 6.59388 6.84985 6.54636 7.3663C6.50444 7.46805 6.44789 7.6034 6.38159 7.77342C6.06373 8.56423 5.68832 9.62643 5.38606 10.6581C5.42896 10.3538 5.53526 9.44297 5.67469 8.4196C5.75074 7.85502 5.83653 7.25674 5.90186 6.7048C5.96803 6.23053 6.00191 5.75221 6.00326 5.27323C5.97304 4.22101 5.73319 3.03405 5.37633 1.69643C4.5612 3.25613 3.92547 4.9573 4.14095 6.86C4.25405 7.91251 4.6548 9.96567 5.36657 10.7234C4.88985 12.345 4.55094 14.005 4.35352 15.6852C3.99081 10.5695 4.3662 10.3802 2.70085 6.89527C1.13885 11.7173 3.44187 15.2872 4.32622 15.9316C4.14703 17.5714 4.11571 19.2242 4.23262 20.8698C2.85003 16.1476 3.29659 15.8373 0.848295 12.5474C0.196 17.4276 2.70083 20.5605 4.2638 21.2552C4.40226 22.8636 4.68623 24.4556 5.1121 26.0113C2.7496 21.7308 3.15325 21.3084 0 18.5662C0.324685 24.0877 4.09513 26.2527 5.24859 26.4897C5.69434 28.0112 6.26781 29.4913 6.9627 30.9137C6.64484 30.5464 6.19924 30.0231 5.7283 29.4499C5.62592 29.3286 5.52453 29.2035 5.4241 29.0774C3.83188 27.1213 3.46331 26.3804 0.325668 24.7362C1.78041 29.6415 5.36755 31.4649 7.22791 31.4342C7.95306 32.8184 8.84595 34.1054 9.88584 35.2655C9.84781 35.242 9.80979 35.2183 9.76884 35.1933C9.56701 35.0678 9.34176 34.9166 9.09215 34.7558C8.85132 34.5879 8.58222 34.4128 8.31896 34.2175C5.80338 32.4465 5.71173 31.7155 1.85939 30.7414C3.61737 33.9848 6.26848 36.2319 9.85756 35.8581C9.95116 35.8477 10.0399 35.8339 10.1237 35.8168C10.1995 35.8014 10.2744 35.7816 10.348 35.7576C11.4202 36.8562 12.6159 37.8234 13.9108 38.6395C13.6524 38.5703 12.8607 38.3482 12.1284 38.1071C8.99856 37.0698 8.83182 36.5602 4.72694 36.5391C8.74406 40.9795 13.1785 39.9547 14.5387 39.0251C15.832 39.7836 17.1816 40.439 18.5753 40.9852C13.3784 40.6796 13.199 40.1726 9.2316 41.522C14.5163 44.6339 18.7011 41.8942 19.3193 41.275C20.696 41.7967 22.0815 42.2405 23.4885 42.6717C22.4393 42.7184 19.0336 42.8849 18.0225 43.1926C16.9333 43.526 15.8111 44.1689 14.6157 45.0257C15.4829 45.2955 16.3752 45.4742 17.2785 45.5591C20.4678 45.8186 23.7059 43.6304 24.3065 42.9214C25.5575 43.3008 27.0639 43.7463 28.4143 44.203C23.0136 44.3866 21.7793 45.4857 20.0301 47.3502C20.8647 47.4775 21.7086 47.5313 22.5524 47.5109C25.2464 47.4046 28.6483 45.1868 29.2714 44.502C33.4357 46.0046 35.0728 47.4201 36.3082 48.9031C36.2771 48.5416 36.2264 48.1821 36.1561 47.8263ZM4.64115 15.335C7.9816 13.3737 9.03365 11.4607 9.45779 9.89425C6.94221 10.063 5.06529 12.7888 4.64115 15.335ZM7.92504 6.74639C7.51467 7.11148 7.14962 7.52575 6.8379 7.98008C6.38119 8.66318 6.01808 9.40591 5.75853 10.1879C5.98669 10.0781 8.65339 8.68693 9.21501 8.17875C10.0009 7.46302 10.8482 6.17212 11.1241 5.47012C9.90046 5.37321 8.84937 5.91319 7.92504 6.74639ZM45.843 47.8263C47.6965 45.8351 50.7405 44.5868 53.2639 43.745C53.0728 41.7437 53.8987 39.2572 56.3421 37.458C56.9734 37.0081 57.6311 36.5975 58.3117 36.2286C58.1869 37.6556 57.8505 38.881 57.2606 39.8256C56.5995 40.8915 54.5529 42.8076 53.6403 43.6212C55.174 43.1222 56.6161 42.7171 58.257 42.2273C58.2444 41.6846 58.3887 40.9301 58.5749 40.2219C58.7806 39.4429 59.0342 38.7203 59.2116 38.3978C59.7332 37.4618 60.4294 36.7337 61.0622 36.1646C61.566 35.7233 62.092 35.3087 62.6379 34.9222C62.7841 37.1268 62.3424 39.2286 58.6637 42.1057C60.2003 41.643 61.6892 41.168 63.1917 40.5808C63.1566 40.017 63.3048 36.9672 65.131 34.5011C65.5766 33.9047 65.9852 33.4512 66.2465 33.1609C67.1737 36.0147 65.7511 38.5701 63.6061 40.416C65.0791 39.8351 66.4987 39.1238 67.8484 38.2904C67.5218 36.6858 67.6563 33.6131 69.0926 30.7118C70.91 33.3989 69.5372 36.5316 68.2238 38.0494C69.5369 37.2 70.7391 36.1865 71.8022 35.0327C71.8168 35.0159 71.8324 34.9988 71.848 34.982C71.3712 33.9177 70.2928 30.3377 71.2815 27.3356C73.138 29.1722 73.2891 31.8328 72.3852 34.1193C72.3157 34.3006 72.2349 34.4773 72.1434 34.6483C72.1425 34.6494 72.1425 34.6504 72.1415 34.6516C73.1838 33.444 74.068 32.1052 74.7721 30.6684C73.0483 28.3779 72.4603 25.7629 72.8386 23.267C75.1407 24.791 75.5326 28.0814 74.9506 30.297C75.6407 28.8397 76.2035 27.3239 76.6325 25.767C74.5069 23.6383 73.5787 21.1505 73.5806 18.9333C75.3669 19.6766 76.3331 21.491 76.649 23.3846C76.7731 24.0559 76.7981 24.7422 76.7231 25.4209C77.1373 23.8405 77.4014 22.2236 77.5119 20.5923C77.1843 20.34 76.6315 19.7834 76.0855 19.2335C75.6662 18.8037 73.8634 17.2417 73.4685 14.4312C75.2976 14.8389 76.4979 16.4528 77.1209 18.2119C77.3714 18.9175 77.5071 19.6596 77.5227 20.4093C77.5675 19.6849 77.587 18.976 77.5734 18.2897C77.508 14.6997 76.7417 11.1288 75.441 7.81698C75.3825 7.66317 75.3308 7.538 75.2908 7.44099C75.0919 7.22315 74.775 6.79668 74.4309 6.32841C73.9726 5.70168 73.4675 5.00106 73.1896 4.54663C72.0108 2.59809 71.6296 1.10082 71.2961 0C72.5783 0.949079 73.6274 1.91278 74.4494 3.67421C74.7557 4.3721 75.0004 5.0961 75.1806 5.83772C75.3144 6.33836 75.4051 6.8498 75.4517 7.3663C75.4936 7.46805 75.5512 7.6034 75.6165 7.77342C75.9343 8.56423 76.3107 9.62643 76.613 10.6581C76.5701 10.3538 76.4628 9.44297 76.3234 8.4196C76.2473 7.85502 76.1625 7.25674 76.0972 6.7048C76.0312 6.2305 75.997 5.75221 75.9948 5.27323C76.025 4.22101 76.2659 3.03405 76.6227 1.69643C77.4369 3.25613 78.0726 4.9573 77.8571 6.86C77.744 7.91251 77.3433 9.96567 76.6315 10.7234C77.1082 12.345 77.4471 14.005 77.6445 15.6852C78.0082 10.5695 77.6328 10.3802 79.2982 6.89527C80.8602 11.7173 78.5572 15.2872 77.6719 15.9316C77.8514 17.5713 77.883 19.2242 77.7664 20.8698C79.148 16.1476 78.7024 15.8373 81.1498 12.5474C81.803 17.4276 79.2982 20.5605 77.7352 21.2552C77.5964 22.8636 77.3122 24.4556 76.886 26.0113C79.2494 21.7308 78.8458 21.3084 81.999 18.5662C81.6743 24.0877 77.9039 26.2527 76.7505 26.4897C76.3044 28.0113 75.7306 29.4913 75.0354 30.9137C75.3532 30.5464 75.7988 30.0231 76.2697 29.4499C76.3731 29.3286 76.4735 29.2035 76.574 29.0774C78.1672 27.1213 78.5357 26.3804 81.6724 24.7362C80.2177 29.6415 76.6305 31.4649 74.7702 31.4342C74.045 32.8184 73.1521 34.1054 72.1122 35.2655C72.1503 35.242 72.1893 35.2183 72.2292 35.1933C72.432 35.0678 72.6573 34.9166 72.9059 34.7558C73.1467 34.5879 73.4168 34.4128 73.6791 34.2175C76.1947 32.4465 76.2873 31.7155 80.1397 30.7414C78.3817 33.9848 75.7296 36.2319 72.1405 35.8581C72.0469 35.8477 71.9582 35.8339 71.8753 35.8168C71.7992 35.8014 71.724 35.7816 71.6501 35.7576C70.5783 36.8562 69.3828 37.8234 68.0883 38.6395C68.3467 38.5703 69.1374 38.3482 69.8697 38.1071C73.0005 37.0698 73.1662 36.5602 77.2711 36.5391C73.254 40.9795 68.8196 39.9547 67.4604 39.0251C66.1669 39.7832 64.8173 40.4386 63.4237 40.9852C68.6197 40.6796 68.8 40.1726 72.7665 41.522C67.4818 44.6339 63.297 41.8942 62.6788 41.275C61.3021 41.7967 59.9175 42.2405 58.5106 42.6717C59.5587 42.7184 62.9645 42.8849 63.9756 43.1926C65.0647 43.526 66.187 44.1689 67.3833 45.0257C66.5158 45.2954 65.6231 45.4741 64.7195 45.5591C61.5302 45.8186 58.2922 43.6304 57.6915 42.9214C56.4406 43.3008 54.9342 43.7463 53.5847 44.203C58.9844 44.3866 60.2188 45.4857 61.968 47.3502C61.1334 47.4775 60.2894 47.5313 59.4456 47.5109C56.7516 47.4046 53.3497 45.1868 52.7277 44.502C48.5623 46.0046 46.9262 47.4201 45.6909 48.9031C45.7219 48.5416 45.7727 48.1821 45.843 47.8263ZM77.3569 15.335C74.0165 13.3737 72.9654 11.4607 72.5403 9.89425C75.0568 10.063 76.9328 12.7888 77.3569 15.335ZM74.073 6.74639C74.4837 7.11122 74.8487 7.52552 75.1602 7.98008C75.6173 8.66295 75.9804 9.40574 76.2395 10.1879C76.0114 10.0781 73.3447 8.68693 72.784 8.17875C71.9981 7.46302 71.1509 6.17212 70.8749 5.47012C72.0976 5.37321 73.1497 5.91319 74.073 6.74639Z" fill="var(--fill-0, white)"/>
<path id="&#231;&#172;&#172;4&#229;&#155;&#158; &#230;&#178;&#150;&#231;&#184;&#132;NICE&#230;&#152;&#160;&#231;&#148;&#187;&#231;&#165;&#173; NICE&#231;&#137;&#185;&#229;&#136;&#165;&#232;&#179;&#158;_2" fill-rule="evenodd" clip-rule="evenodd" d="M34.0578 15.6607H38.268V14.1882H33.5098V14.5646H37.838V15.2777H34.0578V15.6607ZM33.7214 15.8226C33.6766 16.014 33.6301 16.2011 33.582 16.3838C33.5339 16.5665 33.4861 16.7261 33.4387 16.8626L33.8686 16.9352C33.9115 16.7899 33.957 16.6237 34.0051 16.4366C34.0532 16.2496 34.1001 16.0559 34.1456 15.8556C34.1914 15.6553 34.2336 15.4627 34.2723 15.2777H33.8355C33.8053 15.4494 33.7672 15.631 33.7214 15.8226ZM33.7575 16.6909H38.3196V16.3081H33.8755L33.7575 16.6909ZM38.2095 16.3673C38.1859 16.6875 38.1446 17.006 38.0856 17.3215C38.0418 17.5174 37.9901 17.6441 37.9287 17.7013C37.9046 17.7246 37.8739 17.7396 37.8409 17.7441C37.7945 17.7514 37.7475 17.7547 37.7005 17.754C37.644 17.7585 37.5445 17.7585 37.4012 17.754C37.2578 17.7496 37.1028 17.7387 36.938 17.721C36.9788 17.7824 37.0085 17.8506 37.0258 17.9224C37.0441 17.9903 37.0561 18.0598 37.0619 18.1299C37.2315 18.1387 37.3904 18.1431 37.5377 18.1431C37.6849 18.1431 37.8009 18.1409 37.8828 18.1365C37.9604 18.1347 38.0373 18.1214 38.111 18.097C38.1768 18.0722 38.2368 18.034 38.2875 17.9848C38.3942 17.8542 38.4639 17.6967 38.4893 17.5292C38.5579 17.1867 38.6058 16.8403 38.6326 16.4919C38.6451 16.431 38.6517 16.3691 38.6521 16.307H38.2095V16.3663V16.3673ZM35.7124 18.4276H36.1434V14.2873H35.7124V18.4276ZM35.0777 16.8989C34.8686 17.0596 34.6487 17.2053 34.4195 17.3347C34.1819 17.4693 33.9371 17.5906 33.6863 17.6979C33.4466 17.8013 33.2003 17.8884 32.9492 17.9587C32.9794 17.9895 33.0126 18.0258 33.0477 18.0674C33.0828 18.109 33.1169 18.1521 33.152 18.1958C33.1817 18.2327 33.2078 18.2724 33.23 18.3143C33.4828 18.2266 33.7308 18.1252 33.973 18.0106C34.2276 17.89 34.4757 17.7556 34.7159 17.6078C34.9529 17.4625 35.1793 17.3003 35.3936 17.1224C35.5914 16.9595 35.7727 16.777 35.9347 16.5776L35.5886 16.4195C35.4351 16.5968 35.2638 16.7574 35.0777 16.8989ZM33.7253 13.3232H35.8362V12.9599H33.7253V13.3232ZM36.2282 13.3232H38.8803V12.9599H36.2282V13.3232ZM33.464 13.2076C33.3074 13.467 33.1194 13.7055 32.9043 13.9175C32.9456 13.9394 32.9857 13.9637 33.0243 13.9901C33.0701 14.0209 33.1149 14.0507 33.1578 14.079C33.194 14.1023 33.2289 14.1277 33.2622 14.155C33.4057 14.0077 33.5356 13.8475 33.6502 13.6762C33.7774 13.4877 33.8949 13.2926 34.0022 13.0918C34.1124 12.8871 34.2091 12.6754 34.2918 12.4579L33.8813 12.3456C33.7721 12.6468 33.6322 12.9357 33.464 13.2076ZM35.9835 13.1977C35.8041 13.4516 35.5901 13.6784 35.3478 13.8712C35.3927 13.8922 35.4355 13.9176 35.4755 13.9471C35.5203 13.9802 35.5652 14.0121 35.6091 14.0429C35.6459 14.0684 35.6805 14.0971 35.7124 14.1288C35.9548 13.908 36.1713 13.6599 36.3579 13.3892C36.5617 13.1002 36.7263 12.7848 36.8474 12.4514L36.4359 12.3458C36.3238 12.6492 36.1716 12.9358 35.9835 13.1977ZM34.3181 13.6897C34.374 13.8252 34.4178 13.9655 34.4488 14.1089L34.8398 13.9637C34.8039 13.8211 34.7559 13.6819 34.6964 13.5476C34.6323 13.3965 34.5603 13.2488 34.481 13.1052L34.1095 13.2373C34.188 13.3838 34.2577 13.5351 34.3181 13.6902V13.6897ZM37.1535 13.6929C37.2433 13.8316 37.3176 13.98 37.3748 14.1353L37.759 13.9773C37.6912 13.8253 37.6107 13.6795 37.5182 13.5415C37.4185 13.3858 37.3073 13.2378 37.1857 13.099L36.821 13.2311C36.942 13.3772 37.0531 13.5315 37.1535 13.6929ZM41.9048 17.9126V13.0789H41.3374L39.3103 16.2154V16.5655H42.5561V16.1362H39.8777L41.0312 14.4061C41.0965 14.2876 41.1619 14.1684 41.2262 14.0495C41.2906 13.9305 41.353 13.8162 41.4095 13.7062H41.4417C41.4329 13.8247 41.4241 13.9678 41.4154 14.1353C41.4066 14.3027 41.4027 14.4435 41.4027 14.5579V17.9126H41.9048ZM46.8317 14.5712V16.156H45.1692V14.5712H46.8317ZM44.7529 16.5522H47.2685V14.1749H44.7529V16.5522ZM43.3118 18.4209H43.7623V13.0986H48.2786V18.4209H48.7408V12.6562H43.3118V18.4209ZM43.5663 18.0644H48.5458V17.6484H43.5663V18.0644ZM16.7422 25.4215H17.2112V22.5991H20.5634V25.3838H21.0548V22.1161H16.7422V25.4215ZM18.6192 27.5498H19.1262V20.6671H18.6192V27.5498ZM16.9802 24.9763H20.7789V24.4858H16.9802V24.9763ZM15.3012 21.3274C15.4825 21.4255 15.6512 21.5262 15.8072 21.6294C15.9409 21.7146 16.0669 21.8119 16.1835 21.9199L16.4819 21.4973C16.3583 21.393 16.2262 21.2996 16.087 21.218C15.9281 21.1225 15.7578 21.0281 15.5761 20.935C15.4054 20.8467 15.2303 20.7674 15.0515 20.6973L14.7756 21.0746C14.9443 21.1452 15.1195 21.2294 15.3012 21.3274ZM14.917 23.3537C15.1013 23.4394 15.2738 23.5287 15.4347 23.6217C15.5732 23.6995 15.7064 23.7865 15.8335 23.8821L16.1017 23.4518C15.9735 23.3565 15.8378 23.272 15.696 23.199C15.5293 23.1111 15.3541 23.0268 15.1705 22.9462C14.9869 22.8656 14.8107 22.7977 14.642 22.7424L14.3807 23.1345C14.563 23.1983 14.742 23.2715 14.917 23.3537ZM15.0515 27.4592C15.1958 27.2227 15.3473 26.9661 15.5059 26.6894C15.6645 26.4127 15.8208 26.1285 15.9749 25.8366C16.129 25.5449 16.2681 25.2683 16.3922 25.0068L16.0276 24.6748C15.8881 24.9616 15.7354 25.2559 15.5693 25.5577C15.4032 25.8594 15.2381 26.1462 15.074 26.418C14.9102 26.6897 14.761 26.9237 14.6264 27.1199L15.0515 27.4592ZM24.9578 25.3612H28.153V24.9759H24.9578V25.3612ZM27.8556 22.3876V23.0441H25.2338V22.3876H27.8556ZM27.8556 21.3839V22.0253H25.2338V21.3839H27.8556ZM24.794 23.4288H28.31V21.0067H24.794V23.4292V23.4288ZM26.2985 26.8022C26.2923 26.9645 26.3138 27.1266 26.3619 27.2814C26.3798 27.3343 26.4091 27.3824 26.4478 27.4222C26.4864 27.462 26.5334 27.4926 26.5852 27.5116C26.7309 27.5575 26.8832 27.5779 27.0356 27.572H28.1238C28.3617 27.572 28.5242 27.5104 28.6113 27.3871C28.6984 27.2639 28.7543 27.0362 28.779 26.7041C28.7146 26.6844 28.6434 26.6589 28.5664 26.6286C28.4977 26.6026 28.4318 26.5697 28.3695 26.5305C28.3665 26.7051 28.3426 26.8787 28.2983 27.0475C28.2837 27.0896 28.2556 27.1255 28.2185 27.1495C28.1814 27.1734 28.1374 27.184 28.0935 27.1796H27.0883C26.944 27.1796 26.8523 27.157 26.8123 27.1116C26.7724 27.0663 26.7529 26.9658 26.7529 26.8098V21.1425H26.2985V26.8026V26.8022ZM24.7121 26.8475H25.1587V23.9051H24.7121V26.8482V26.8475ZM24.9803 24.2967H27.9892V26.0476H24.9803V26.4399H28.4514V23.9051H24.9803V24.2975V24.2967ZM22.7757 21.1987C22.6811 21.4026 22.5817 21.6025 22.4774 21.7987C22.373 21.9948 22.2762 22.1659 22.1868 22.3119L22.53 22.47C22.6402 22.3108 22.7421 22.146 22.8352 21.976C22.9395 21.7873 23.0448 21.5936 23.1511 21.3948C23.2584 21.1961 23.3565 21.0037 23.4456 20.8175L23.0068 20.6439C22.9463 20.8103 22.8693 20.9954 22.7757 21.1991V21.1987ZM23.4904 22.1383C23.3569 22.3698 23.2135 22.6037 23.0624 22.8397C22.9113 23.0757 22.7582 23.3014 22.6041 23.5152C22.4501 23.7289 22.3038 23.9189 22.1644 24.085L22.4774 24.2661C22.6665 24.0448 22.8664 23.7882 23.077 23.4964C23.2876 23.2046 23.4963 22.9014 23.703 22.5869C23.9087 22.2726 24.0962 21.977 24.2656 21.7002L23.8405 21.4965C23.741 21.6935 23.625 21.9073 23.4904 22.1387V22.1383ZM22.217 22.5987C22.3506 22.7496 22.4754 22.9006 22.5895 23.0514C22.6886 23.1788 22.7758 23.3152 22.8498 23.459L23.1404 23.0892C23.063 22.9494 22.9718 22.818 22.8684 22.6968C22.7513 22.556 22.6256 22.4126 22.4891 22.2666C22.3526 22.1207 22.217 21.9874 22.0825 21.8666L21.8143 22.1836C21.9489 22.3098 22.0825 22.4481 22.217 22.5991V22.5987ZM23.8365 23.7457C23.9282 23.9371 24.0121 24.1244 24.0862 24.3081C24.1525 24.4653 24.205 24.6282 24.2432 24.7948L24.6449 24.6061C24.6009 24.4448 24.5449 24.2871 24.4771 24.1345C24.4001 23.9559 24.3134 23.7722 24.2168 23.5835C24.1203 23.3948 24.0189 23.2201 23.9155 23.059L23.5431 23.21C23.6506 23.3831 23.7485 23.5621 23.8365 23.7461V23.7457ZM21.7851 24.44C22.1176 24.4203 22.4998 24.3977 22.9317 24.3722C23.3637 24.3467 23.8031 24.319 24.25 24.2892V23.859C23.7839 23.8842 23.3295 23.9081 22.8869 23.9307C22.4442 23.9532 22.0643 23.9697 21.7471 23.9801L21.7851 24.44ZM23.9857 25.7419C24.0502 25.9627 24.0962 26.1887 24.1232 26.4173L24.5181 26.2889C24.4852 26.064 24.4353 25.8419 24.3689 25.6247C24.2999 25.382 24.2129 25.1448 24.1086 24.9153L23.7439 25.021C23.8376 25.2568 23.9183 25.4977 23.9857 25.7426V25.7419ZM22.0376 25.9117C21.9756 26.2017 21.8728 26.4811 21.7325 26.7416C21.779 26.7543 21.8241 26.772 21.867 26.7944C21.9167 26.8196 21.9664 26.8435 22.0162 26.866C22.0556 26.883 22.0929 26.9045 22.1273 26.9302C22.2602 26.6501 22.3638 26.3567 22.4364 26.0548C22.5239 25.7092 22.5922 25.359 22.6412 25.0058L22.217 24.9303C22.1722 25.2629 22.1124 25.5901 22.0376 25.9121V25.9117ZM22.999 27.5569H23.4456V24.1764H22.999V27.5573V27.5569ZM30.3205 26.9683V23.9424C30.3205 23.6557 30.3117 23.3727 30.2942 23.0934C30.2776 22.8141 30.2581 22.5362 30.2386 22.2594H30.2756L30.8724 23.384L32.9199 26.9687H33.5605V21.4444H32.9726V24.4404C32.9726 24.7223 32.981 25.0091 32.9979 25.3008C33.0148 25.5925 33.036 25.8767 33.0613 26.1536H33.0243L32.4285 25.0216L30.3654 21.4444H29.7326V26.9687H30.3205V26.9683ZM35.6988 26.9683V21.4444H35.0806V26.9687H35.6988V26.9683ZM40.182 26.8588C40.4584 26.7139 40.7039 26.5151 40.9044 26.274L40.5622 25.8815C40.3978 26.0715 40.2009 26.23 39.9811 26.3495C39.7624 26.4625 39.5197 26.5195 39.2742 26.5154C38.943 26.5236 38.6178 26.4244 38.346 26.2325C38.0737 26.0281 37.8647 25.7493 37.7434 25.4287C37.5934 25.0342 37.5212 24.6137 37.5309 24.1911C37.521 23.773 37.5943 23.3572 37.7463 22.9685C37.8728 22.6492 38.0878 22.374 38.3655 22.1761C38.6397 21.988 38.9646 21.8905 39.2956 21.8968C39.5173 21.8929 39.7368 21.9421 39.9363 22.0402C40.1237 22.1347 40.291 22.2657 40.4286 22.4255L40.7709 22.018C40.5924 21.8321 40.3865 21.6754 40.1605 21.5537C39.8921 21.4105 39.5921 21.3391 39.2888 21.3462C38.9609 21.3431 38.636 21.4099 38.3353 21.5424C38.0432 21.6724 37.7837 21.8672 37.5757 22.1122C37.3532 22.3772 37.1836 22.6835 37.0765 23.014C36.9525 23.3988 36.8923 23.8017 36.8981 24.2064C36.8916 24.6134 36.9505 25.0188 37.0726 25.4067C37.1774 25.7366 37.3442 26.0428 37.564 26.3085C37.7672 26.5514 38.0218 26.7449 38.3089 26.8745C38.6038 27.0047 38.9224 27.0703 39.244 27.067C39.5685 27.0742 39.8901 27.0029 40.182 26.8589V26.8588ZM45.1283 26.9683V26.4399H42.5581V24.32H44.6515V23.7915H42.5581V21.9726H45.0464V21.4444H41.9399V26.9687H45.1283V26.9683ZM48.2786 24.84H52.7179V24.3722H48.2786V24.84ZM48.8002 24.5609H49.2624V22.3349H51.8024V24.5613H52.2635V21.867H48.8002V24.5613V24.5609ZM50.2374 23.542C50.2384 23.8981 50.2136 24.2537 50.1633 24.6061C50.1143 24.9459 50.0127 25.2758 49.8621 25.5834C49.6933 25.9142 49.4617 26.2078 49.1805 26.4476C48.8154 26.7518 48.4054 26.9963 47.9656 27.172C48.0077 27.2033 48.0465 27.2387 48.0817 27.2777C48.1235 27.3225 48.162 27.3704 48.1967 27.421C48.2261 27.4624 48.2535 27.5053 48.2786 27.5495C48.7498 27.3612 49.1868 27.0947 49.5715 26.7608C49.8715 26.4927 50.1178 26.1686 50.2969 25.8061C50.4613 25.4636 50.571 25.0968 50.6216 24.7194C50.674 24.3292 50.7 23.9359 50.6996 23.5421V20.6746H50.2374V23.5424V23.542ZM50.3574 24.659C50.4982 25.2936 50.7516 25.8971 51.1052 26.4399C51.4297 26.9286 51.8757 27.3219 52.3981 27.5801C52.4225 27.5397 52.4537 27.4944 52.4907 27.4441C52.5278 27.3939 52.5678 27.3435 52.6097 27.2933C52.6466 27.2486 52.6881 27.2081 52.7335 27.1725C52.2335 26.9618 51.8023 26.6125 51.4894 26.1648C51.155 25.6835 50.9147 25.1416 50.7815 24.5687L50.3574 24.659ZM46.35 21.6704H47.5717V25.6702H46.35V26.1305H48.0329V21.2029H46.35V21.6708V21.6704ZM46.3646 23.859H47.8545V23.4062H46.3646V23.859ZM46.1111 26.7343H46.5733V21.2021H46.1111V26.7343ZM53.9172 27.0815H59.4963V26.5985H53.9172V27.0815ZM53.418 21.6176H59.9877V21.1421H53.418V21.6176ZM53.6491 27.5569H54.1337V22.4255H53.6491V27.5573V27.5569ZM59.2955 27.5342H59.7791V22.4255H59.2955V27.5346V27.5342ZM56.4201 22.7345H56.9261V21.2935H56.4201V22.7349V22.7345ZM56.4494 25.7004H56.8969V22.6821H56.4494V25.7008V25.7004ZM58.0435 24.4024V25.4514H55.3173V24.4028H58.0435V24.4024ZM58.0435 22.9383V23.9873H55.3173V22.9387H58.0435V22.9383ZM54.8854 25.8891H58.4833V22.5085H54.8854V25.8895V25.8891ZM61.9466 21.3044C61.7724 21.5504 61.5769 21.7802 61.3625 21.9911C61.129 22.2209 60.8758 22.4291 60.6059 22.6135C60.641 22.6387 60.679 22.6701 60.7219 22.7078C60.7648 22.7456 60.8048 22.7859 60.8448 22.8286C60.8786 22.864 60.9084 22.9033 60.9335 22.9455C61.3623 22.6457 61.7474 22.2862 62.0772 21.8776C62.3666 21.519 62.6222 21.1337 62.8407 20.7268L62.3492 20.6437C62.2307 20.8735 62.0961 21.0944 61.9466 21.3048V21.3044ZM62.0138 21.5195H63.7865V21.1421H62.2371L62.0138 21.5195ZM63.6743 21.233C63.5636 21.6125 63.4036 21.9754 63.1985 22.3122C62.9994 22.6384 62.7617 22.9387 62.4906 23.2064C62.2279 23.4661 61.9382 23.6964 61.6268 23.8932C61.3298 24.0817 61.0125 24.2349 60.681 24.3498C60.7374 24.4091 60.7883 24.4736 60.8331 24.5423C60.88 24.6103 60.9211 24.6822 60.9559 24.7574C61.4254 24.564 61.8685 24.3104 62.2742 24.0027C62.7059 23.6761 63.0854 23.2841 63.3994 22.8404C63.7376 22.3606 63.9898 21.8241 64.1443 21.2556L63.8459 21.1198L63.764 21.1424H63.6743V21.233ZM62.2517 22.165C62.4107 22.2631 62.5628 22.3601 62.7061 22.4555C62.8276 22.5343 62.9444 22.62 63.0561 22.7124L63.3028 22.4331C63.1931 22.3378 63.0757 22.2519 62.9518 22.1763C62.8085 22.0857 62.6564 21.9952 62.4975 21.9046C62.3385 21.814 62.1854 21.7336 62.0363 21.663L61.7974 21.9121C61.9417 21.9828 62.0931 22.0671 62.2517 22.165ZM65.9725 26.4252C66.1685 26.6063 66.3534 26.7849 66.5273 26.961C66.6764 27.1079 66.8133 27.2669 66.9368 27.4364L67.3619 27.15C67.2357 26.9791 67.0947 26.82 66.9407 26.6745C66.7642 26.5032 66.5767 26.3297 66.3781 26.1538C66.1801 25.9777 65.9861 25.8192 65.7979 25.6784L65.3953 25.9352C65.5844 26.0809 65.7768 26.2443 65.9725 26.4253V26.4252ZM61.5926 22.9198C61.7447 23.0329 61.8881 23.1423 62.0246 23.248C62.1438 23.3386 62.2572 23.4369 62.3639 23.5423L62.6544 23.2707C62.5455 23.169 62.4313 23.0734 62.3122 22.9842C62.1728 22.8788 62.0262 22.7731 61.8725 22.6671C61.7187 22.5612 61.5695 22.4657 61.4249 22.3807L61.1422 22.6146C61.2913 22.7048 61.4415 22.8065 61.5926 22.9198ZM65.1047 21.5726H66.9816V21.135H65.1047V21.5726ZM62.8105 23.9573H65.716V23.4971H62.8105V23.9573ZM61.3362 25.3009H67.0859V24.833H61.3362V25.3009ZM66.848 21.2483C66.7553 21.4583 66.6457 21.6602 66.5204 21.852C66.3801 22.0696 66.2257 22.2775 66.0583 22.4744C65.9016 22.661 65.7297 22.834 65.5444 22.9914C65.6015 23.0376 65.6562 23.0867 65.7082 23.1386C65.763 23.1905 65.8129 23.2473 65.8574 23.3084C66.0611 23.1319 66.2526 22.9415 66.4307 22.7386C66.6219 22.5209 66.7997 22.2916 66.9631 22.0518C67.1227 21.8197 67.2658 21.5763 67.3911 21.3236L67.0635 21.1047L66.967 21.1349H66.848V21.2481V21.2483ZM64.2038 20.8483C64.368 21.4285 64.6018 21.9861 64.8999 22.5086C65.1755 22.9892 65.5292 23.4191 65.9461 23.7802C66.3713 24.1425 66.8552 24.4272 67.3765 24.6217C67.4067 24.5715 67.4389 24.5199 67.473 24.467C67.5084 24.4141 67.5471 24.3637 67.5891 24.3161C67.631 24.2683 67.6671 24.2293 67.6973 24.1991C67.1956 24.0341 66.7275 23.7785 66.3157 23.4444C65.9133 23.1147 65.5694 22.7178 65.2987 22.2709C65.0114 21.7947 64.7908 21.2804 64.6435 20.7426L64.2038 20.8483ZM63.9132 26.9914C63.9158 27.009 63.9144 27.027 63.9092 27.044C63.904 27.0609 63.895 27.0765 63.883 27.0895C63.8464 27.1094 63.8055 27.1198 63.764 27.1197C63.7192 27.1247 63.647 27.1272 63.5485 27.1272C63.4501 27.1272 63.3311 27.1259 63.1946 27.1235C63.0581 27.121 62.9079 27.1171 62.7441 27.1121C62.7869 27.1853 62.8229 27.2623 62.8514 27.3423C62.8799 27.4174 62.9037 27.4943 62.9226 27.5725C63.2151 27.5725 63.4585 27.5687 63.6529 27.5612C63.8112 27.5586 63.9686 27.5371 64.1219 27.497C64.17 27.4858 64.2155 27.465 64.2556 27.4358C64.2958 27.4067 64.3299 27.3698 64.3559 27.3272C64.4035 27.2248 64.4253 27.112 64.4193 26.9989V25.0366H63.9132V26.9914ZM61.6599 26.4329C61.4122 26.6646 61.1413 26.8695 60.8516 27.0442C60.8916 27.0693 60.9374 27.102 60.9901 27.1423C61.0427 27.1827 61.0934 27.2228 61.1461 27.2631C61.1897 27.2949 61.2284 27.333 61.2611 27.3763C61.5565 27.1716 61.8333 26.9405 62.0879 26.6857C62.3537 26.4274 62.5843 26.1343 62.7734 25.8141L62.282 25.6632C62.115 25.9507 61.9052 26.2103 61.6599 26.4328V26.4329ZM22.8723 36.0249V32.9985C22.8723 32.7117 22.8635 32.4287 22.8459 32.1495C22.8284 31.8704 22.8098 31.5924 22.7903 31.3155H22.8274L23.4231 32.4401L25.4717 36.0248H26.1123V30.5005H25.5243V33.4966C25.5243 33.7784 25.5321 34.0652 25.5497 34.3569C25.5672 34.6486 25.5887 34.933 25.6131 35.2098H25.576L24.9803 34.0777L22.9171 30.5005H22.2843V36.0248H22.8723V36.0249ZM28.2505 36.0249V30.5005H27.6314V36.0248H28.2505V36.0249ZM32.7337 35.9154C33.0101 35.7705 33.2556 35.5717 33.4562 35.3306L33.114 34.9382C32.9495 35.1281 32.7527 35.2866 32.5329 35.4061C32.3139 35.5192 32.0708 35.5762 31.825 35.572C31.4941 35.5801 31.1692 35.4809 30.8977 35.2891C30.6254 35.0845 30.4161 34.8058 30.2942 34.4853C30.1445 34.0908 30.0726 33.6703 30.0826 33.2477C30.0728 32.8296 30.1461 32.4138 30.2981 32.0251C30.4242 31.7059 30.6389 31.4307 30.9162 31.2327C31.1909 31.0447 31.5161 30.9472 31.8474 30.9535C32.0691 30.9496 32.2886 30.9987 32.488 31.0968C32.6753 31.1911 32.8423 31.3221 32.9794 31.4821L33.3226 31.0746C33.144 30.8884 32.9377 30.7318 32.7113 30.6103C32.4433 30.467 32.1435 30.3956 31.8406 30.4028C31.5127 30.3997 31.1877 30.4666 30.887 30.599C30.5948 30.7288 30.3352 30.9236 30.1274 31.1688C29.9049 31.4338 29.7353 31.7401 29.6282 32.0707C29.5039 32.4554 29.4433 32.8583 29.4488 33.2631C29.4427 33.6701 29.502 34.0753 29.6243 34.463C29.7291 34.7929 29.896 35.0992 30.1158 35.3649C30.319 35.6078 30.5736 35.8012 30.8607 35.9308C31.1555 36.0611 31.4741 36.1267 31.7957 36.1233C32.1203 36.1305 32.4418 36.0592 32.7337 35.9153V35.9154ZM37.68 36.0249V35.4966H35.1099V33.3758H37.2032V32.8476H35.1099V31.0289H37.5981V30.5005H34.4917V36.0248H37.68V36.0249ZM41.352 31.0138H44.8602V30.5384H41.352V31.0138ZM40.9123 32.5005H45.2024V32.0251H40.9123V32.5005ZM41.0312 33.9194H45.1731V33.4439H41.0312V33.9194ZM42.8418 32.2741H43.3333V29.693H42.8418V32.274V32.2741ZM43.773 35.972C43.7766 36.0099 43.7658 36.0477 43.7428 36.0777C43.7082 36.1031 43.6665 36.1163 43.6238 36.1155H43.2474C43.0612 36.1155 42.8513 36.1129 42.6176 36.1079C42.6617 36.1879 42.6967 36.2727 42.7219 36.3607C42.7482 36.4434 42.7684 36.5279 42.7824 36.6136C43.07 36.6136 43.3118 36.6085 43.5078 36.5985C43.6652 36.5943 43.8216 36.5715 43.9738 36.5305C44.0727 36.498 44.1562 36.4294 44.2079 36.338C44.2565 36.2228 44.2782 36.0977 44.2712 35.9725V32.4259H43.773V35.9725V35.972ZM41.8132 34.8136C41.938 34.9621 42.0511 35.1093 42.1525 35.2551C42.2425 35.381 42.3212 35.5149 42.3875 35.6551L42.797 35.3909C42.7242 35.2548 42.6407 35.1249 42.5474 35.0023C42.4401 34.8589 42.3247 34.7155 42.2012 34.5722C42.0812 34.4337 41.9543 34.3014 41.821 34.1759L41.4417 34.4099C41.5722 34.5379 41.6962 34.6726 41.8132 34.8135V34.8136ZM38.4912 34.3042C38.8683 34.1885 39.2944 34.0539 39.7695 33.9005C40.2434 33.7471 40.7163 33.5923 41.1882 33.4362L41.1209 32.9984C40.7884 33.0991 40.4533 33.2023 40.1157 33.3079C39.778 33.4134 39.4588 33.5089 39.1582 33.5943C38.8579 33.68 38.591 33.7529 38.3577 33.8132L38.4912 34.3042ZM39.7578 36.6136H40.2268V29.7081H39.7578V36.6136ZM38.734 31.0327C38.6863 31.3421 38.6297 31.6339 38.5624 31.9081C38.5027 32.1609 38.4191 32.4073 38.3128 32.6439C38.3479 32.659 38.3898 32.6804 38.4396 32.7081C38.4893 32.7358 38.539 32.7647 38.5888 32.7948C38.6274 32.8175 38.6646 32.8427 38.6999 32.8703C38.8029 32.619 38.8876 32.3605 38.9534 32.0968C39.0275 31.8075 39.0928 31.4994 39.1474 31.1723C39.202 30.8452 39.2459 30.5157 39.281 30.1837L38.8413 30.1082C38.8169 30.4151 38.7812 30.7233 38.734 31.0326V31.0327ZM38.7896 31.7308H41.0244V31.2478H38.8637L38.7896 31.7308ZM49.9771 34.772H50.4617V30.6062H49.9771V34.772ZM51.817 35.9267C51.8199 35.9533 51.817 35.9803 51.8085 36.0057C51.8001 36.0311 51.7864 36.0544 51.7682 36.0739C51.7238 36.1059 51.6707 36.1232 51.6161 36.1233H51.1949C50.9833 36.1233 50.7445 36.1207 50.4763 36.1158C50.5043 36.1682 50.5291 36.2224 50.5504 36.278C50.5758 36.3408 50.5992 36.4026 50.6216 36.4629C50.6416 36.5137 50.6554 36.5668 50.6626 36.621C51.0048 36.6259 51.2817 36.6221 51.4933 36.6096C51.661 36.6043 51.8274 36.5777 51.9886 36.5306C52.091 36.4949 52.1779 36.4242 52.2343 36.3306C52.2916 36.2043 52.3171 36.0656 52.3084 35.9269V29.8365H51.817V35.9267ZM47.1914 33.7909H48.9641V33.3381H47.1914V33.7909ZM48.7554 33.4287C48.731 34.0375 48.705 34.5268 48.6774 34.8965C48.6606 35.176 48.6294 35.4543 48.5838 35.7305C48.5721 35.8576 48.5288 35.9796 48.458 36.0851C48.4334 36.1215 48.3961 36.1471 48.3537 36.1569C48.3018 36.1653 48.2493 36.169 48.1967 36.1681C48.1323 36.1681 48.0192 36.1668 47.8584 36.1644C47.6975 36.1619 47.5191 36.1504 47.325 36.1304C47.3667 36.2001 47.3995 36.2749 47.4225 36.3531C47.4452 36.428 47.4602 36.5052 47.4674 36.5832C47.6507 36.5931 47.8272 36.5995 47.9958 36.6021C48.1276 36.6058 48.2594 36.602 48.3907 36.5908C48.4821 36.5834 48.5722 36.5644 48.6589 36.5341C48.7356 36.5045 48.8025 36.4535 48.8519 36.387C48.9403 36.2632 48.9979 36.1195 49.0196 35.9682C49.0744 35.6789 49.1118 35.3866 49.1318 35.0928C49.1639 34.7079 49.1925 34.196 49.2176 33.557C49.2229 33.5297 49.2252 33.5019 49.2244 33.474V33.3381H48.7554V33.4285V33.4287ZM48.7037 30.5005V32.0326H46.7147V30.5005H48.7037ZM46.2525 32.4929H49.1805V30.0478H46.2525V32.4929ZM47.0013 33.4098C46.9648 33.7813 46.9013 34.1496 46.8112 34.5116C46.7272 34.8581 46.6011 35.1927 46.4358 35.5078C46.2747 35.8114 46.0557 36.0795 45.7913 36.2965C45.8609 36.3395 45.9257 36.3901 45.9844 36.4474C46.0455 36.5022 46.0984 36.5658 46.1413 36.6361C46.4256 36.3986 46.662 36.1078 46.8375 35.7795C47.0175 35.4405 47.1563 35.0807 47.2509 34.7079C47.3515 34.3159 47.4261 33.9176 47.4742 33.5155C47.5239 33.1055 47.5587 32.7017 47.5785 32.3042H47.0871C47.0676 32.6665 47.039 33.0351 47.0013 33.4098ZM56.4347 30.8326H56.9417V29.693H56.4347V30.8326ZM53.6491 31.874H54.1259V30.9534H59.3393V31.874H59.8317V30.5685H53.6491V31.874ZM58.2454 31.7159V32.2669H55.2579V31.7159H58.2454ZM54.7889 32.5989H58.7368V31.376H54.7889V32.5986V32.5989ZM54.7255 30.2896C54.8242 30.4087 54.9104 30.5378 54.9829 30.6749L55.4441 30.4862C55.3646 30.3549 55.2736 30.2311 55.1721 30.1164C55.0627 29.9874 54.9444 29.8663 54.8181 29.7542L54.3794 29.8976C54.5012 30.0221 54.6167 30.1528 54.7255 30.2892V30.2896ZM58.3526 30.1236C58.2307 30.2796 58.1186 30.413 58.0143 30.5235L58.416 30.667C58.5203 30.5664 58.6383 30.4469 58.7699 30.3085C58.9008 30.171 59.0238 30.0262 59.1385 29.8746L58.6393 29.7165C58.552 29.8579 58.4562 29.9937 58.3526 30.1232V30.1236ZM58.6841 34.063V34.5083H54.8562V34.063H58.6841ZM58.6841 34.8253V35.2705H54.8562V34.8253H58.6841ZM58.6841 33.3083V33.7461H54.8562V33.3079H58.6841V33.3083ZM54.3794 35.6019H59.1755V32.9839H54.3794V35.6019ZM55.0083 35.9189C54.7559 35.9973 54.4998 36.0627 54.2409 36.1151C53.9708 36.1703 53.7066 36.218 53.4482 36.2584C53.4936 36.2938 53.536 36.3329 53.575 36.3754C53.6198 36.4232 53.6637 36.4722 53.7085 36.5226C53.7534 36.573 53.7904 36.6156 53.8207 36.651C54.0683 36.5906 54.3316 36.5214 54.6104 36.4436C54.8883 36.3655 55.1565 36.2775 55.4148 36.1794C55.6444 36.0947 55.8662 35.9899 56.0779 35.8662L55.6079 35.6775C55.4158 35.7767 55.2151 35.8576 55.0083 35.9192V35.9189ZM58.1518 36.1792C58.417 36.2571 58.6653 36.3351 58.8967 36.4131C59.1281 36.4912 59.3231 36.5629 59.4817 36.6282L59.9731 36.3264C59.7937 36.2559 59.5802 36.1816 59.3325 36.1037C59.0839 36.0257 58.8193 35.9489 58.5388 35.8735C58.2584 35.7981 57.9792 35.7302 57.7013 35.6698L57.3366 35.9641C57.6148 36.0297 57.8866 36.1014 58.1518 36.1795V36.1792Z" fill="var(--fill-0, white)"/>
</g>
</svg>
